  0
SECTION
  2
BLOCKS
  0
ENDSEC
  0
SECTION
  2
ENTITIES
  0
LINE
  8
0
 10
255
 20
255
 11
-255
 21
255
  0
LINE
  8
0
 10
-255
 20
255
 11
-255
 21
-255
  0
LINE
  8
0
 10
-255
 20
-255
 11
255
 21
-255
  0
LINE
  8
0
 10
255
 20
-255
 11
255
 21
255
  0
LINE
  8
0
 10
100.529
 20
158.904
 11
100.529
 21
161.656
  0
LINE
  8
0
 10
100.529
 20
161.656
 11
103.281
 21
161.656
  0
LINE
  8
0
 10
103.281
 20
161.656
 11
103.281
 21
158.904
  0
LINE
  8
0
 10
103.281
 20
158.904
 11
100.529
 21
158.904
  0
LINE
  8
0
 10
95.2173
 20
158.904
 11
95.2173
 21
161.656
  0
LINE
  8
0
 10
95.2173
 20
161.656
 11
97.9693
 21
161.656
  0
LINE
  8
0
 10
97.9693
 20
161.656
 11
97.9693
 21
158.904
  0
LINE
  8
0
 10
97.9693
 20
158.904
 11
95.2173
 21
158.904
  0
LINE
  8
0
 10
-132.842
 20
138.254
 11
-133.44
 21
138.293
  0
LINE
  8
0
 10
-133.44
 20
138.293
 11
-134.053
 21
138.358
  0
LINE
  8
0
 10
-134.053
 20
138.358
 11
-134.681
 21
138.448
  0
LINE
  8
0
 10
-134.681
 20
138.448
 11
-135.324
 21
138.565
  0
LINE
  8
0
 10
-135.324
 20
138.565
 11
-135.978
 21
138.707
  0
LINE
  8
0
 10
-135.978
 20
138.707
 11
-136.642
 21
138.873
  0
LINE
  8
0
 10
-136.642
 20
138.873
 11
-137.315
 21
139.064
  0
LINE
  8
0
 10
-137.315
 20
139.064
 11
-137.997
 21
139.28
  0
LINE
  8
0
 10
-137.997
 20
139.28
 11
-138.689
 21
139.521
  0
LINE
  8
0
 10
-138.689
 20
139.521
 11
-138.689
 21
142.337
  0
LINE
  8
0
 10
-138.689
 20
142.337
 11
-138.023
 21
141.987
  0
LINE
  8
0
 10
-138.023
 20
141.987
 11
-137.363
 21
141.673
  0
LINE
  8
0
 10
-137.363
 20
141.673
 11
-136.709
 21
141.395
  0
LINE
  8
0
 10
-136.709
 20
141.395
 11
-136.059
 21
141.153
  0
LINE
  8
0
 10
-136.059
 20
141.153
 11
-135.416
 21
140.948
  0
LINE
  8
0
 10
-135.416
 20
140.948
 11
-134.777
 21
140.78
  0
LINE
  8
0
 10
-134.777
 20
140.78
 11
-134.142
 21
140.649
  0
LINE
  8
0
 10
-134.142
 20
140.649
 11
-133.512
 21
140.556
  0
LINE
  8
0
 10
-133.512
 20
140.556
 11
-132.886
 21
140.5
  0
LINE
  8
0
 10
-132.886
 20
140.5
 11
-132.264
 21
140.481
  0
LINE
  8
0
 10
-132.264
 20
140.481
 11
-131.367
 21
140.518
  0
LINE
  8
0
 10
-131.367
 20
140.518
 11
-130.556
 21
140.628
  0
LINE
  8
0
 10
-130.556
 20
140.628
 11
-129.831
 21
140.811
  0
LINE
  8
0
 10
-129.831
 20
140.811
 11
-129.192
 21
141.069
  0
LINE
  8
0
 10
-129.192
 20
141.069
 11
-128.638
 21
141.399
  0
LINE
  8
0
 10
-128.638
 20
141.399
 11
-128.178
 21
141.797
  0
LINE
  8
0
 10
-128.178
 20
141.797
 11
-127.821
 21
142.259
  0
LINE
  8
0
 10
-127.821
 20
142.259
 11
-127.565
 21
142.782
  0
LINE
  8
0
 10
-127.565
 20
142.782
 11
-127.412
 21
143.368
  0
LINE
  8
0
 10
-127.412
 20
143.368
 11
-127.361
 21
144.017
  0
LINE
  8
0
 10
-127.361
 20
144.017
 11
-127.398
 21
144.585
  0
LINE
  8
0
 10
-127.398
 20
144.585
 11
-127.507
 21
145.101
  0
LINE
  8
0
 10
-127.507
 20
145.101
 11
-127.691
 21
145.566
  0
LINE
  8
0
 10
-127.691
 20
145.566
 11
-127.947
 21
145.978
  0
LINE
  8
0
 10
-127.947
 20
145.978
 11
-128.277
 21
146.339
  0
LINE
  8
0
 10
-128.277
 20
146.339
 11
-128.69
 21
146.657
  0
LINE
  8
0
 10
-128.69
 20
146.657
 11
-129.197
 21
146.942
  0
LINE
  8
0
 10
-129.197
 20
146.942
 11
-129.798
 21
147.193
  0
LINE
  8
0
 10
-129.798
 20
147.193
 11
-130.492
 21
147.41
  0
LINE
  8
0
 10
-130.492
 20
147.41
 11
-131.281
 21
147.594
  0
LINE
  8
0
 10
-131.281
 20
147.594
 11
-132.949
 21
147.92
  0
LINE
  8
0
 10
-132.949
 20
147.92
 11
-134.107
 21
148.192
  0
LINE
  8
0
 10
-134.107
 20
148.192
 11
-135.13
 21
148.519
  0
LINE
  8
0
 10
-135.13
 20
148.519
 11
-136.017
 21
148.901
  0
LINE
  8
0
 10
-136.017
 20
148.901
 11
-136.768
 21
149.339
  0
LINE
  8
0
 10
-136.768
 20
149.339
 11
-137.384
 21
149.832
  0
LINE
  8
0
 10
-137.384
 20
149.832
 11
-137.877
 21
150.394
  0
LINE
  8
0
 10
-137.877
 20
150.394
 11
-138.26
 21
151.037
  0
LINE
  8
0
 10
-138.26
 20
151.037
 11
-138.534
 21
151.761
  0
LINE
  8
0
 10
-138.534
 20
151.761
 11
-138.698
 21
152.567
  0
LINE
  8
0
 10
-138.698
 20
152.567
 11
-138.753
 21
153.454
  0
LINE
  8
0
 10
-138.753
 20
153.454
 11
-138.677
 21
154.483
  0
LINE
  8
0
 10
-138.677
 20
154.483
 11
-138.45
 21
155.42
  0
LINE
  8
0
 10
-138.45
 20
155.42
 11
-138.071
 21
156.267
  0
LINE
  8
0
 10
-138.071
 20
156.267
 11
-137.54
 21
157.022
  0
LINE
  8
0
 10
-137.54
 20
157.022
 11
-136.858
 21
157.686
  0
LINE
  8
0
 10
-136.858
 20
157.686
 11
-136.043
 21
158.243
  0
LINE
  8
0
 10
-136.043
 20
158.243
 11
-135.112
 21
158.676
  0
LINE
  8
0
 10
-135.112
 20
158.676
 11
-134.068
 21
158.985
  0
LINE
  8
0
 10
-134.068
 20
158.985
 11
-132.908
 21
159.171
  0
LINE
  8
0
 10
-132.908
 20
159.171
 11
-131.634
 21
159.233
  0
LINE
  8
0
 10
-131.634
 20
159.233
 11
-131.061
 21
159.223
  0
LINE
  8
0
 10
-131.061
 20
159.223
 11
-130.484
 21
159.192
  0
LINE
  8
0
 10
-130.484
 20
159.192
 11
-129.903
 21
159.141
  0
LINE
  8
0
 10
-129.903
 20
159.141
 11
-129.317
 21
159.069
  0
LINE
  8
0
 10
-129.317
 20
159.069
 11
-128.727
 21
158.977
  0
LINE
  8
0
 10
-128.727
 20
158.977
 11
-128.132
 21
158.864
  0
LINE
  8
0
 10
-128.132
 20
158.864
 11
-127.531
 21
158.731
  0
LINE
  8
0
 10
-127.531
 20
158.731
 11
-126.925
 21
158.578
  0
LINE
  8
0
 10
-126.925
 20
158.578
 11
-126.314
 21
158.404
  0
LINE
  8
0
 10
-126.314
 20
158.404
 11
-125.697
 21
158.209
  0
LINE
  8
0
 10
-125.697
 20
158.209
 11
-125.697
 21
155.521
  0
LINE
  8
0
 10
-125.697
 20
155.521
 11
-126.315
 21
155.803
  0
LINE
  8
0
 10
-126.315
 20
155.803
 11
-126.919
 21
156.055
  0
LINE
  8
0
 10
-126.919
 20
156.055
 11
-127.509
 21
156.276
  0
LINE
  8
0
 10
-127.509
 20
156.276
 11
-128.085
 21
156.467
  0
LINE
  8
0
 10
-128.085
 20
156.467
 11
-128.647
 21
156.628
  0
LINE
  8
0
 10
-128.647
 20
156.628
 11
-129.198
 21
156.759
  0
LINE
  8
0
 10
-129.198
 20
156.759
 11
-129.741
 21
156.862
  0
LINE
  8
0
 10
-129.741
 20
156.862
 11
-130.276
 21
156.935
  0
LINE
  8
0
 10
-130.276
 20
156.935
 11
-130.804
 21
156.978
  0
LINE
  8
0
 10
-130.804
 20
156.978
 11
-131.325
 21
156.993
  0
LINE
  8
0
 10
-131.325
 20
156.993
 11
-132.181
 21
156.958
  0
LINE
  8
0
 10
-132.181
 20
156.958
 11
-132.955
 21
156.854
  0
LINE
  8
0
 10
-132.955
 20
156.854
 11
-133.647
 21
156.681
  0
LINE
  8
0
 10
-133.647
 20
156.681
 11
-134.257
 21
156.438
  0
LINE
  8
0
 10
-134.257
 20
156.438
 11
-134.785
 21
156.126
  0
LINE
  8
0
 10
-134.785
 20
156.126
 11
-135.223
 21
155.75
  0
LINE
  8
0
 10
-135.223
 20
155.75
 11
-135.563
 21
155.316
  0
LINE
  8
0
 10
-135.563
 20
155.316
 11
-135.806
 21
154.823
  0
LINE
  8
0
 10
-135.806
 20
154.823
 11
-135.952
 21
154.272
  0
LINE
  8
0
 10
-135.952
 20
154.272
 11
-136.001
 21
153.662
  0
LINE
  8
0
 10
-136.001
 20
153.662
 11
-135.969
 21
153.152
  0
LINE
  8
0
 10
-135.969
 20
153.152
 11
-135.872
 21
152.695
  0
LINE
  8
0
 10
-135.872
 20
152.695
 11
-135.71
 21
152.29
  0
LINE
  8
0
 10
-135.71
 20
152.29
 11
-135.484
 21
151.938
  0
LINE
  8
0
 10
-135.484
 20
151.938
 11
-135.194
 21
151.638
  0
LINE
  8
0
 10
-135.194
 20
151.638
 11
-134.813
 21
151.375
  0
LINE
  8
0
 10
-134.813
 20
151.375
 11
-134.317
 21
151.134
  0
LINE
  8
0
 10
-134.317
 20
151.134
 11
-133.705
 21
150.913
  0
LINE
  8
0
 10
-133.705
 20
150.913
 11
-132.978
 21
150.714
  0
LINE
  8
0
 10
-132.978
 20
150.714
 11
-132.135
 21
150.535
  0
LINE
  8
0
 10
-132.135
 20
150.535
 11
-130.481
 21
150.196
  0
LINE
  8
0
 10
-130.481
 20
150.196
 11
-129.315
 21
149.928
  0
LINE
  8
0
 10
-129.315
 20
149.928
 11
-128.279
 21
149.588
  0
LINE
  8
0
 10
-128.279
 20
149.588
 11
-127.372
 21
149.178
  0
LINE
  8
0
 10
-127.372
 20
149.178
 11
-126.593
 21
148.697
  0
LINE
  8
0
 10
-126.593
 20
148.697
 11
-125.944
 21
148.145
  0
LINE
  8
0
 10
-125.944
 20
148.145
 11
-125.417
 21
147.518
  0
LINE
  8
0
 10
-125.417
 20
147.518
 11
-125.008
 21
146.811
  0
LINE
  8
0
 10
-125.008
 20
146.811
 11
-124.715
 21
146.024
  0
LINE
  8
0
 10
-124.715
 20
146.024
 11
-124.539
 21
145.158
  0
LINE
  8
0
 10
-124.539
 20
145.158
 11
-124.481
 21
144.212
  0
LINE
  8
0
 10
-124.481
 20
144.212
 11
-124.56
 21
143.094
  0
LINE
  8
0
 10
-124.56
 20
143.094
 11
-124.797
 21
142.089
  0
LINE
  8
0
 10
-124.797
 20
142.089
 11
-125.193
 21
141.198
  0
LINE
  8
0
 10
-125.193
 20
141.198
 11
-125.747
 21
140.421
  0
LINE
  8
0
 10
-125.747
 20
140.421
 11
-126.459
 21
139.757
  0
LINE
  8
0
 10
-126.459
 20
139.757
 11
-127.324
 21
139.211
  0
LINE
  8
0
 10
-127.324
 20
139.211
 11
-128.336
 21
138.787
  0
LINE
  8
0
 10
-128.336
 20
138.787
 11
-129.496
 21
138.484
  0
LINE
  8
0
 10
-129.496
 20
138.484
 11
-130.803
 21
138.302
  0
LINE
  8
0
 10
-130.803
 20
138.302
 11
-132.258
 21
138.241
  0
LINE
  8
0
 10
-132.258
 20
138.241
 11
-132.842
 21
138.254
  0
LINE
  8
0
 10
-33.8416
 20
138.254
 11
-34.4401
 21
138.293
  0
LINE
  8
0
 10
-34.4401
 20
138.293
 11
-35.0533
 21
138.358
  0
LINE
  8
0
 10
-35.0533
 20
138.358
 11
-35.6812
 21
138.448
  0
LINE
  8
0
 10
-35.6812
 20
138.448
 11
-36.3239
 21
138.565
  0
LINE
  8
0
 10
-36.3239
 20
138.565
 11
-36.9785
 21
138.707
  0
LINE
  8
0
 10
-36.9785
 20
138.707
 11
-37.6423
 21
138.873
  0
LINE
  8
0
 10
-37.6423
 20
138.873
 11
-38.3153
 21
139.064
  0
LINE
  8
0
 10
-38.3153
 20
139.064
 11
-38.9975
 21
139.28
  0
LINE
  8
0
 10
-38.9975
 20
139.28
 11
-39.6889
 21
139.521
  0
LINE
  8
0
 10
-39.6889
 20
139.521
 11
-39.6889
 21
142.337
  0
LINE
  8
0
 10
-39.6889
 20
142.337
 11
-39.0232
 21
141.987
  0
LINE
  8
0
 10
-39.0232
 20
141.987
 11
-38.3631
 21
141.673
  0
LINE
  8
0
 10
-38.3631
 20
141.673
 11
-37.7085
 21
141.395
  0
LINE
  8
0
 10
-37.7085
 20
141.395
 11
-37.0594
 21
141.153
  0
LINE
  8
0
 10
-37.0594
 20
141.153
 11
-36.4159
 21
140.948
  0
LINE
  8
0
 10
-36.4159
 20
140.948
 11
-35.7768
 21
140.78
  0
LINE
  8
0
 10
-35.7768
 20
140.78
 11
-35.1421
 21
140.649
  0
LINE
  8
0
 10
-35.1421
 20
140.649
 11
-34.5117
 21
140.556
  0
LINE
  8
0
 10
-34.5117
 20
140.556
 11
-33.8856
 21
140.5
  0
LINE
  8
0
 10
-33.8856
 20
140.5
 11
-33.2639
 21
140.481
  0
LINE
  8
0
 10
-33.2639
 20
140.481
 11
-32.3672
 21
140.518
  0
LINE
  8
0
 10
-32.3672
 20
140.518
 11
-31.5562
 21
140.628
  0
LINE
  8
0
 10
-31.5562
 20
140.628
 11
-30.831
 21
140.811
  0
LINE
  8
0
 10
-30.831
 20
140.811
 11
-30.1916
 21
141.069
  0
LINE
  8
0
 10
-30.1916
 20
141.069
 11
-29.6379
 21
141.399
  0
LINE
  8
0
 10
-29.6379
 20
141.399
 11
-29.1782
 21
141.797
  0
LINE
  8
0
 10
-29.1782
 20
141.797
 11
-28.8206
 21
142.259
  0
LINE
  8
0
 10
-28.8206
 20
142.259
 11
-28.5652
 21
142.782
  0
LINE
  8
0
 10
-28.5652
 20
142.782
 11
-28.412
 21
143.368
  0
LINE
  8
0
 10
-28.412
 20
143.368
 11
-28.3609
 21
144.017
  0
LINE
  8
0
 10
-28.3609
 20
144.017
 11
-28.3975
 21
144.585
  0
LINE
  8
0
 10
-28.3975
 20
144.585
 11
-28.5075
 21
145.101
  0
LINE
  8
0
 10
-28.5075
 20
145.101
 11
-28.6907
 21
145.566
  0
LINE
  8
0
 10
-28.6907
 20
145.566
 11
-28.9471
 21
145.978
  0
LINE
  8
0
 10
-28.9471
 20
145.978
 11
-29.2769
 21
146.339
  0
LINE
  8
0
 10
-29.2769
 20
146.339
 11
-29.6898
 21
146.657
  0
LINE
  8
0
 10
-29.6898
 20
146.657
 11
-30.1967
 21
146.942
  0
LINE
  8
0
 10
-30.1967
 20
146.942
 11
-30.7975
 21
147.193
  0
LINE
  8
0
 10
-30.7975
 20
147.193
 11
-31.4922
 21
147.41
  0
LINE
  8
0
 10
-31.4922
 20
147.41
 11
-32.2809
 21
147.594
  0
LINE
  8
0
 10
-32.2809
 20
147.594
 11
-33.9489
 21
147.92
  0
LINE
  8
0
 10
-33.9489
 20
147.92
 11
-35.1071
 21
148.192
  0
LINE
  8
0
 10
-35.1071
 20
148.192
 11
-36.1297
 21
148.519
  0
LINE
  8
0
 10
-36.1297
 20
148.519
 11
-37.0167
 21
148.901
  0
LINE
  8
0
 10
-37.0167
 20
148.901
 11
-37.7681
 21
149.339
  0
LINE
  8
0
 10
-37.7681
 20
149.339
 11
-38.3839
 21
149.832
  0
LINE
  8
0
 10
-38.3839
 20
149.832
 11
-38.8767
 21
150.394
  0
LINE
  8
0
 10
-38.8767
 20
150.394
 11
-39.26
 21
151.037
  0
LINE
  8
0
 10
-39.26
 20
151.037
 11
-39.5338
 21
151.761
  0
LINE
  8
0
 10
-39.5338
 20
151.761
 11
-39.6981
 21
152.567
  0
LINE
  8
0
 10
-39.6981
 20
152.567
 11
-39.7529
 21
153.454
  0
LINE
  8
0
 10
-39.7529
 20
153.454
 11
-39.6771
 21
154.483
  0
LINE
  8
0
 10
-39.6771
 20
154.483
 11
-39.4497
 21
155.42
  0
LINE
  8
0
 10
-39.4497
 20
155.42
 11
-39.0707
 21
156.267
  0
LINE
  8
0
 10
-39.0707
 20
156.267
 11
-38.5401
 21
157.022
  0
LINE
  8
0
 10
-38.5401
 20
157.022
 11
-37.8579
 21
157.686
  0
LINE
  8
0
 10
-37.8579
 20
157.686
 11
-37.0425
 21
158.243
  0
LINE
  8
0
 10
-37.0425
 20
158.243
 11
-36.1124
 21
158.676
  0
LINE
  8
0
 10
-36.1124
 20
158.676
 11
-35.0676
 21
158.985
  0
LINE
  8
0
 10
-35.0676
 20
158.985
 11
-33.9081
 21
159.171
  0
LINE
  8
0
 10
-33.9081
 20
159.171
 11
-32.6339
 21
159.233
  0
LINE
  8
0
 10
-32.6339
 20
159.233
 11
-32.0613
 21
159.223
  0
LINE
  8
0
 10
-32.0613
 20
159.223
 11
-31.4843
 21
159.192
  0
LINE
  8
0
 10
-31.4843
 20
159.192
 11
-30.9029
 21
159.141
  0
LINE
  8
0
 10
-30.9029
 20
159.141
 11
-30.3171
 21
159.069
  0
LINE
  8
0
 10
-30.3171
 20
159.069
 11
-29.7269
 21
158.977
  0
LINE
  8
0
 10
-29.7269
 20
158.977
 11
-29.1318
 21
158.864
  0
LINE
  8
0
 10
-29.1318
 20
158.864
 11
-28.5312
 21
158.731
  0
LINE
  8
0
 10
-28.5312
 20
158.731
 11
-27.9252
 21
158.578
  0
LINE
  8
0
 10
-27.9252
 20
158.578
 11
-27.3138
 21
158.404
  0
LINE
  8
0
 10
-27.3138
 20
158.404
 11
-26.6969
 21
158.209
  0
LINE
  8
0
 10
-26.6969
 20
158.209
 11
-26.6969
 21
155.521
  0
LINE
  8
0
 10
-26.6969
 20
155.521
 11
-27.315
 21
155.803
  0
LINE
  8
0
 10
-27.315
 20
155.803
 11
-27.9191
 21
156.055
  0
LINE
  8
0
 10
-27.9191
 20
156.055
 11
-28.5091
 21
156.276
  0
LINE
  8
0
 10
-28.5091
 20
156.276
 11
-29.0851
 21
156.467
  0
LINE
  8
0
 10
-29.0851
 20
156.467
 11
-29.6469
 21
156.628
  0
LINE
  8
0
 10
-29.6469
 20
156.628
 11
-30.1975
 21
156.759
  0
LINE
  8
0
 10
-30.1975
 20
156.759
 11
-30.7407
 21
156.862
  0
LINE
  8
0
 10
-30.7407
 20
156.862
 11
-31.2763
 21
156.935
  0
LINE
  8
0
 10
-31.2763
 20
156.935
 11
-31.8043
 21
156.978
  0
LINE
  8
0
 10
-31.8043
 20
156.978
 11
-32.3249
 21
156.993
  0
LINE
  8
0
 10
-32.3249
 20
156.993
 11
-33.181
 21
156.958
  0
LINE
  8
0
 10
-33.181
 20
156.958
 11
-33.9551
 21
156.854
  0
LINE
  8
0
 10
-33.9551
 20
156.854
 11
-34.6471
 21
156.681
  0
LINE
  8
0
 10
-34.6471
 20
156.681
 11
-35.257
 21
156.438
  0
LINE
  8
0
 10
-35.257
 20
156.438
 11
-35.7849
 21
156.126
  0
LINE
  8
0
 10
-35.7849
 20
156.126
 11
-36.2226
 21
155.75
  0
LINE
  8
0
 10
-36.2226
 20
155.75
 11
-36.5631
 21
155.316
  0
LINE
  8
0
 10
-36.5631
 20
155.316
 11
-36.8063
 21
154.823
  0
LINE
  8
0
 10
-36.8063
 20
154.823
 11
-36.9522
 21
154.272
  0
LINE
  8
0
 10
-36.9522
 20
154.272
 11
-37.0009
 21
153.662
  0
LINE
  8
0
 10
-37.0009
 20
153.662
 11
-36.9686
 21
153.152
  0
LINE
  8
0
 10
-36.9686
 20
153.152
 11
-36.8718
 21
152.695
  0
LINE
  8
0
 10
-36.8718
 20
152.695
 11
-36.7104
 21
152.29
  0
LINE
  8
0
 10
-36.7104
 20
152.29
 11
-36.4844
 21
151.938
  0
LINE
  8
0
 10
-36.4844
 20
151.938
 11
-36.1939
 21
151.638
  0
LINE
  8
0
 10
-36.1939
 20
151.638
 11
-35.8133
 21
151.375
  0
LINE
  8
0
 10
-35.8133
 20
151.375
 11
-35.3171
 21
151.134
  0
LINE
  8
0
 10
-35.3171
 20
151.134
 11
-34.7053
 21
150.913
  0
LINE
  8
0
 10
-34.7053
 20
150.913
 11
-33.9779
 21
150.714
  0
LINE
  8
0
 10
-33.9779
 20
150.714
 11
-33.1349
 21
150.535
  0
LINE
  8
0
 10
-33.1349
 20
150.535
 11
-31.4809
 21
150.196
  0
LINE
  8
0
 10
-31.4809
 20
150.196
 11
-30.3154
 21
149.928
  0
LINE
  8
0
 10
-30.3154
 20
149.928
 11
-29.279
 21
149.588
  0
LINE
  8
0
 10
-29.279
 20
149.588
 11
-28.3716
 21
149.178
  0
LINE
  8
0
 10
-28.3716
 20
149.178
 11
-27.5932
 21
148.697
  0
LINE
  8
0
 10
-27.5932
 20
148.697
 11
-26.9439
 21
148.145
  0
LINE
  8
0
 10
-26.9439
 20
148.145
 11
-26.4172
 21
147.518
  0
LINE
  8
0
 10
-26.4172
 20
147.518
 11
-26.0076
 21
146.811
  0
LINE
  8
0
 10
-26.0076
 20
146.811
 11
-25.715
 21
146.024
  0
LINE
  8
0
 10
-25.715
 20
146.024
 11
-25.5394
 21
145.158
  0
LINE
  8
0
 10
-25.5394
 20
145.158
 11
-25.4809
 21
144.212
  0
LINE
  8
0
 10
-25.4809
 20
144.212
 11
-25.56
 21
143.094
  0
LINE
  8
0
 10
-25.56
 20
143.094
 11
-25.7974
 21
142.089
  0
LINE
  8
0
 10
-25.7974
 20
142.089
 11
-26.193
 21
141.198
  0
LINE
  8
0
 10
-26.193
 20
141.198
 11
-26.7468
 21
140.421
  0
LINE
  8
0
 10
-26.7468
 20
140.421
 11
-27.4589
 21
139.757
  0
LINE
  8
0
 10
-27.4589
 20
139.757
 11
-28.3238
 21
139.211
  0
LINE
  8
0
 10
-28.3238
 20
139.211
 11
-29.3362
 21
138.787
  0
LINE
  8
0
 10
-29.3362
 20
138.787
 11
-30.496
 21
138.484
  0
LINE
  8
0
 10
-30.496
 20
138.484
 11
-31.8032
 21
138.302
  0
LINE
  8
0
 10
-31.8032
 20
138.302
 11
-33.2579
 21
138.241
  0
LINE
  8
0
 10
-33.2579
 20
138.241
 11
-33.8416
 21
138.254
  0
LINE
  8
0
 10
-170.817
 20
138.625
 11
-170.817
 21
158.849
  0
LINE
  8
0
 10
-170.817
 20
158.849
 11
-158.017
 21
158.849
  0
LINE
  8
0
 10
-158.017
 20
158.849
 11
-158.017
 21
156.545
  0
LINE
  8
0
 10
-158.017
 20
156.545
 11
-168.065
 21
156.545
  0
LINE
  8
0
 10
-168.065
 20
156.545
 11
-168.065
 21
150.593
  0
LINE
  8
0
 10
-168.065
 20
150.593
 11
-158.401
 21
150.593
  0
LINE
  8
0
 10
-158.401
 20
150.593
 11
-158.401
 21
148.289
  0
LINE
  8
0
 10
-158.401
 20
148.289
 11
-168.065
 21
148.289
  0
LINE
  8
0
 10
-168.065
 20
148.289
 11
-168.065
 21
140.929
  0
LINE
  8
0
 10
-168.065
 20
140.929
 11
-157.761
 21
140.929
  0
LINE
  8
0
 10
-157.761
 20
140.929
 11
-157.761
 21
138.625
  0
LINE
  8
0
 10
-157.761
 20
138.625
 11
-170.817
 21
138.625
  0
LINE
  8
0
 10
159.951
 20
138.625
 11
159.951
 21
158.849
  0
LINE
  8
0
 10
159.951
 20
158.849
 11
171.599
 21
158.849
  0
LINE
  8
0
 10
171.599
 20
158.849
 11
171.599
 21
156.545
  0
LINE
  8
0
 10
171.599
 20
156.545
 11
162.703
 21
156.545
  0
LINE
  8
0
 10
162.703
 20
156.545
 11
162.703
 21
150.593
  0
LINE
  8
0
 10
162.703
 20
150.593
 11
170.703
 21
150.593
  0
LINE
  8
0
 10
170.703
 20
150.593
 11
170.703
 21
148.289
  0
LINE
  8
0
 10
170.703
 20
148.289
 11
162.703
 21
148.289
  0
LINE
  8
0
 10
162.703
 20
148.289
 11
162.703
 21
138.625
  0
LINE
  8
0
 10
162.703
 20
138.625
 11
159.951
 21
138.625
  0
LINE
  8
0
 10
124.607
 20
138.625
 11
124.607
 21
158.849
  0
LINE
  8
0
 10
124.607
 20
158.849
 11
128.316
 21
158.849
  0
LINE
  8
0
 10
128.316
 20
158.849
 11
137.214
 21
141.93
  0
LINE
  8
0
 10
137.214
 20
141.93
 11
137.214
 21
158.849
  0
LINE
  8
0
 10
137.214
 20
158.849
 11
139.902
 21
158.849
  0
LINE
  8
0
 10
139.902
 20
158.849
 11
139.902
 21
138.625
  0
LINE
  8
0
 10
139.902
 20
138.625
 11
136.192
 21
138.625
  0
LINE
  8
0
 10
136.192
 20
138.625
 11
127.294
 21
155.544
  0
LINE
  8
0
 10
127.294
 20
155.544
 11
127.294
 21
138.625
  0
LINE
  8
0
 10
127.294
 20
138.625
 11
124.607
 21
138.625
  0
LINE
  8
0
 10
-1.18066
 20
138.625
 11
-1.18066
 21
156.545
  0
LINE
  8
0
 10
-1.18066
 20
156.545
 11
-8.34866
 21
156.545
  0
LINE
  8
0
 10
-8.34866
 20
156.545
 11
-8.34866
 21
158.849
  0
LINE
  8
0
 10
-8.34866
 20
158.849
 11
8.73932
 21
158.849
  0
LINE
  8
0
 10
8.73932
 20
158.849
 11
8.73932
 21
156.545
  0
LINE
  8
0
 10
8.73932
 20
156.545
 11
1.57132
 21
156.545
  0
LINE
  8
0
 10
1.57132
 20
156.545
 11
1.57132
 21
138.625
  0
LINE
  8
0
 10
1.57132
 20
138.625
 11
-1.18066
 21
138.625
  0
LINE
  8
0
 10
60.9507
 20
138.625
 11
60.9507
 21
158.849
  0
LINE
  8
0
 10
60.9507
 20
158.849
 11
72.5987
 21
158.849
  0
LINE
  8
0
 10
72.5987
 20
158.849
 11
72.5987
 21
156.545
  0
LINE
  8
0
 10
72.5987
 20
156.545
 11
63.7027
 21
156.545
  0
LINE
  8
0
 10
63.7027
 20
156.545
 11
63.7027
 21
150.593
  0
LINE
  8
0
 10
63.7027
 20
150.593
 11
71.7027
 21
150.593
  0
LINE
  8
0
 10
71.7027
 20
150.593
 11
71.7027
 21
148.289
  0
LINE
  8
0
 10
71.7027
 20
148.289
 11
63.7027
 21
148.289
  0
LINE
  8
0
 10
63.7027
 20
148.289
 11
63.7027
 21
138.625
  0
LINE
  8
0
 10
63.7027
 20
138.625
 11
60.9507
 21
138.625
  0
LINE
  8
0
 10
23.9142
 20
138.625
 11
31.6472
 21
158.849
  0
LINE
  8
0
 10
31.6472
 20
158.849
 11
34.7542
 21
158.849
  0
LINE
  8
0
 10
34.7542
 20
158.849
 11
42.4742
 21
138.625
  0
LINE
  8
0
 10
42.4742
 20
138.625
 11
39.6252
 21
138.625
  0
LINE
  8
0
 10
39.6252
 20
138.625
 11
37.7802
 21
143.809
  0
LINE
  8
0
 10
37.7802
 20
143.809
 11
28.6492
 21
143.809
  0
LINE
  8
0
 10
28.6492
 20
143.809
 11
26.8042
 21
138.625
  0
LINE
  8
0
 10
26.8042
 20
138.625
 11
23.9142
 21
138.625
  0
LINE
  8
0
 10
33.1942
 20
156.158
 11
29.4772
 21
146.113
  0
LINE
  8
0
 10
29.4772
 20
146.113
 11
36.9252
 21
146.113
  0
LINE
  8
0
 10
36.9252
 20
146.113
 11
33.1942
 21
156.158
  0
LINE
  8
0
 10
-105.142
 20
138.625
 11
-105.142
 21
158.849
  0
LINE
  8
0
 10
-105.142
 20
158.849
 11
-102.39
 21
158.849
  0
LINE
  8
0
 10
-102.39
 20
158.849
 11
-102.39
 21
150.302
  0
LINE
  8
0
 10
-102.39
 20
150.302
 11
-93.3066
 21
158.849
  0
LINE
  8
0
 10
-93.3066
 20
158.849
 11
-89.7816
 21
158.849
  0
LINE
  8
0
 10
-89.7816
 20
158.849
 11
-99.8275
 21
149.421
  0
LINE
  8
0
 10
-99.8275
 20
149.421
 11
-89.0776
 21
138.625
  0
LINE
  8
0
 10
-89.0776
 20
138.625
 11
-92.6796
 21
138.625
  0
LINE
  8
0
 10
-92.6796
 20
138.625
 11
-102.39
 21
148.364
  0
LINE
  8
0
 10
-102.39
 20
148.364
 11
-102.39
 21
138.625
  0
LINE
  8
0
 10
-102.39
 20
138.625
 11
-105.142
 21
138.625
  0
LINE
  8
0
 10
-67.248
 20
138.625
 11
-67.248
 21
158.849
  0
LINE
  8
0
 10
-67.248
 20
158.849
 11
-64.496
 21
158.849
  0
LINE
  8
0
 10
-64.496
 20
158.849
 11
-64.496
 21
138.625
  0
LINE
  8
0
 10
-64.496
 20
138.625
 11
-67.248
 21
138.625
  0
LINE
  8
0
 10
97.7973
 20
136.009
 11
96.4886
 21
136.252
  0
LINE
  8
0
 10
96.4886
 20
136.252
 11
95.33
 21
136.656
  0
LINE
  8
0
 10
95.33
 20
136.656
 11
94.3215
 21
137.222
  0
LINE
  8
0
 10
94.3215
 20
137.222
 11
93.4633
 21
137.95
  0
LINE
  8
0
 10
93.4633
 20
137.95
 11
92.7584
 21
138.835
  0
LINE
  8
0
 10
92.7584
 20
138.835
 11
92.2101
 21
139.877
  0
LINE
  8
0
 10
92.2101
 20
139.877
 11
91.8185
 21
141.073
  0
LINE
  8
0
 10
91.8185
 20
141.073
 11
91.5836
 21
142.424
  0
LINE
  8
0
 10
91.5836
 20
142.424
 11
91.5052
 21
143.931
  0
LINE
  8
0
 10
91.5052
 20
143.931
 11
91.5052
 21
156.536
  0
LINE
  8
0
 10
91.5052
 20
156.536
 11
94.2572
 21
156.536
  0
LINE
  8
0
 10
94.2572
 20
156.536
 11
94.2572
 21
144.269
  0
LINE
  8
0
 10
94.2572
 20
144.269
 11
94.3044
 21
143.043
  0
LINE
  8
0
 10
94.3044
 20
143.043
 11
94.4457
 21
141.963
  0
LINE
  8
0
 10
94.4457
 20
141.963
 11
94.6813
 21
141.028
  0
LINE
  8
0
 10
94.6813
 20
141.028
 11
95.0112
 21
140.239
  0
LINE
  8
0
 10
95.0112
 20
140.239
 11
95.4353
 21
139.596
  0
LINE
  8
0
 10
95.4353
 20
139.596
 11
95.9654
 21
139.082
  0
LINE
  8
0
 10
95.9654
 20
139.082
 11
96.6125
 21
138.682
  0
LINE
  8
0
 10
96.6125
 20
138.682
 11
97.3767
 21
138.397
  0
LINE
  8
0
 10
97.3767
 20
138.397
 11
98.258
 21
138.226
  0
LINE
  8
0
 10
98.258
 20
138.226
 11
99.2562
 21
138.169
  0
LINE
  8
0
 10
99.2562
 20
138.169
 11
100.249
 21
138.226
  0
LINE
  8
0
 10
100.249
 20
138.226
 11
101.127
 21
138.397
  0
LINE
  8
0
 10
101.127
 20
138.397
 11
101.888
 21
138.682
  0
LINE
  8
0
 10
101.888
 20
138.682
 11
102.533
 21
139.082
  0
LINE
  8
0
 10
102.533
 20
139.082
 11
103.062
 21
139.596
  0
LINE
  8
0
 10
103.062
 20
139.596
 11
103.487
 21
140.239
  0
LINE
  8
0
 10
103.487
 20
140.239
 11
103.817
 21
141.028
  0
LINE
  8
0
 10
103.817
 20
141.028
 11
104.053
 21
141.963
  0
LINE
  8
0
 10
104.053
 20
141.963
 11
104.194
 21
143.043
  0
LINE
  8
0
 10
104.194
 20
143.043
 11
104.241
 21
144.269
  0
LINE
  8
0
 10
104.241
 20
144.269
 11
104.241
 21
156.536
  0
LINE
  8
0
 10
104.241
 20
156.536
 11
106.993
 21
156.536
  0
LINE
  8
0
 10
106.993
 20
156.536
 11
106.993
 21
143.931
  0
LINE
  8
0
 10
106.993
 20
143.931
 11
106.915
 21
142.424
  0
LINE
  8
0
 10
106.915
 20
142.424
 11
106.68
 21
141.073
  0
LINE
  8
0
 10
106.68
 20
141.073
 11
106.288
 21
139.877
  0
LINE
  8
0
 10
106.288
 20
139.877
 11
105.74
 21
138.835
  0
LINE
  8
0
 10
105.74
 20
138.835
 11
105.035
 21
137.95
  0
LINE
  8
0
 10
105.035
 20
137.95
 11
104.178
 21
137.222
  0
LINE
  8
0
 10
104.178
 20
137.222
 11
103.171
 21
136.656
  0
LINE
  8
0
 10
103.171
 20
136.656
 11
102.015
 21
136.252
  0
LINE
  8
0
 10
102.015
 20
136.252
 11
100.71
 21
136.009
  0
LINE
  8
0
 10
100.71
 20
136.009
 11
99.2562
 21
135.929
  0
LINE
  8
0
 10
99.2562
 20
135.929
 11
97.7973
 21
136.009
  0
LINE
  8
0
 10
164.304
 20
105.352
 11
162.656
 21
105.684
  0
LINE
  8
0
 10
162.656
 20
105.684
 11
161.172
 21
106.239
  0
LINE
  8
0
 10
161.172
 20
106.239
 11
159.854
 21
107.014
  0
LINE
  8
0
 10
159.854
 20
107.014
 11
158.701
 21
108.012
  0
LINE
  8
0
 10
158.701
 20
108.012
 11
157.738
 21
109.208
  0
LINE
  8
0
 10
157.738
 20
109.208
 11
156.989
 21
110.577
  0
LINE
  8
0
 10
156.989
 20
110.577
 11
156.454
 21
112.121
  0
LINE
  8
0
 10
156.454
 20
112.121
 11
156.133
 21
113.839
  0
LINE
  8
0
 10
156.133
 20
113.839
 11
156.026
 21
115.73
  0
LINE
  8
0
 10
156.026
 20
115.73
 11
156.133
 21
117.626
  0
LINE
  8
0
 10
156.133
 20
117.626
 11
156.455
 21
119.348
  0
LINE
  8
0
 10
156.455
 20
119.348
 11
156.99
 21
120.894
  0
LINE
  8
0
 10
156.99
 20
120.894
 11
157.74
 21
122.265
  0
LINE
  8
0
 10
157.74
 20
122.265
 11
158.704
 21
123.461
  0
LINE
  8
0
 10
158.704
 20
123.461
 11
159.858
 21
124.459
  0
LINE
  8
0
 10
159.858
 20
124.459
 11
161.177
 21
125.235
  0
LINE
  8
0
 10
161.177
 20
125.235
 11
162.662
 21
125.789
  0
LINE
  8
0
 10
162.662
 20
125.789
 11
164.312
 21
126.122
  0
LINE
  8
0
 10
164.312
 20
126.122
 11
166.127
 21
126.233
  0
LINE
  8
0
 10
166.127
 20
126.233
 11
166.911
 21
126.214
  0
LINE
  8
0
 10
166.911
 20
126.214
 11
167.68
 21
126.155
  0
LINE
  8
0
 10
167.68
 20
126.155
 11
168.432
 21
126.058
  0
LINE
  8
0
 10
168.432
 20
126.058
 11
169.169
 21
125.921
  0
LINE
  8
0
 10
169.169
 20
125.921
 11
169.89
 21
125.746
  0
LINE
  8
0
 10
169.89
 20
125.746
 11
170.592
 21
125.533
  0
LINE
  8
0
 10
170.592
 20
125.533
 11
171.272
 21
125.283
  0
LINE
  8
0
 10
171.272
 20
125.283
 11
171.93
 21
124.996
  0
LINE
  8
0
 10
171.93
 20
124.996
 11
172.565
 21
124.673
  0
LINE
  8
0
 10
172.565
 20
124.673
 11
173.178
 21
124.313
  0
LINE
  8
0
 10
173.178
 20
124.313
 11
173.178
 21
121.369
  0
LINE
  8
0
 10
173.178
 20
121.369
 11
172.563
 21
121.865
  0
LINE
  8
0
 10
172.563
 20
121.865
 11
171.932
 21
122.31
  0
LINE
  8
0
 10
171.932
 20
122.31
 11
171.287
 21
122.702
  0
LINE
  8
0
 10
171.287
 20
122.702
 11
170.626
 21
123.044
  0
LINE
  8
0
 10
170.626
 20
123.044
 11
169.949
 21
123.333
  0
LINE
  8
0
 10
169.949
 20
123.333
 11
169.259
 21
123.571
  0
LINE
  8
0
 10
169.259
 20
123.571
 11
168.554
 21
123.755
  0
LINE
  8
0
 10
168.554
 20
123.755
 11
167.835
 21
123.887
  0
LINE
  8
0
 10
167.835
 20
123.887
 11
167.102
 21
123.967
  0
LINE
  8
0
 10
167.102
 20
123.967
 11
166.354
 21
123.993
  0
LINE
  8
0
 10
166.354
 20
123.993
 11
164.941
 21
123.91
  0
LINE
  8
0
 10
164.941
 20
123.91
 11
163.677
 21
123.661
  0
LINE
  8
0
 10
163.677
 20
123.661
 11
162.56
 21
123.246
  0
LINE
  8
0
 10
162.56
 20
123.246
 11
161.592
 21
122.664
  0
LINE
  8
0
 10
161.592
 20
122.664
 11
160.771
 21
121.917
  0
LINE
  8
0
 10
160.771
 20
121.917
 11
160.1
 21
121.005
  0
LINE
  8
0
 10
160.1
 20
121.005
 11
159.578
 21
119.931
  0
LINE
  8
0
 10
159.578
 20
119.931
 11
159.205
 21
118.693
  0
LINE
  8
0
 10
159.205
 20
118.693
 11
158.981
 21
117.293
  0
LINE
  8
0
 10
158.981
 20
117.293
 11
158.906
 21
115.73
  0
LINE
  8
0
 10
158.906
 20
115.73
 11
158.981
 21
114.172
  0
LINE
  8
0
 10
158.981
 20
114.172
 11
159.205
 21
112.776
  0
LINE
  8
0
 10
159.205
 20
112.776
 11
159.578
 21
111.541
  0
LINE
  8
0
 10
159.578
 20
111.541
 11
160.1
 21
110.468
  0
LINE
  8
0
 10
160.1
 20
110.468
 11
160.772
 21
109.557
  0
LINE
  8
0
 10
160.772
 20
109.557
 11
161.593
 21
108.81
  0
LINE
  8
0
 10
161.593
 20
108.81
 11
162.562
 21
108.228
  0
LINE
  8
0
 10
162.562
 20
108.228
 11
163.68
 21
107.813
  0
LINE
  8
0
 10
163.68
 20
107.813
 11
164.945
 21
107.564
  0
LINE
  8
0
 10
164.945
 20
107.564
 11
166.359
 21
107.481
  0
LINE
  8
0
 10
166.359
 20
107.481
 11
166.928
 21
107.491
  0
LINE
  8
0
 10
166.928
 20
107.491
 11
167.472
 21
107.521
  0
LINE
  8
0
 10
167.472
 20
107.521
 11
167.99
 21
107.571
  0
LINE
  8
0
 10
167.99
 20
107.571
 11
168.484
 21
107.641
  0
LINE
  8
0
 10
168.484
 20
107.641
 11
168.952
 21
107.731
  0
LINE
  8
0
 10
168.952
 20
107.731
 11
169.399
 21
107.843
  0
LINE
  8
0
 10
169.399
 20
107.843
 11
169.827
 21
107.976
  0
LINE
  8
0
 10
169.827
 20
107.976
 11
170.237
 21
108.132
  0
LINE
  8
0
 10
170.237
 20
108.132
 11
170.629
 21
108.311
  0
LINE
  8
0
 10
170.629
 20
108.311
 11
171.002
 21
108.511
  0
LINE
  8
0
 10
171.002
 20
108.511
 11
171.002
 21
113.945
  0
LINE
  8
0
 10
171.002
 20
113.945
 11
166.522
 21
113.945
  0
LINE
  8
0
 10
166.522
 20
113.945
 11
166.522
 21
116.185
  0
LINE
  8
0
 10
166.522
 20
116.185
 11
173.69
 21
116.185
  0
LINE
  8
0
 10
173.69
 20
116.185
 11
173.69
 21
107.508
  0
LINE
  8
0
 10
173.69
 20
107.508
 11
173.043
 21
107.082
  0
LINE
  8
0
 10
173.043
 20
107.082
 11
172.37
 21
106.699
  0
LINE
  8
0
 10
172.37
 20
106.699
 11
171.671
 21
106.361
  0
LINE
  8
0
 10
171.671
 20
106.361
 11
170.946
 21
106.065
  0
LINE
  8
0
 10
170.946
 20
106.065
 11
170.195
 21
105.814
  0
LINE
  8
0
 10
170.195
 20
105.814
 11
169.421
 21
105.608
  0
LINE
  8
0
 10
169.421
 20
105.608
 11
168.626
 21
105.447
  0
LINE
  8
0
 10
168.626
 20
105.447
 11
167.811
 21
105.333
  0
LINE
  8
0
 10
167.811
 20
105.333
 11
166.975
 21
105.264
  0
LINE
  8
0
 10
166.975
 20
105.264
 11
166.118
 21
105.241
  0
LINE
  8
0
 10
166.118
 20
105.241
 11
164.304
 21
105.352
  0
LINE
  8
0
 10
-73.3935
 20
105.625
 11
-73.3935
 21
125.849
  0
LINE
  8
0
 10
-73.3935
 20
125.849
 11
-69.6835
 21
125.849
  0
LINE
  8
0
 10
-69.6835
 20
125.849
 11
-60.7855
 21
108.93
  0
LINE
  8
0
 10
-60.7855
 20
108.93
 11
-60.7855
 21
125.849
  0
LINE
  8
0
 10
-60.7855
 20
125.849
 11
-58.0975
 21
125.849
  0
LINE
  8
0
 10
-58.0975
 20
125.849
 11
-58.0975
 21
105.625
  0
LINE
  8
0
 10
-58.0975
 20
105.625
 11
-61.8075
 21
105.625
  0
LINE
  8
0
 10
-61.8075
 20
105.625
 11
-70.7055
 21
122.544
  0
LINE
  8
0
 10
-70.7055
 20
122.544
 11
-70.7055
 21
105.625
  0
LINE
  8
0
 10
-70.7055
 20
105.625
 11
-73.3935
 21
105.625
  0
LINE
  8
0
 10
-41.011
 20
105.625
 11
-41.011
 21
107.711
  0
LINE
  8
0
 10
-41.011
 20
107.711
 11
-28.229
 21
123.545
  0
LINE
  8
0
 10
-28.229
 20
123.545
 11
-40.691
 21
123.545
  0
LINE
  8
0
 10
-40.691
 20
123.545
 11
-40.691
 21
125.849
  0
LINE
  8
0
 10
-40.691
 20
125.849
 11
-24.819
 21
125.849
  0
LINE
  8
0
 10
-24.819
 20
125.849
 11
-24.819
 21
123.763
  0
LINE
  8
0
 10
-24.819
 20
123.763
 11
-37.592
 21
107.929
  0
LINE
  8
0
 10
-37.592
 20
107.929
 11
-24.499
 21
107.929
  0
LINE
  8
0
 10
-24.499
 20
107.929
 11
-24.499
 21
105.625
  0
LINE
  8
0
 10
-24.499
 20
105.625
 11
-41.011
 21
105.625
  0
LINE
  8
0
 10
-173.011
 20
105.625
 11
-173.011
 21
107.711
  0
LINE
  8
0
 10
-173.011
 20
107.711
 11
-160.229
 21
123.545
  0
LINE
  8
0
 10
-160.229
 20
123.545
 11
-172.691
 21
123.545
  0
LINE
  8
0
 10
-172.691
 20
123.545
 11
-172.691
 21
125.849
  0
LINE
  8
0
 10
-172.691
 20
125.849
 11
-156.819
 21
125.849
  0
LINE
  8
0
 10
-156.819
 20
125.849
 11
-156.819
 21
123.763
  0
LINE
  8
0
 10
-156.819
 20
123.763
 11
-169.592
 21
107.929
  0
LINE
  8
0
 10
-169.592
 20
107.929
 11
-156.499
 21
107.929
  0
LINE
  8
0
 10
-156.499
 20
107.929
 11
-156.499
 21
105.625
  0
LINE
  8
0
 10
-156.499
 20
105.625
 11
-173.011
 21
105.625
  0
LINE
  8
0
 10
23.9142
 20
105.625
 11
31.6472
 21
125.849
  0
LINE
  8
0
 10
31.6472
 20
125.849
 11
34.7542
 21
125.849
  0
LINE
  8
0
 10
34.7542
 20
125.849
 11
42.4742
 21
105.625
  0
LINE
  8
0
 10
42.4742
 20
105.625
 11
39.6252
 21
105.625
  0
LINE
  8
0
 10
39.6252
 20
105.625
 11
37.7802
 21
110.809
  0
LINE
  8
0
 10
37.7802
 20
110.809
 11
28.6492
 21
110.809
  0
LINE
  8
0
 10
28.6492
 20
110.809
 11
26.8042
 21
105.625
  0
LINE
  8
0
 10
26.8042
 20
105.625
 11
23.9142
 21
105.625
  0
LINE
  8
0
 10
33.1942
 20
123.158
 11
29.4772
 21
113.113
  0
LINE
  8
0
 10
29.4772
 20
113.113
 11
36.9252
 21
113.113
  0
LINE
  8
0
 10
36.9252
 20
113.113
 11
33.1942
 21
123.158
  0
LINE
  8
0
 10
90.989
 20
105.625
 11
90.989
 21
107.711
  0
LINE
  8
0
 10
90.989
 20
107.711
 11
103.771
 21
123.545
  0
LINE
  8
0
 10
103.771
 20
123.545
 11
91.309
 21
123.545
  0
LINE
  8
0
 10
91.309
 20
123.545
 11
91.309
 21
125.849
  0
LINE
  8
0
 10
91.309
 20
125.849
 11
107.181
 21
125.849
  0
LINE
  8
0
 10
107.181
 20
125.849
 11
107.181
 21
123.763
  0
LINE
  8
0
 10
107.181
 20
123.763
 11
94.408
 21
107.929
  0
LINE
  8
0
 10
94.408
 20
107.929
 11
107.501
 21
107.929
  0
LINE
  8
0
 10
107.501
 20
107.929
 11
107.501
 21
105.625
  0
LINE
  8
0
 10
107.501
 20
105.625
 11
90.989
 21
105.625
  0
LINE
  8
0
 10
130.752
 20
105.625
 11
130.752
 21
125.849
  0
LINE
  8
0
 10
130.752
 20
125.849
 11
133.504
 21
125.849
  0
LINE
  8
0
 10
133.504
 20
125.849
 11
133.504
 21
105.625
  0
LINE
  8
0
 10
133.504
 20
105.625
 11
130.752
 21
105.625
  0
LINE
  8
0
 10
-7.43614
 20
105.625
 11
-12.5141
 21
125.849
  0
LINE
  8
0
 10
-12.5141
 20
125.849
 11
-9.74416
 21
125.849
  0
LINE
  8
0
 10
-9.74416
 20
125.849
 11
-5.48015
 21
108.754
  0
LINE
  8
0
 10
-5.48015
 20
108.754
 11
-1.23015
 21
125.849
  0
LINE
  8
0
 10
-1.23015
 20
125.849
 11
1.85184
 21
125.849
  0
LINE
  8
0
 10
1.85184
 20
125.849
 11
6.11583
 21
108.754
  0
LINE
  8
0
 10
6.11583
 20
108.754
 11
10.3658
 21
125.849
  0
LINE
  8
0
 10
10.3658
 20
125.849
 11
13.1498
 21
125.849
  0
LINE
  8
0
 10
13.1498
 20
125.849
 11
8.05783
 21
105.625
  0
LINE
  8
0
 10
8.05783
 20
105.625
 11
4.60884
 21
105.625
  0
LINE
  8
0
 10
4.60884
 20
105.625
 11
0.331833
 21
123.18
  0
LINE
  8
0
 10
0.331833
 20
123.18
 11
-3.98615
 21
105.625
  0
LINE
  8
0
 10
-3.98615
 20
105.625
 11
-7.43614
 21
105.625
  0
LINE
  8
0
 10
58.6065
 20
105.625
 11
58.6065
 21
125.849
  0
LINE
  8
0
 10
58.6065
 20
125.849
 11
62.3165
 21
125.849
  0
LINE
  8
0
 10
62.3165
 20
125.849
 11
71.2145
 21
108.93
  0
LINE
  8
0
 10
71.2145
 20
108.93
 11
71.2145
 21
125.849
  0
LINE
  8
0
 10
71.2145
 20
125.849
 11
73.9025
 21
125.849
  0
LINE
  8
0
 10
73.9025
 20
125.849
 11
73.9025
 21
105.625
  0
LINE
  8
0
 10
73.9025
 20
105.625
 11
70.1925
 21
105.625
  0
LINE
  8
0
 10
70.1925
 20
105.625
 11
61.2945
 21
122.544
  0
LINE
  8
0
 10
61.2945
 20
122.544
 11
61.2945
 21
105.625
  0
LINE
  8
0
 10
61.2945
 20
105.625
 11
58.6065
 21
105.625
  0
LINE
  8
0
 10
-106.446
 20
105.625
 11
-106.446
 21
125.849
  0
LINE
  8
0
 10
-106.446
 20
125.849
 11
-103.694
 21
125.849
  0
LINE
  8
0
 10
-103.694
 20
125.849
 11
-103.694
 21
117.593
  0
LINE
  8
0
 10
-103.694
 20
117.593
 11
-93.7742
 21
117.593
  0
LINE
  8
0
 10
-93.7742
 20
117.593
 11
-93.7742
 21
125.849
  0
LINE
  8
0
 10
-93.7742
 20
125.849
 11
-91.0222
 21
125.849
  0
LINE
  8
0
 10
-91.0222
 20
125.849
 11
-91.0222
 21
105.625
  0
LINE
  8
0
 10
-91.0222
 20
105.625
 11
-93.7742
 21
105.625
  0
LINE
  8
0
 10
-93.7742
 20
105.625
 11
-93.7742
 21
115.289
  0
LINE
  8
0
 10
-93.7742
 20
115.289
 11
-103.694
 21
115.289
  0
LINE
  8
0
 10
-103.694
 20
115.289
 11
-103.694
 21
105.625
  0
LINE
  8
0
 10
-103.694
 20
105.625
 11
-106.446
 21
105.625
  0
LINE
  8
0
 10
-137.817
 20
105.625
 11
-137.817
 21
125.849
  0
LINE
  8
0
 10
-137.817
 20
125.849
 11
-125.017
 21
125.849
  0
LINE
  8
0
 10
-125.017
 20
125.849
 11
-125.017
 21
123.545
  0
LINE
  8
0
 10
-125.017
 20
123.545
 11
-135.065
 21
123.545
  0
LINE
  8
0
 10
-135.065
 20
123.545
 11
-135.065
 21
117.593
  0
LINE
  8
0
 10
-135.065
 20
117.593
 11
-125.401
 21
117.593
  0
LINE
  8
0
 10
-125.401
 20
117.593
 11
-125.401
 21
115.289
  0
LINE
  8
0
 10
-125.401
 20
115.289
 11
-135.065
 21
115.289
  0
LINE
  8
0
 10
-135.065
 20
115.289
 11
-135.065
 21
107.929
  0
LINE
  8
0
 10
-135.065
 20
107.929
 11
-124.761
 21
107.929
  0
LINE
  8
0
 10
-124.761
 20
107.929
 11
-124.761
 21
105.625
  0
LINE
  8
0
 10
-124.761
 20
105.625
 11
-137.817
 21
105.625
  0
LINE
  8
0
 10
-1.24799
 20
72.625
 11
-1.24799
 21
92.849
  0
LINE
  8
0
 10
-1.24799
 20
92.849
 11
1.504
 21
92.849
  0
LINE
  8
0
 10
1.504
 20
92.849
 11
1.504
 21
72.625
  0
LINE
  8
0
 10
1.504
 20
72.625
 11
-1.24799
 21
72.625
  0
LINE
  8
0
 10
27.1827
 20
72.625
 11
27.1827
 21
92.849
  0
LINE
  8
0
 10
27.1827
 20
92.849
 11
39.9827
 21
92.849
  0
LINE
  8
0
 10
39.9827
 20
92.849
 11
39.9827
 21
90.545
  0
LINE
  8
0
 10
39.9827
 20
90.545
 11
29.9347
 21
90.545
  0
LINE
  8
0
 10
29.9347
 20
90.545
 11
29.9347
 21
84.593
  0
LINE
  8
0
 10
29.9347
 20
84.593
 11
39.5987
 21
84.593
  0
LINE
  8
0
 10
39.5987
 20
84.593
 11
39.5987
 21
82.289
  0
LINE
  8
0
 10
39.5987
 20
82.289
 11
29.9347
 21
82.289
  0
LINE
  8
0
 10
29.9347
 20
82.289
 11
29.9347
 21
74.929
  0
LINE
  8
0
 10
29.9347
 20
74.929
 11
40.2387
 21
74.929
  0
LINE
  8
0
 10
40.2387
 20
74.929
 11
40.2387
 21
72.625
  0
LINE
  8
0
 10
40.2387
 20
72.625
 11
27.1827
 21
72.625
  0
LINE
  8
0
 10
126.183
 20
72.625
 11
126.183
 21
92.849
  0
LINE
  8
0
 10
126.183
 20
92.849
 11
138.983
 21
92.849
  0
LINE
  8
0
 10
138.983
 20
92.849
 11
138.983
 21
90.545
  0
LINE
  8
0
 10
138.983
 20
90.545
 11
128.935
 21
90.545
  0
LINE
  8
0
 10
128.935
 20
90.545
 11
128.935
 21
84.593
  0
LINE
  8
0
 10
128.935
 20
84.593
 11
138.599
 21
84.593
  0
LINE
  8
0
 10
138.599
 20
84.593
 11
138.599
 21
82.289
  0
LINE
  8
0
 10
138.599
 20
82.289
 11
128.935
 21
82.289
  0
LINE
  8
0
 10
128.935
 20
82.289
 11
128.935
 21
74.929
  0
LINE
  8
0
 10
128.935
 20
74.929
 11
139.239
 21
74.929
  0
LINE
  8
0
 10
139.239
 20
74.929
 11
139.239
 21
72.625
  0
LINE
  8
0
 10
139.239
 20
72.625
 11
126.183
 21
72.625
  0
LINE
  8
0
 10
160.196
 20
72.625
 11
160.196
 21
92.849
  0
LINE
  8
0
 10
160.196
 20
92.849
 11
162.948
 21
92.849
  0
LINE
  8
0
 10
162.948
 20
92.849
 11
162.948
 21
74.929
  0
LINE
  8
0
 10
162.948
 20
74.929
 11
172.804
 21
74.929
  0
LINE
  8
0
 10
172.804
 20
74.929
 11
172.804
 21
72.625
  0
LINE
  8
0
 10
172.804
 20
72.625
 11
160.196
 21
72.625
  0
LINE
  8
0
 10
-34.3528
 20
72.625
 11
-42.0858
 21
92.849
  0
LINE
  8
0
 10
-42.0858
 20
92.849
 11
-39.2228
 21
92.849
  0
LINE
  8
0
 10
-39.2228
 20
92.849
 11
-32.8058
 21
75.822
  0
LINE
  8
0
 10
-32.8058
 20
75.822
 11
-26.3748
 21
92.849
  0
LINE
  8
0
 10
-26.3748
 20
92.849
 11
-23.5258
 21
92.849
  0
LINE
  8
0
 10
-23.5258
 20
92.849
 11
-31.2458
 21
72.625
  0
LINE
  8
0
 10
-31.2458
 20
72.625
 11
-34.3528
 21
72.625
  0
LINE
  8
0
 10
59.3287
 20
72.625
 11
59.3287
 21
92.849
  0
LINE
  8
0
 10
59.3287
 20
92.849
 11
65.5157
 21
92.849
  0
LINE
  8
0
 10
65.5157
 20
92.849
 11
66.8301
 21
92.7908
  0
LINE
  8
0
 10
66.8301
 20
92.7908
 11
68.0038
 21
92.6162
  0
LINE
  8
0
 10
68.0038
 20
92.6162
 11
69.0368
 21
92.3252
  0
LINE
  8
0
 10
69.0368
 20
92.3252
 11
69.9291
 21
91.9178
  0
LINE
  8
0
 10
69.9291
 20
91.9178
 11
70.6806
 21
91.394
  0
LINE
  8
0
 10
70.6806
 20
91.394
 11
71.2941
 21
90.7531
  0
LINE
  8
0
 10
71.2941
 20
90.7531
 11
71.7712
 21
89.9935
  0
LINE
  8
0
 10
71.7712
 20
89.9935
 11
72.112
 21
89.1153
  0
LINE
  8
0
 10
72.112
 20
89.1153
 11
72.3165
 21
88.1185
  0
LINE
  8
0
 10
72.3165
 20
88.1185
 11
72.3847
 21
87.003
  0
LINE
  8
0
 10
72.3847
 20
87.003
 11
72.3492
 21
86.2623
  0
LINE
  8
0
 10
72.3492
 20
86.2623
 11
72.2429
 21
85.5737
  0
LINE
  8
0
 10
72.2429
 20
85.5737
 11
72.0657
 21
84.9373
  0
LINE
  8
0
 10
72.0657
 20
84.9373
 11
71.8176
 21
84.3531
  0
LINE
  8
0
 10
71.8176
 20
84.3531
 11
71.4987
 21
83.821
  0
LINE
  8
0
 10
71.4987
 20
83.821
 11
71.1125
 21
83.3464
  0
LINE
  8
0
 10
71.1125
 20
83.3464
 11
70.6618
 21
82.9338
  0
LINE
  8
0
 10
70.6618
 20
82.9338
 11
70.1469
 21
82.5832
  0
LINE
  8
0
 10
70.1469
 20
82.5832
 11
69.5675
 21
82.2946
  0
LINE
  8
0
 10
69.5675
 20
82.2946
 11
68.9236
 21
82.068
  0
LINE
  8
0
 10
68.9236
 20
82.068
 11
69.2733
 21
81.9222
  0
LINE
  8
0
 10
69.2733
 20
81.9222
 11
69.6192
 21
81.7226
  0
LINE
  8
0
 10
69.6192
 20
81.7226
 11
69.9612
 21
81.469
  0
LINE
  8
0
 10
69.9612
 20
81.469
 11
70.2993
 21
81.1615
  0
LINE
  8
0
 10
70.2993
 20
81.1615
 11
70.6337
 21
80.8
  0
LINE
  8
0
 10
70.6337
 20
80.8
 11
70.9667
 21
80.3824
  0
LINE
  8
0
 10
70.9667
 20
80.3824
 11
71.3002
 21
79.9066
  0
LINE
  8
0
 10
71.3002
 20
79.9066
 11
71.6342
 21
79.3724
  0
LINE
  8
0
 10
71.6342
 20
79.3724
 11
71.9687
 21
78.7798
  0
LINE
  8
0
 10
71.9687
 20
78.7798
 11
72.3036
 21
78.129
  0
LINE
  8
0
 10
72.3036
 20
78.129
 11
75.0726
 21
72.625
  0
LINE
  8
0
 10
75.0726
 20
72.625
 11
72.1416
 21
72.625
  0
LINE
  8
0
 10
72.1416
 20
72.625
 11
69.5587
 21
77.792
  0
LINE
  8
0
 10
69.5587
 20
77.792
 11
69.1607
 21
78.5467
  0
LINE
  8
0
 10
69.1607
 20
78.5467
 11
68.7676
 21
79.1925
  0
LINE
  8
0
 10
68.7676
 20
79.1925
 11
68.3794
 21
79.7293
  0
LINE
  8
0
 10
68.3794
 20
79.7293
 11
67.9961
 21
80.1571
  0
LINE
  8
0
 10
67.9961
 20
80.1571
 11
67.6176
 21
80.476
  0
LINE
  8
0
 10
67.6176
 20
80.476
 11
67.2147
 21
80.714
  0
LINE
  8
0
 10
67.2147
 20
80.714
 11
66.757
 21
80.899
  0
LINE
  8
0
 10
66.757
 20
80.899
 11
66.2446
 21
81.0312
  0
LINE
  8
0
 10
66.2446
 20
81.0312
 11
65.6775
 21
81.1106
  0
LINE
  8
0
 10
65.6775
 20
81.1106
 11
65.0557
 21
81.137
  0
LINE
  8
0
 10
65.0557
 20
81.137
 11
62.0807
 21
81.137
  0
LINE
  8
0
 10
62.0807
 20
81.137
 11
62.0807
 21
72.625
  0
LINE
  8
0
 10
62.0807
 20
72.625
 11
59.3287
 21
72.625
  0
LINE
  8
0
 10
66.2666
 20
83.4138
 11
66.9401
 21
83.5244
  0
LINE
  8
0
 10
66.9401
 20
83.5244
 11
67.5363
 21
83.7086
  0
LINE
  8
0
 10
67.5363
 20
83.7086
 11
68.0552
 21
83.9664
  0
LINE
  8
0
 10
68.0552
 20
83.9664
 11
68.4967
 21
84.298
  0
LINE
  8
0
 10
68.4967
 20
84.298
 11
68.8595
 21
84.7011
  0
LINE
  8
0
 10
68.8595
 20
84.7011
 11
69.1418
 21
85.1735
  0
LINE
  8
0
 10
69.1418
 20
85.1735
 11
69.3434
 21
85.7153
  0
LINE
  8
0
 10
69.3434
 20
85.7153
 11
69.4643
 21
86.3265
  0
LINE
  8
0
 10
69.4643
 20
86.3265
 11
69.5047
 21
87.007
  0
LINE
  8
0
 10
69.5047
 20
87.007
 11
69.4643
 21
87.6866
  0
LINE
  8
0
 10
69.4643
 20
87.6866
 11
69.3434
 21
88.2958
  0
LINE
  8
0
 10
69.3434
 20
88.2958
 11
69.1418
 21
88.8346
  0
LINE
  8
0
 10
69.1418
 20
88.8346
 11
68.8595
 21
89.303
  0
LINE
  8
0
 10
68.8595
 20
89.303
 11
68.4967
 21
89.701
  0
LINE
  8
0
 10
68.4967
 20
89.701
 11
68.0552
 21
90.0279
  0
LINE
  8
0
 10
68.0552
 20
90.0279
 11
67.5363
 21
90.2821
  0
LINE
  8
0
 10
67.5363
 20
90.2821
 11
66.9401
 21
90.4637
  0
LINE
  8
0
 10
66.9401
 20
90.4637
 11
66.2666
 21
90.5727
  0
LINE
  8
0
 10
66.2666
 20
90.5727
 11
65.5157
 21
90.609
  0
LINE
  8
0
 10
65.5157
 20
90.609
 11
62.0807
 21
90.609
  0
LINE
  8
0
 10
62.0807
 20
90.609
 11
62.0807
 21
83.377
  0
LINE
  8
0
 10
62.0807
 20
83.377
 11
65.5157
 21
83.377
  0
LINE
  8
0
 10
65.5157
 20
83.377
 11
66.2666
 21
83.4138
  0
LINE
  8
0
 10
-172.691
 20
72.625
 11
-172.691
 21
92.849
  0
LINE
  8
0
 10
-172.691
 20
92.849
 11
-167.05
 21
92.849
  0
LINE
  8
0
 10
-167.05
 20
92.849
 11
-164.823
 21
92.7512
  0
LINE
  8
0
 10
-164.823
 20
92.7512
 11
-162.846
 21
92.4578
  0
LINE
  8
0
 10
-162.846
 20
92.4578
 11
-161.12
 21
91.9688
  0
LINE
  8
0
 10
-161.12
 20
91.9688
 11
-159.644
 21
91.2842
  0
LINE
  8
0
 10
-159.644
 20
91.2842
 11
-158.418
 21
90.404
  0
LINE
  8
0
 10
-158.418
 20
90.404
 11
-157.428
 21
89.3157
  0
LINE
  8
0
 10
-157.428
 20
89.3157
 11
-156.658
 21
88.0069
  0
LINE
  8
0
 10
-156.658
 20
88.0069
 11
-156.108
 21
86.4775
  0
LINE
  8
0
 10
-156.108
 20
86.4775
 11
-155.777
 21
84.7275
  0
LINE
  8
0
 10
-155.777
 20
84.7275
 11
-155.667
 21
82.757
  0
LINE
  8
0
 10
-155.667
 20
82.757
 11
-155.778
 21
80.7768
  0
LINE
  8
0
 10
-155.778
 20
80.7768
 11
-156.11
 21
79.0188
  0
LINE
  8
0
 10
-156.11
 20
79.0188
 11
-156.663
 21
77.4828
  0
LINE
  8
0
 10
-156.663
 20
77.4828
 11
-157.437
 21
76.1689
  0
LINE
  8
0
 10
-157.437
 20
76.1689
 11
-158.432
 21
75.077
  0
LINE
  8
0
 10
-158.432
 20
75.077
 11
-159.662
 21
74.1943
  0
LINE
  8
0
 10
-159.662
 20
74.1943
 11
-161.138
 21
73.5077
  0
LINE
  8
0
 10
-161.138
 20
73.5077
 11
-162.862
 21
73.0173
  0
LINE
  8
0
 10
-162.862
 20
73.0173
 11
-164.832
 21
72.7231
  0
LINE
  8
0
 10
-164.832
 20
72.7231
 11
-167.05
 21
72.625
  0
LINE
  8
0
 10
-167.05
 20
72.625
 11
-172.691
 21
72.625
  0
LINE
  8
0
 10
-165.044
 20
74.9409
 11
-163.637
 21
75.1687
  0
LINE
  8
0
 10
-163.637
 20
75.1687
 11
-162.409
 21
75.5483
  0
LINE
  8
0
 10
-162.409
 20
75.5483
 11
-161.362
 21
76.0797
  0
LINE
  8
0
 10
-161.362
 20
76.0797
 11
-160.493
 21
76.763
  0
LINE
  8
0
 10
-160.493
 20
76.763
 11
-159.793
 21
77.6104
  0
LINE
  8
0
 10
-159.793
 20
77.6104
 11
-159.248
 21
78.6336
  0
LINE
  8
0
 10
-159.248
 20
78.6336
 11
-158.859
 21
79.8324
  0
LINE
  8
0
 10
-158.859
 20
79.8324
 11
-158.625
 21
81.2068
  0
LINE
  8
0
 10
-158.625
 20
81.2068
 11
-158.547
 21
82.757
  0
LINE
  8
0
 10
-158.547
 20
82.757
 11
-158.625
 21
84.2975
  0
LINE
  8
0
 10
-158.625
 20
84.2975
 11
-158.859
 21
85.6637
  0
LINE
  8
0
 10
-158.859
 20
85.6637
 11
-159.248
 21
86.8557
  0
LINE
  8
0
 10
-159.248
 20
86.8557
 11
-159.793
 21
87.8735
  0
LINE
  8
0
 10
-159.793
 20
87.8735
 11
-160.493
 21
88.717
  0
LINE
  8
0
 10
-160.493
 20
88.717
 11
-161.362
 21
89.3981
  0
LINE
  8
0
 10
-161.362
 20
89.3981
 11
-162.409
 21
89.9279
  0
LINE
  8
0
 10
-162.409
 20
89.9279
 11
-163.637
 21
90.3063
  0
LINE
  8
0
 10
-163.637
 20
90.3063
 11
-165.044
 21
90.5333
  0
LINE
  8
0
 10
-165.044
 20
90.5333
 11
-166.63
 21
90.609
  0
LINE
  8
0
 10
-166.63
 20
90.609
 11
-169.939
 21
90.609
  0
LINE
  8
0
 10
-169.939
 20
90.609
 11
-169.939
 21
74.865
  0
LINE
  8
0
 10
-169.939
 20
74.865
 11
-166.63
 21
74.865
  0
LINE
  8
0
 10
-166.63
 20
74.865
 11
-165.044
 21
74.9409
  0
LINE
  8
0
 10
97.8193
 20
72.625
 11
97.8193
 21
90.545
  0
LINE
  8
0
 10
97.8193
 20
90.545
 11
90.6513
 21
90.545
  0
LINE
  8
0
 10
90.6513
 20
90.545
 11
90.6513
 21
92.849
  0
LINE
  8
0
 10
90.6513
 20
92.849
 11
107.739
 21
92.849
  0
LINE
  8
0
 10
107.739
 20
92.849
 11
107.739
 21
90.545
  0
LINE
  8
0
 10
107.739
 20
90.545
 11
100.571
 21
90.545
  0
LINE
  8
0
 10
100.571
 20
90.545
 11
100.571
 21
72.625
  0
LINE
  8
0
 10
100.571
 20
72.625
 11
97.8193
 21
72.625
  0
LINE
  8
0
 10
-138.671
 20
72.625
 11
-138.671
 21
92.849
  0
LINE
  8
0
 10
-138.671
 20
92.849
 11
-132.484
 21
92.849
  0
LINE
  8
0
 10
-132.484
 20
92.849
 11
-131.17
 21
92.7908
  0
LINE
  8
0
 10
-131.17
 20
92.7908
 11
-129.996
 21
92.6162
  0
LINE
  8
0
 10
-129.996
 20
92.6162
 11
-128.963
 21
92.3252
  0
LINE
  8
0
 10
-128.963
 20
92.3252
 11
-128.071
 21
91.9178
  0
LINE
  8
0
 10
-128.071
 20
91.9178
 11
-127.319
 21
91.394
  0
LINE
  8
0
 10
-127.319
 20
91.394
 11
-126.706
 21
90.7531
  0
LINE
  8
0
 10
-126.706
 20
90.7531
 11
-126.229
 21
89.9935
  0
LINE
  8
0
 10
-126.229
 20
89.9935
 11
-125.888
 21
89.1153
  0
LINE
  8
0
 10
-125.888
 20
89.1153
 11
-125.684
 21
88.1185
  0
LINE
  8
0
 10
-125.684
 20
88.1185
 11
-125.615
 21
87.003
  0
LINE
  8
0
 10
-125.615
 20
87.003
 11
-125.651
 21
86.2623
  0
LINE
  8
0
 10
-125.651
 20
86.2623
 11
-125.757
 21
85.5737
  0
LINE
  8
0
 10
-125.757
 20
85.5737
 11
-125.934
 21
84.9373
  0
LINE
  8
0
 10
-125.934
 20
84.9373
 11
-126.182
 21
84.3531
  0
LINE
  8
0
 10
-126.182
 20
84.3531
 11
-126.501
 21
83.821
  0
LINE
  8
0
 10
-126.501
 20
83.821
 11
-126.888
 21
83.3464
  0
LINE
  8
0
 10
-126.888
 20
83.3464
 11
-127.338
 21
82.9338
  0
LINE
  8
0
 10
-127.338
 20
82.9338
 11
-127.853
 21
82.5832
  0
LINE
  8
0
 10
-127.853
 20
82.5832
 11
-128.433
 21
82.2946
  0
LINE
  8
0
 10
-128.433
 20
82.2946
 11
-129.076
 21
82.068
  0
LINE
  8
0
 10
-129.076
 20
82.068
 11
-128.727
 21
81.9222
  0
LINE
  8
0
 10
-128.727
 20
81.9222
 11
-128.381
 21
81.7226
  0
LINE
  8
0
 10
-128.381
 20
81.7226
 11
-128.039
 21
81.469
  0
LINE
  8
0
 10
-128.039
 20
81.469
 11
-127.701
 21
81.1615
  0
LINE
  8
0
 10
-127.701
 20
81.1615
 11
-127.366
 21
80.8
  0
LINE
  8
0
 10
-127.366
 20
80.8
 11
-127.033
 21
80.3824
  0
LINE
  8
0
 10
-127.033
 20
80.3824
 11
-126.7
 21
79.9066
  0
LINE
  8
0
 10
-126.7
 20
79.9066
 11
-126.366
 21
79.3724
  0
LINE
  8
0
 10
-126.366
 20
79.3724
 11
-126.031
 21
78.7798
  0
LINE
  8
0
 10
-126.031
 20
78.7798
 11
-125.696
 21
78.129
  0
LINE
  8
0
 10
-125.696
 20
78.129
 11
-122.927
 21
72.625
  0
LINE
  8
0
 10
-122.927
 20
72.625
 11
-125.858
 21
72.625
  0
LINE
  8
0
 10
-125.858
 20
72.625
 11
-128.441
 21
77.792
  0
LINE
  8
0
 10
-128.441
 20
77.792
 11
-128.839
 21
78.5467
  0
LINE
  8
0
 10
-128.839
 20
78.5467
 11
-129.232
 21
79.1925
  0
LINE
  8
0
 10
-129.232
 20
79.1925
 11
-129.621
 21
79.7293
  0
LINE
  8
0
 10
-129.621
 20
79.7293
 11
-130.004
 21
80.1571
  0
LINE
  8
0
 10
-130.004
 20
80.1571
 11
-130.382
 21
80.476
  0
LINE
  8
0
 10
-130.382
 20
80.476
 11
-130.785
 21
80.714
  0
LINE
  8
0
 10
-130.785
 20
80.714
 11
-131.243
 21
80.899
  0
LINE
  8
0
 10
-131.243
 20
80.899
 11
-131.755
 21
81.0312
  0
LINE
  8
0
 10
-131.755
 20
81.0312
 11
-132.322
 21
81.1106
  0
LINE
  8
0
 10
-132.322
 20
81.1106
 11
-132.944
 21
81.137
  0
LINE
  8
0
 10
-132.944
 20
81.137
 11
-135.919
 21
81.137
  0
LINE
  8
0
 10
-135.919
 20
81.137
 11
-135.919
 21
72.625
  0
LINE
  8
0
 10
-135.919
 20
72.625
 11
-138.671
 21
72.625
  0
LINE
  8
0
 10
-131.733
 20
83.4138
 11
-131.06
 21
83.5244
  0
LINE
  8
0
 10
-131.06
 20
83.5244
 11
-130.464
 21
83.7086
  0
LINE
  8
0
 10
-130.464
 20
83.7086
 11
-129.945
 21
83.9664
  0
LINE
  8
0
 10
-129.945
 20
83.9664
 11
-129.503
 21
84.298
  0
LINE
  8
0
 10
-129.503
 20
84.298
 11
-129.14
 21
84.7011
  0
LINE
  8
0
 10
-129.14
 20
84.7011
 11
-128.858
 21
85.1735
  0
LINE
  8
0
 10
-128.858
 20
85.1735
 11
-128.657
 21
85.7153
  0
LINE
  8
0
 10
-128.657
 20
85.7153
 11
-128.536
 21
86.3265
  0
LINE
  8
0
 10
-128.536
 20
86.3265
 11
-128.495
 21
87.007
  0
LINE
  8
0
 10
-128.495
 20
87.007
 11
-128.536
 21
87.6866
  0
LINE
  8
0
 10
-128.536
 20
87.6866
 11
-128.657
 21
88.2958
  0
LINE
  8
0
 10
-128.657
 20
88.2958
 11
-128.858
 21
88.8346
  0
LINE
  8
0
 10
-128.858
 20
88.8346
 11
-129.14
 21
89.303
  0
LINE
  8
0
 10
-129.14
 20
89.303
 11
-129.503
 21
89.701
  0
LINE
  8
0
 10
-129.503
 20
89.701
 11
-129.945
 21
90.0279
  0
LINE
  8
0
 10
-129.945
 20
90.0279
 11
-130.464
 21
90.2821
  0
LINE
  8
0
 10
-130.464
 20
90.2821
 11
-131.06
 21
90.4637
  0
LINE
  8
0
 10
-131.06
 20
90.4637
 11
-131.733
 21
90.5727
  0
LINE
  8
0
 10
-131.733
 20
90.5727
 11
-132.484
 21
90.609
  0
LINE
  8
0
 10
-132.484
 20
90.609
 11
-135.919
 21
90.609
  0
LINE
  8
0
 10
-135.919
 20
90.609
 11
-135.919
 21
83.377
  0
LINE
  8
0
 10
-135.919
 20
83.377
 11
-132.484
 21
83.377
  0
LINE
  8
0
 10
-132.484
 20
83.377
 11
-131.733
 21
83.4138
  0
LINE
  8
0
 10
-104.817
 20
72.625
 11
-104.817
 21
92.849
  0
LINE
  8
0
 10
-104.817
 20
92.849
 11
-92.0173
 21
92.849
  0
LINE
  8
0
 10
-92.0173
 20
92.849
 11
-92.0173
 21
90.545
  0
LINE
  8
0
 10
-92.0173
 20
90.545
 11
-102.065
 21
90.545
  0
LINE
  8
0
 10
-102.065
 20
90.545
 11
-102.065
 21
84.593
  0
LINE
  8
0
 10
-102.065
 20
84.593
 11
-92.4013
 21
84.593
  0
LINE
  8
0
 10
-92.4013
 20
84.593
 11
-92.4013
 21
82.289
  0
LINE
  8
0
 10
-92.4013
 20
82.289
 11
-102.065
 21
82.289
  0
LINE
  8
0
 10
-102.065
 20
82.289
 11
-102.065
 21
74.929
  0
LINE
  8
0
 10
-102.065
 20
74.929
 11
-91.7613
 21
74.929
  0
LINE
  8
0
 10
-91.7613
 20
74.929
 11
-91.7613
 21
72.625
  0
LINE
  8
0
 10
-91.7613
 20
72.625
 11
-104.817
 21
72.625
  0
LINE
  8
0
 10
-67.248
 20
72.625
 11
-67.248
 21
92.849
  0
LINE
  8
0
 10
-67.248
 20
92.849
 11
-64.496
 21
92.849
  0
LINE
  8
0
 10
-64.496
 20
92.849
 11
-64.496
 21
72.625
  0
LINE
  8
0
 10
-64.496
 20
72.625
 11
-67.248
 21
72.625
  0
LINE
  8
0
 10
-133.391
 20
39.3548
 11
-134.895
 21
39.6964
  0
LINE
  8
0
 10
-134.895
 20
39.6964
 11
-136.261
 21
40.2656
  0
LINE
  8
0
 10
-136.261
 20
40.2656
 11
-137.49
 21
41.0625
  0
LINE
  8
0
 10
-137.49
 20
41.0625
 11
-138.582
 21
42.087
  0
LINE
  8
0
 10
-138.582
 20
42.087
 11
-139.503
 21
43.3035
  0
LINE
  8
0
 10
-139.503
 20
43.3035
 11
-140.219
 21
44.676
  0
LINE
  8
0
 10
-140.219
 20
44.676
 11
-140.73
 21
46.2046
  0
LINE
  8
0
 10
-140.73
 20
46.2046
 11
-141.037
 21
47.8893
  0
LINE
  8
0
 10
-141.037
 20
47.8893
 11
-141.139
 21
49.73
  0
LINE
  8
0
 10
-141.139
 20
49.73
 11
-141.037
 21
51.5714
  0
LINE
  8
0
 10
-141.037
 20
51.5714
 11
-140.73
 21
53.257
  0
LINE
  8
0
 10
-140.73
 20
53.257
 11
-140.219
 21
54.787
  0
LINE
  8
0
 10
-140.219
 20
54.787
 11
-139.503
 21
56.1613
  0
LINE
  8
0
 10
-139.503
 20
56.1613
 11
-138.582
 21
57.38
  0
LINE
  8
0
 10
-138.582
 20
57.38
 11
-137.49
 21
58.4071
  0
LINE
  8
0
 10
-137.49
 20
58.4071
 11
-136.261
 21
59.2059
  0
LINE
  8
0
 10
-136.261
 20
59.2059
 11
-134.895
 21
59.7765
  0
LINE
  8
0
 10
-134.895
 20
59.7765
 11
-133.391
 21
60.1189
  0
LINE
  8
0
 10
-133.391
 20
60.1189
 11
-131.749
 21
60.233
  0
LINE
  8
0
 10
-131.749
 20
60.233
 11
-130.114
 21
60.1189
  0
LINE
  8
0
 10
-130.114
 20
60.1189
 11
-128.615
 21
59.7765
  0
LINE
  8
0
 10
-128.615
 20
59.7765
 11
-127.253
 21
59.2059
  0
LINE
  8
0
 10
-127.253
 20
59.2059
 11
-126.027
 21
58.4071
  0
LINE
  8
0
 10
-126.027
 20
58.4071
 11
-124.938
 21
57.38
  0
LINE
  8
0
 10
-124.938
 20
57.38
 11
-124.02
 21
56.1613
  0
LINE
  8
0
 10
-124.02
 20
56.1613
 11
-123.306
 21
54.787
  0
LINE
  8
0
 10
-123.306
 20
54.787
 11
-122.795
 21
53.257
  0
LINE
  8
0
 10
-122.795
 20
53.257
 11
-122.489
 21
51.5714
  0
LINE
  8
0
 10
-122.489
 20
51.5714
 11
-122.387
 21
49.73
  0
LINE
  8
0
 10
-122.387
 20
49.73
 11
-122.489
 21
47.8936
  0
LINE
  8
0
 10
-122.489
 20
47.8936
 11
-122.795
 21
46.2118
  0
LINE
  8
0
 10
-122.795
 20
46.2118
 11
-123.306
 21
44.6844
  0
LINE
  8
0
 10
-123.306
 20
44.6844
 11
-124.02
 21
43.3114
  0
LINE
  8
0
 10
-124.02
 20
43.3114
 11
-124.938
 21
42.093
  0
LINE
  8
0
 10
-124.938
 20
42.093
 11
-126.027
 21
41.0663
  0
LINE
  8
0
 10
-126.027
 20
41.0663
 11
-127.253
 21
40.2677
  0
LINE
  8
0
 10
-127.253
 20
40.2677
 11
-128.615
 21
39.6973
  0
LINE
  8
0
 10
-128.615
 20
39.6973
 11
-130.114
 21
39.3551
  0
LINE
  8
0
 10
-130.114
 20
39.3551
 11
-131.749
 21
39.241
  0
LINE
  8
0
 10
-131.749
 20
39.241
 11
-133.391
 21
39.3548
  0
LINE
  8
0
 10
-130.603
 20
41.5697
 11
-129.557
 21
41.8359
  0
LINE
  8
0
 10
-129.557
 20
41.8359
 11
-128.61
 21
42.2795
  0
LINE
  8
0
 10
-128.61
 20
42.2795
 11
-127.762
 21
42.9005
  0
LINE
  8
0
 10
-127.762
 20
42.9005
 11
-127.014
 21
43.699
  0
LINE
  8
0
 10
-127.014
 20
43.699
 11
-126.385
 21
44.65
  0
LINE
  8
0
 10
-126.385
 20
44.65
 11
-125.896
 21
45.7286
  0
LINE
  8
0
 10
-125.896
 20
45.7286
 11
-125.547
 21
46.9348
  0
LINE
  8
0
 10
-125.547
 20
46.9348
 11
-125.337
 21
48.2686
  0
LINE
  8
0
 10
-125.337
 20
48.2686
 11
-125.267
 21
49.73
  0
LINE
  8
0
 10
-125.267
 20
49.73
 11
-125.337
 21
51.1964
  0
LINE
  8
0
 10
-125.337
 20
51.1964
 11
-125.547
 21
52.5341
  0
LINE
  8
0
 10
-125.547
 20
52.5341
 11
-125.896
 21
53.7431
  0
LINE
  8
0
 10
-125.896
 20
53.7431
 11
-126.385
 21
54.8234
  0
LINE
  8
0
 10
-126.385
 20
54.8234
 11
-127.014
 21
55.775
  0
LINE
  8
0
 10
-127.014
 20
55.775
 11
-127.762
 21
56.5735
  0
LINE
  8
0
 10
-127.762
 20
56.5735
 11
-128.61
 21
57.1945
  0
LINE
  8
0
 10
-128.61
 20
57.1945
 11
-129.557
 21
57.6381
  0
LINE
  8
0
 10
-129.557
 20
57.6381
 11
-130.603
 21
57.9043
  0
LINE
  8
0
 10
-130.603
 20
57.9043
 11
-131.749
 21
57.993
  0
LINE
  8
0
 10
-131.749
 20
57.993
 11
-132.896
 21
57.9043
  0
LINE
  8
0
 10
-132.896
 20
57.9043
 11
-133.944
 21
57.6381
  0
LINE
  8
0
 10
-133.944
 20
57.6381
 11
-134.894
 21
57.1945
  0
LINE
  8
0
 10
-134.894
 20
57.1945
 11
-135.746
 21
56.5735
  0
LINE
  8
0
 10
-135.746
 20
56.5735
 11
-136.499
 21
55.775
  0
LINE
  8
0
 10
-136.499
 20
55.775
 11
-137.133
 21
54.8234
  0
LINE
  8
0
 10
-137.133
 20
54.8234
 11
-137.626
 21
53.7431
  0
LINE
  8
0
 10
-137.626
 20
53.7431
 11
-137.978
 21
52.5341
  0
LINE
  8
0
 10
-137.978
 20
52.5341
 11
-138.189
 21
51.1964
  0
LINE
  8
0
 10
-138.189
 20
51.1964
 11
-138.259
 21
49.73
  0
LINE
  8
0
 10
-138.259
 20
49.73
 11
-138.189
 21
48.2686
  0
LINE
  8
0
 10
-138.189
 20
48.2686
 11
-137.978
 21
46.9348
  0
LINE
  8
0
 10
-137.978
 20
46.9348
 11
-137.626
 21
45.7286
  0
LINE
  8
0
 10
-137.626
 20
45.7286
 11
-137.133
 21
44.65
  0
LINE
  8
0
 10
-137.133
 20
44.65
 11
-136.499
 21
43.699
  0
LINE
  8
0
 10
-136.499
 20
43.699
 11
-135.746
 21
42.9005
  0
LINE
  8
0
 10
-135.746
 20
42.9005
 11
-134.894
 21
42.2795
  0
LINE
  8
0
 10
-134.894
 20
42.2795
 11
-133.944
 21
41.8359
  0
LINE
  8
0
 10
-133.944
 20
41.8359
 11
-132.896
 21
41.5697
  0
LINE
  8
0
 10
-132.896
 20
41.5697
 11
-131.749
 21
41.481
  0
LINE
  8
0
 10
-131.749
 20
41.481
 11
-130.603
 21
41.5697
  0
LINE
  8
0
 10
132.187
 20
39.3535
 11
130.584
 21
39.6909
  0
LINE
  8
0
 10
130.584
 20
39.6909
 11
129.136
 21
40.2533
  0
LINE
  8
0
 10
129.136
 20
40.2533
 11
127.845
 21
41.0407
  0
LINE
  8
0
 10
127.845
 20
41.0407
 11
126.709
 21
42.053
  0
LINE
  8
0
 10
126.709
 20
42.053
 11
125.758
 21
43.2599
  0
LINE
  8
0
 10
125.758
 20
43.2599
 11
125.018
 21
44.6311
  0
LINE
  8
0
 10
125.018
 20
44.6311
 11
124.489
 21
46.1665
  0
LINE
  8
0
 10
124.489
 20
46.1665
 11
124.172
 21
47.8661
  0
LINE
  8
0
 10
124.172
 20
47.8661
 11
124.066
 21
49.73
  0
LINE
  8
0
 10
124.066
 20
49.73
 11
124.172
 21
51.5989
  0
LINE
  8
0
 10
124.172
 20
51.5989
 11
124.489
 21
53.3025
  0
LINE
  8
0
 10
124.489
 20
53.3025
 11
125.018
 21
54.8407
  0
LINE
  8
0
 10
125.018
 20
54.8407
 11
125.758
 21
56.2135
  0
LINE
  8
0
 10
125.758
 20
56.2135
 11
126.709
 21
57.421
  0
LINE
  8
0
 10
126.709
 20
57.421
 11
127.845
 21
58.4333
  0
LINE
  8
0
 10
127.845
 20
58.4333
 11
129.136
 21
59.2207
  0
LINE
  8
0
 10
129.136
 20
59.2207
 11
130.584
 21
59.7831
  0
LINE
  8
0
 10
130.584
 20
59.7831
 11
132.187
 21
60.1205
  0
LINE
  8
0
 10
132.187
 20
60.1205
 11
133.947
 21
60.233
  0
LINE
  8
0
 10
133.947
 20
60.233
 11
134.666
 21
60.2138
  0
LINE
  8
0
 10
134.666
 20
60.2138
 11
135.367
 21
60.1562
  0
LINE
  8
0
 10
135.367
 20
60.1562
 11
136.052
 21
60.0602
  0
LINE
  8
0
 10
136.052
 20
60.0602
 11
136.719
 21
59.9258
  0
LINE
  8
0
 10
136.719
 20
59.9258
 11
137.37
 21
59.753
  0
LINE
  8
0
 10
137.37
 20
59.753
 11
138.005
 21
59.5418
  0
LINE
  8
0
 10
138.005
 20
59.5418
 11
138.624
 21
59.2922
  0
LINE
  8
0
 10
138.624
 20
59.2922
 11
139.227
 21
59.0042
  0
LINE
  8
0
 10
139.227
 20
59.0042
 11
139.814
 21
58.6778
  0
LINE
  8
0
 10
139.814
 20
58.6778
 11
140.386
 21
58.313
  0
LINE
  8
0
 10
140.386
 20
58.313
 11
140.386
 21
55.433
  0
LINE
  8
0
 10
140.386
 20
55.433
 11
139.826
 21
55.9218
  0
LINE
  8
0
 10
139.826
 20
55.9218
 11
139.25
 21
56.3584
  0
LINE
  8
0
 10
139.25
 20
56.3584
 11
138.66
 21
56.743
  0
LINE
  8
0
 10
138.66
 20
56.743
 11
138.056
 21
57.0755
  0
LINE
  8
0
 10
138.056
 20
57.0755
 11
137.436
 21
57.356
  0
LINE
  8
0
 10
137.436
 20
57.356
 11
136.802
 21
57.5853
  0
LINE
  8
0
 10
136.802
 20
57.5853
 11
136.152
 21
57.7637
  0
LINE
  8
0
 10
136.152
 20
57.7637
 11
135.486
 21
57.8911
  0
LINE
  8
0
 10
135.486
 20
57.8911
 11
134.805
 21
57.9675
  0
LINE
  8
0
 10
134.805
 20
57.9675
 11
134.107
 21
57.993
  0
LINE
  8
0
 10
134.107
 20
57.993
 11
132.784
 21
57.908
  0
LINE
  8
0
 10
132.784
 20
57.908
 11
131.59
 21
57.6532
  0
LINE
  8
0
 10
131.59
 20
57.6532
 11
130.527
 21
57.2283
  0
LINE
  8
0
 10
130.527
 20
57.2283
 11
129.593
 21
56.6336
  0
LINE
  8
0
 10
129.593
 20
56.6336
 11
128.79
 21
55.869
  0
LINE
  8
0
 10
128.79
 20
55.869
 11
128.126
 21
54.9441
  0
LINE
  8
0
 10
128.126
 20
54.9441
 11
127.61
 21
53.8677
  0
LINE
  8
0
 10
127.61
 20
53.8677
 11
127.241
 21
52.6399
  0
LINE
  8
0
 10
127.241
 20
52.6399
 11
127.02
 21
51.2607
  0
LINE
  8
0
 10
127.02
 20
51.2607
 11
126.946
 21
49.73
  0
LINE
  8
0
 10
126.946
 20
49.73
 11
127.02
 21
48.2043
  0
LINE
  8
0
 10
127.02
 20
48.2043
 11
127.241
 21
46.8289
  0
LINE
  8
0
 10
127.241
 20
46.8289
 11
127.61
 21
45.6037
  0
LINE
  8
0
 10
127.61
 20
45.6037
 11
128.126
 21
44.5287
  0
LINE
  8
0
 10
128.126
 20
44.5287
 11
128.79
 21
43.604
  0
LINE
  8
0
 10
128.79
 20
43.604
 11
129.593
 21
42.8397
  0
LINE
  8
0
 10
129.593
 20
42.8397
 11
130.527
 21
42.2453
  0
LINE
  8
0
 10
130.527
 20
42.2453
 11
131.59
 21
41.8207
  0
LINE
  8
0
 10
131.59
 20
41.8207
 11
132.784
 21
41.5659
  0
LINE
  8
0
 10
132.784
 20
41.5659
 11
134.107
 21
41.481
  0
LINE
  8
0
 10
134.107
 20
41.481
 11
134.805
 21
41.5071
  0
LINE
  8
0
 10
134.805
 20
41.5071
 11
135.486
 21
41.5853
  0
LINE
  8
0
 10
135.486
 20
41.5853
 11
136.152
 21
41.7157
  0
LINE
  8
0
 10
136.152
 20
41.7157
 11
136.802
 21
41.8983
  0
LINE
  8
0
 10
136.802
 20
41.8983
 11
137.436
 21
42.133
  0
LINE
  8
0
 10
137.436
 20
42.133
 11
138.056
 21
42.4209
  0
LINE
  8
0
 10
138.056
 20
42.4209
 11
138.66
 21
42.762
  0
LINE
  8
0
 10
138.66
 20
42.762
 11
139.25
 21
43.1564
  0
LINE
  8
0
 10
139.25
 20
43.1564
 11
139.826
 21
43.604
  0
LINE
  8
0
 10
139.826
 20
43.604
 11
140.386
 21
44.105
  0
LINE
  8
0
 10
140.386
 20
44.105
 11
140.386
 21
41.225
  0
LINE
  8
0
 10
140.386
 20
41.225
 11
139.805
 21
40.8481
  0
LINE
  8
0
 10
139.805
 20
40.8481
 11
139.21
 21
40.5108
  0
LINE
  8
0
 10
139.21
 20
40.5108
 11
138.601
 21
40.2132
  0
LINE
  8
0
 10
138.601
 20
40.2132
 11
137.979
 21
39.9552
  0
LINE
  8
0
 10
137.979
 20
39.9552
 11
137.343
 21
39.737
  0
LINE
  8
0
 10
137.343
 20
39.737
 11
136.694
 21
39.5584
  0
LINE
  8
0
 10
136.694
 20
39.5584
 11
136.029
 21
39.4196
  0
LINE
  8
0
 10
136.029
 20
39.4196
 11
135.35
 21
39.3204
  0
LINE
  8
0
 10
135.35
 20
39.3204
 11
134.656
 21
39.2608
  0
LINE
  8
0
 10
134.656
 20
39.2608
 11
133.947
 21
39.241
  0
LINE
  8
0
 10
133.947
 20
39.241
 11
132.187
 21
39.3535
  0
LINE
  8
0
 10
-34.2027
 20
39.5094
 11
-35.5114
 21
39.7519
  0
LINE
  8
0
 10
-35.5114
 20
39.7519
 11
-36.67
 21
40.1561
  0
LINE
  8
0
 10
-36.67
 20
40.1561
 11
-37.6785
 21
40.722
  0
LINE
  8
0
 10
-37.6785
 20
40.722
 11
-38.5367
 21
41.4495
  0
LINE
  8
0
 10
-38.5367
 20
41.4495
 11
-39.2416
 21
42.3355
  0
LINE
  8
0
 10
-39.2416
 20
42.3355
 11
-39.7899
 21
43.3765
  0
LINE
  8
0
 10
-39.7899
 20
43.3765
 11
-40.1815
 21
44.5728
  0
LINE
  8
0
 10
-40.1815
 20
44.5728
 11
-40.4164
 21
45.9241
  0
LINE
  8
0
 10
-40.4164
 20
45.9241
 11
-40.4948
 21
47.4305
  0
LINE
  8
0
 10
-40.4948
 20
47.4305
 11
-40.4948
 21
60.0365
  0
LINE
  8
0
 10
-40.4948
 20
60.0365
 11
-37.7428
 21
60.0365
  0
LINE
  8
0
 10
-37.7428
 20
60.0365
 11
-37.7428
 21
47.7685
  0
LINE
  8
0
 10
-37.7428
 20
47.7685
 11
-37.6956
 21
46.5429
  0
LINE
  8
0
 10
-37.6956
 20
46.5429
 11
-37.5543
 21
45.4628
  0
LINE
  8
0
 10
-37.5543
 20
45.4628
 11
-37.3187
 21
44.5282
  0
LINE
  8
0
 10
-37.3187
 20
44.5282
 11
-36.9888
 21
43.7391
  0
LINE
  8
0
 10
-36.9888
 20
43.7391
 11
-36.5647
 21
43.0955
  0
LINE
  8
0
 10
-36.5647
 20
43.0955
 11
-36.0346
 21
42.5818
  0
LINE
  8
0
 10
-36.0346
 20
42.5818
 11
-35.3875
 21
42.1822
  0
LINE
  8
0
 10
-35.3875
 20
42.1822
 11
-34.6233
 21
41.8968
  0
LINE
  8
0
 10
-34.6233
 20
41.8968
 11
-33.742
 21
41.7256
  0
LINE
  8
0
 10
-33.742
 20
41.7256
 11
-32.7438
 21
41.6685
  0
LINE
  8
0
 10
-32.7438
 20
41.6685
 11
-31.7506
 21
41.7256
  0
LINE
  8
0
 10
-31.7506
 20
41.7256
 11
-30.8734
 21
41.8968
  0
LINE
  8
0
 10
-30.8734
 20
41.8968
 11
-30.1122
 21
42.1822
  0
LINE
  8
0
 10
-30.1122
 20
42.1822
 11
-29.467
 21
42.5818
  0
LINE
  8
0
 10
-29.467
 20
42.5818
 11
-28.9378
 21
43.0955
  0
LINE
  8
0
 10
-28.9378
 20
43.0955
 11
-28.5133
 21
43.7391
  0
LINE
  8
0
 10
-28.5133
 20
43.7391
 11
-28.1832
 21
44.5282
  0
LINE
  8
0
 10
-28.1832
 20
44.5282
 11
-27.9474
 21
45.4628
  0
LINE
  8
0
 10
-27.9474
 20
45.4628
 11
-27.8059
 21
46.5429
  0
LINE
  8
0
 10
-27.8059
 20
46.5429
 11
-27.7588
 21
47.7685
  0
LINE
  8
0
 10
-27.7588
 20
47.7685
 11
-27.7588
 21
60.0365
  0
LINE
  8
0
 10
-27.7588
 20
60.0365
 11
-25.0068
 21
60.0365
  0
LINE
  8
0
 10
-25.0068
 20
60.0365
 11
-25.0068
 21
47.4305
  0
LINE
  8
0
 10
-25.0068
 20
47.4305
 11
-25.0851
 21
45.9241
  0
LINE
  8
0
 10
-25.0851
 20
45.9241
 11
-25.32
 21
44.5728
  0
LINE
  8
0
 10
-25.32
 20
44.5728
 11
-25.7116
 21
43.3765
  0
LINE
  8
0
 10
-25.7116
 20
43.3765
 11
-26.2599
 21
42.3355
  0
LINE
  8
0
 10
-26.2599
 20
42.3355
 11
-26.9648
 21
41.4495
  0
LINE
  8
0
 10
-26.9648
 20
41.4495
 11
-27.8225
 21
40.722
  0
LINE
  8
0
 10
-27.8225
 20
40.722
 11
-28.8292
 21
40.1561
  0
LINE
  8
0
 10
-28.8292
 20
40.1561
 11
-29.985
 21
39.7519
  0
LINE
  8
0
 10
-29.985
 20
39.7519
 11
-31.2899
 21
39.5094
  0
LINE
  8
0
 10
-31.2899
 20
39.5094
 11
-32.7438
 21
39.4285
  0
LINE
  8
0
 10
-32.7438
 20
39.4285
 11
-34.2027
 21
39.5094
  0
LINE
  8
0
 10
157.554
 20
39.625
 11
157.554
 21
59.849
  0
LINE
  8
0
 10
157.554
 20
59.849
 11
160.306
 21
59.849
  0
LINE
  8
0
 10
160.306
 20
59.849
 11
160.306
 21
51.593
  0
LINE
  8
0
 10
160.306
 20
51.593
 11
170.226
 21
51.593
  0
LINE
  8
0
 10
170.226
 20
51.593
 11
170.226
 21
59.849
  0
LINE
  8
0
 10
170.226
 20
59.849
 11
172.978
 21
59.849
  0
LINE
  8
0
 10
172.978
 20
59.849
 11
172.978
 21
39.625
  0
LINE
  8
0
 10
172.978
 20
39.625
 11
170.226
 21
39.625
  0
LINE
  8
0
 10
170.226
 20
39.625
 11
170.226
 21
49.289
  0
LINE
  8
0
 10
170.226
 20
49.289
 11
160.306
 21
49.289
  0
LINE
  8
0
 10
160.306
 20
49.289
 11
160.306
 21
39.625
  0
LINE
  8
0
 10
160.306
 20
39.625
 11
157.554
 21
39.625
  0
LINE
  8
0
 10
89.9142
 20
39.625
 11
97.6472
 21
59.849
  0
LINE
  8
0
 10
97.6472
 20
59.849
 11
100.754
 21
59.849
  0
LINE
  8
0
 10
100.754
 20
59.849
 11
108.474
 21
39.625
  0
LINE
  8
0
 10
108.474
 20
39.625
 11
105.625
 21
39.625
  0
LINE
  8
0
 10
105.625
 20
39.625
 11
103.78
 21
44.809
  0
LINE
  8
0
 10
103.78
 20
44.809
 11
94.6492
 21
44.809
  0
LINE
  8
0
 10
94.6492
 20
44.809
 11
92.8042
 21
39.625
  0
LINE
  8
0
 10
92.8042
 20
39.625
 11
89.9142
 21
39.625
  0
LINE
  8
0
 10
99.1942
 20
57.158
 11
95.4772
 21
47.113
  0
LINE
  8
0
 10
95.4772
 20
47.113
 11
102.925
 21
47.113
  0
LINE
  8
0
 10
102.925
 20
47.113
 11
99.1942
 21
57.158
  0
LINE
  8
0
 10
-7.39349
 20
39.625
 11
-7.39349
 21
59.849
  0
LINE
  8
0
 10
-7.39349
 20
59.849
 11
-3.6835
 21
59.849
  0
LINE
  8
0
 10
-3.6835
 20
59.849
 11
5.21448
 21
42.93
  0
LINE
  8
0
 10
5.21448
 20
42.93
 11
5.21448
 21
59.849
  0
LINE
  8
0
 10
5.21448
 20
59.849
 11
7.90248
 21
59.849
  0
LINE
  8
0
 10
7.90248
 20
59.849
 11
7.90248
 21
39.625
  0
LINE
  8
0
 10
7.90248
 20
39.625
 11
4.19249
 21
39.625
  0
LINE
  8
0
 10
4.19249
 20
39.625
 11
-4.70551
 21
56.544
  0
LINE
  8
0
 10
-4.70551
 20
56.544
 11
-4.70551
 21
39.625
  0
LINE
  8
0
 10
-4.70551
 20
39.625
 11
-7.39349
 21
39.625
  0
LINE
  8
0
 10
-166.353
 20
39.625
 11
-174.086
 21
59.849
  0
LINE
  8
0
 10
-174.086
 20
59.849
 11
-171.223
 21
59.849
  0
LINE
  8
0
 10
-171.223
 20
59.849
 11
-164.806
 21
42.822
  0
LINE
  8
0
 10
-164.806
 20
42.822
 11
-158.375
 21
59.849
  0
LINE
  8
0
 10
-158.375
 20
59.849
 11
-155.526
 21
59.849
  0
LINE
  8
0
 10
-155.526
 20
59.849
 11
-163.246
 21
39.625
  0
LINE
  8
0
 10
-163.246
 20
39.625
 11
-166.353
 21
39.625
  0
LINE
  8
0
 10
58.6065
 20
39.625
 11
58.6065
 21
59.849
  0
LINE
  8
0
 10
58.6065
 20
59.849
 11
62.3165
 21
59.849
  0
LINE
  8
0
 10
62.3165
 20
59.849
 11
71.2145
 21
42.93
  0
LINE
  8
0
 10
71.2145
 20
42.93
 11
71.2145
 21
59.849
  0
LINE
  8
0
 10
71.2145
 20
59.849
 11
73.9025
 21
59.849
  0
LINE
  8
0
 10
73.9025
 20
59.849
 11
73.9025
 21
39.625
  0
LINE
  8
0
 10
73.9025
 20
39.625
 11
70.1925
 21
39.625
  0
LINE
  8
0
 10
70.1925
 20
39.625
 11
61.2945
 21
56.544
  0
LINE
  8
0
 10
61.2945
 20
56.544
 11
61.2945
 21
39.625
  0
LINE
  8
0
 10
61.2945
 20
39.625
 11
58.6065
 21
39.625
  0
LINE
  8
0
 10
26.8585
 20
39.625
 11
26.8585
 21
59.849
  0
LINE
  8
0
 10
26.8585
 20
59.849
 11
29.6105
 21
59.849
  0
LINE
  8
0
 10
29.6105
 20
59.849
 11
29.6105
 21
51.302
  0
LINE
  8
0
 10
29.6105
 20
51.302
 11
38.6934
 21
59.849
  0
LINE
  8
0
 10
38.6934
 20
59.849
 11
42.2184
 21
59.849
  0
LINE
  8
0
 10
42.2184
 20
59.849
 11
32.1725
 21
50.421
  0
LINE
  8
0
 10
32.1725
 20
50.421
 11
42.9224
 21
39.625
  0
LINE
  8
0
 10
42.9224
 20
39.625
 11
39.3204
 21
39.625
  0
LINE
  8
0
 10
39.3204
 20
39.625
 11
29.6105
 21
49.364
  0
LINE
  8
0
 10
29.6105
 20
49.364
 11
29.6105
 21
39.625
  0
LINE
  8
0
 10
29.6105
 20
39.625
 11
26.8585
 21
39.625
  0
LINE
  8
0
 10
-105.671
 20
39.625
 11
-105.671
 21
59.849
  0
LINE
  8
0
 10
-105.671
 20
59.849
 11
-99.4843
 21
59.849
  0
LINE
  8
0
 10
-99.4843
 20
59.849
 11
-98.1699
 21
59.7908
  0
LINE
  8
0
 10
-98.1699
 20
59.7908
 11
-96.9962
 21
59.6162
  0
LINE
  8
0
 10
-96.9962
 20
59.6162
 11
-95.9632
 21
59.3252
  0
LINE
  8
0
 10
-95.9632
 20
59.3252
 11
-95.0709
 21
58.9178
  0
LINE
  8
0
 10
-95.0709
 20
58.9178
 11
-94.3194
 21
58.394
  0
LINE
  8
0
 10
-94.3194
 20
58.394
 11
-93.7059
 21
57.7531
  0
LINE
  8
0
 10
-93.7059
 20
57.7531
 11
-93.2288
 21
56.9935
  0
LINE
  8
0
 10
-93.2288
 20
56.9935
 11
-92.888
 21
56.1153
  0
LINE
  8
0
 10
-92.888
 20
56.1153
 11
-92.6835
 21
55.1185
  0
LINE
  8
0
 10
-92.6835
 20
55.1185
 11
-92.6153
 21
54.003
  0
LINE
  8
0
 10
-92.6153
 20
54.003
 11
-92.6508
 21
53.2623
  0
LINE
  8
0
 10
-92.6508
 20
53.2623
 11
-92.7571
 21
52.5737
  0
LINE
  8
0
 10
-92.7571
 20
52.5737
 11
-92.9343
 21
51.9373
  0
LINE
  8
0
 10
-92.9343
 20
51.9373
 11
-93.1824
 21
51.3531
  0
LINE
  8
0
 10
-93.1824
 20
51.3531
 11
-93.5013
 21
50.821
  0
LINE
  8
0
 10
-93.5013
 20
50.821
 11
-93.8875
 21
50.3464
  0
LINE
  8
0
 10
-93.8875
 20
50.3464
 11
-94.3382
 21
49.9338
  0
LINE
  8
0
 10
-94.3382
 20
49.9338
 11
-94.8531
 21
49.5832
  0
LINE
  8
0
 10
-94.8531
 20
49.5832
 11
-95.4325
 21
49.2946
  0
LINE
  8
0
 10
-95.4325
 20
49.2946
 11
-96.0764
 21
49.068
  0
LINE
  8
0
 10
-96.0764
 20
49.068
 11
-95.7267
 21
48.9222
  0
LINE
  8
0
 10
-95.7267
 20
48.9222
 11
-95.3808
 21
48.7226
  0
LINE
  8
0
 10
-95.3808
 20
48.7226
 11
-95.0388
 21
48.469
  0
LINE
  8
0
 10
-95.0388
 20
48.469
 11
-94.7007
 21
48.1615
  0
LINE
  8
0
 10
-94.7007
 20
48.1615
 11
-94.3663
 21
47.8
  0
LINE
  8
0
 10
-94.3663
 20
47.8
 11
-94.0333
 21
47.3824
  0
LINE
  8
0
 10
-94.0333
 20
47.3824
 11
-93.6998
 21
46.9066
  0
LINE
  8
0
 10
-93.6998
 20
46.9066
 11
-93.3658
 21
46.3724
  0
LINE
  8
0
 10
-93.3658
 20
46.3724
 11
-93.0313
 21
45.7798
  0
LINE
  8
0
 10
-93.0313
 20
45.7798
 11
-92.6964
 21
45.129
  0
LINE
  8
0
 10
-92.6964
 20
45.129
 11
-89.9274
 21
39.625
  0
LINE
  8
0
 10
-89.9274
 20
39.625
 11
-92.8584
 21
39.625
  0
LINE
  8
0
 10
-92.8584
 20
39.625
 11
-95.4413
 21
44.792
  0
LINE
  8
0
 10
-95.4413
 20
44.792
 11
-95.8393
 21
45.5467
  0
LINE
  8
0
 10
-95.8393
 20
45.5467
 11
-96.2324
 21
46.1925
  0
LINE
  8
0
 10
-96.2324
 20
46.1925
 11
-96.6206
 21
46.7293
  0
LINE
  8
0
 10
-96.6206
 20
46.7293
 11
-97.0039
 21
47.1571
  0
LINE
  8
0
 10
-97.0039
 20
47.1571
 11
-97.3824
 21
47.476
  0
LINE
  8
0
 10
-97.3824
 20
47.476
 11
-97.7853
 21
47.714
  0
LINE
  8
0
 10
-97.7853
 20
47.714
 11
-98.243
 21
47.899
  0
LINE
  8
0
 10
-98.243
 20
47.899
 11
-98.7554
 21
48.0312
  0
LINE
  8
0
 10
-98.7554
 20
48.0312
 11
-99.3225
 21
48.1106
  0
LINE
  8
0
 10
-99.3225
 20
48.1106
 11
-99.9443
 21
48.137
  0
LINE
  8
0
 10
-99.9443
 20
48.137
 11
-102.919
 21
48.137
  0
LINE
  8
0
 10
-102.919
 20
48.137
 11
-102.919
 21
39.625
  0
LINE
  8
0
 10
-102.919
 20
39.625
 11
-105.671
 21
39.625
  0
LINE
  8
0
 10
-98.7334
 20
50.4138
 11
-98.0599
 21
50.5244
  0
LINE
  8
0
 10
-98.0599
 20
50.5244
 11
-97.4637
 21
50.7086
  0
LINE
  8
0
 10
-97.4637
 20
50.7086
 11
-96.9448
 21
50.9664
  0
LINE
  8
0
 10
-96.9448
 20
50.9664
 11
-96.5033
 21
51.298
  0
LINE
  8
0
 10
-96.5033
 20
51.298
 11
-96.1405
 21
51.7011
  0
LINE
  8
0
 10
-96.1405
 20
51.7011
 11
-95.8582
 21
52.1735
  0
LINE
  8
0
 10
-95.8582
 20
52.1735
 11
-95.6566
 21
52.7153
  0
LINE
  8
0
 10
-95.6566
 20
52.7153
 11
-95.5357
 21
53.3265
  0
LINE
  8
0
 10
-95.5357
 20
53.3265
 11
-95.4953
 21
54.007
  0
LINE
  8
0
 10
-95.4953
 20
54.007
 11
-95.5357
 21
54.6866
  0
LINE
  8
0
 10
-95.5357
 20
54.6866
 11
-95.6566
 21
55.2958
  0
LINE
  8
0
 10
-95.6566
 20
55.2958
 11
-95.8582
 21
55.8346
  0
LINE
  8
0
 10
-95.8582
 20
55.8346
 11
-96.1405
 21
56.303
  0
LINE
  8
0
 10
-96.1405
 20
56.303
 11
-96.5033
 21
56.701
  0
LINE
  8
0
 10
-96.5033
 20
56.701
 11
-96.9448
 21
57.0279
  0
LINE
  8
0
 10
-96.9448
 20
57.0279
 11
-97.4637
 21
57.2821
  0
LINE
  8
0
 10
-97.4637
 20
57.2821
 11
-98.0599
 21
57.4637
  0
LINE
  8
0
 10
-98.0599
 20
57.4637
 11
-98.7334
 21
57.5727
  0
LINE
  8
0
 10
-98.7334
 20
57.5727
 11
-99.4843
 21
57.609
  0
LINE
  8
0
 10
-99.4843
 20
57.609
 11
-102.919
 21
57.609
  0
LINE
  8
0
 10
-102.919
 20
57.609
 11
-102.919
 21
50.377
  0
LINE
  8
0
 10
-102.919
 20
50.377
 11
-99.4843
 21
50.377
  0
LINE
  8
0
 10
-99.4843
 20
50.377
 11
-98.7334
 21
50.4138
  0
LINE
  8
0
 10
-71.0493
 20
39.625
 11
-71.0493
 21
59.849
  0
LINE
  8
0
 10
-71.0493
 20
59.849
 11
-59.4013
 21
59.849
  0
LINE
  8
0
 10
-59.4013
 20
59.849
 11
-59.4013
 21
57.545
  0
LINE
  8
0
 10
-59.4013
 20
57.545
 11
-68.2973
 21
57.545
  0
LINE
  8
0
 10
-68.2973
 20
57.545
 11
-68.2973
 21
51.593
  0
LINE
  8
0
 10
-68.2973
 20
51.593
 11
-60.2973
 21
51.593
  0
LINE
  8
0
 10
-60.2973
 20
51.593
 11
-60.2973
 21
49.289
  0
LINE
  8
0
 10
-60.2973
 20
49.289
 11
-68.2973
 21
49.289
  0
LINE
  8
0
 10
-68.2973
 20
49.289
 11
-68.2973
 21
39.625
  0
LINE
  8
0
 10
-68.2973
 20
39.625
 11
-71.0493
 21
39.625
  0
LINE
  8
0
 10
95.2173
 20
26.9045
 11
95.2173
 21
29.6565
  0
LINE
  8
0
 10
95.2173
 20
29.6565
 11
97.9693
 21
29.6565
  0
LINE
  8
0
 10
97.9693
 20
29.6565
 11
97.9693
 21
26.9045
  0
LINE
  8
0
 10
97.9693
 20
26.9045
 11
95.2173
 21
26.9045
  0
LINE
  8
0
 10
100.529
 20
26.9045
 11
100.529
 21
29.6565
  0
LINE
  8
0
 10
100.529
 20
29.6565
 11
103.281
 21
29.6565
  0
LINE
  8
0
 10
103.281
 20
29.6565
 11
103.281
 21
26.9045
  0
LINE
  8
0
 10
103.281
 20
26.9045
 11
100.529
 21
26.9045
  0
LINE
  8
0
 10
-5.81732
 20
6.625
 11
-5.81732
 21
26.849
  0
LINE
  8
0
 10
-5.81732
 20
26.849
 11
6.98265
 21
26.849
  0
LINE
  8
0
 10
6.98265
 20
26.849
 11
6.98265
 21
24.545
  0
LINE
  8
0
 10
6.98265
 20
24.545
 11
-3.06532
 21
24.545
  0
LINE
  8
0
 10
-3.06532
 20
24.545
 11
-3.06532
 21
18.593
  0
LINE
  8
0
 10
-3.06532
 20
18.593
 11
6.59866
 21
18.593
  0
LINE
  8
0
 10
6.59866
 20
18.593
 11
6.59866
 21
16.289
  0
LINE
  8
0
 10
6.59866
 20
16.289
 11
-3.06532
 21
16.289
  0
LINE
  8
0
 10
-3.06532
 20
16.289
 11
-3.06532
 21
8.929
  0
LINE
  8
0
 10
-3.06532
 20
8.929
 11
7.23866
 21
8.929
  0
LINE
  8
0
 10
7.23866
 20
8.929
 11
7.23866
 21
6.625
  0
LINE
  8
0
 10
7.23866
 20
6.625
 11
-5.81732
 21
6.625
  0
LINE
  8
0
 10
124.607
 20
6.625
 11
124.607
 21
26.849
  0
LINE
  8
0
 10
124.607
 20
26.849
 11
128.316
 21
26.849
  0
LINE
  8
0
 10
128.316
 20
26.849
 11
137.214
 21
9.93001
  0
LINE
  8
0
 10
137.214
 20
9.93001
 11
137.214
 21
26.849
  0
LINE
  8
0
 10
137.214
 20
26.849
 11
139.902
 21
26.849
  0
LINE
  8
0
 10
139.902
 20
26.849
 11
139.902
 21
6.625
  0
LINE
  8
0
 10
139.902
 20
6.625
 11
136.192
 21
6.625
  0
LINE
  8
0
 10
136.192
 20
6.625
 11
127.294
 21
23.544
  0
LINE
  8
0
 10
127.294
 20
23.544
 11
127.294
 21
6.625
  0
LINE
  8
0
 10
127.294
 20
6.625
 11
124.607
 21
6.625
  0
LINE
  8
0
 10
159.951
 20
6.625
 11
159.951
 21
26.849
  0
LINE
  8
0
 10
159.951
 20
26.849
 11
171.599
 21
26.849
  0
LINE
  8
0
 10
171.599
 20
26.849
 11
171.599
 21
24.545
  0
LINE
  8
0
 10
171.599
 20
24.545
 11
162.703
 21
24.545
  0
LINE
  8
0
 10
162.703
 20
24.545
 11
162.703
 21
18.593
  0
LINE
  8
0
 10
162.703
 20
18.593
 11
170.703
 21
18.593
  0
LINE
  8
0
 10
170.703
 20
18.593
 11
170.703
 21
16.289
  0
LINE
  8
0
 10
170.703
 20
16.289
 11
162.703
 21
16.289
  0
LINE
  8
0
 10
162.703
 20
16.289
 11
162.703
 21
6.625
  0
LINE
  8
0
 10
162.703
 20
6.625
 11
159.951
 21
6.625
  0
LINE
  8
0
 10
60.9507
 20
6.625
 11
60.9507
 21
26.849
  0
LINE
  8
0
 10
60.9507
 20
26.849
 11
72.5987
 21
26.849
  0
LINE
  8
0
 10
72.5987
 20
26.849
 11
72.5987
 21
24.545
  0
LINE
  8
0
 10
72.5987
 20
24.545
 11
63.7027
 21
24.545
  0
LINE
  8
0
 10
63.7027
 20
24.545
 11
63.7027
 21
18.593
  0
LINE
  8
0
 10
63.7027
 20
18.593
 11
71.7027
 21
18.593
  0
LINE
  8
0
 10
71.7027
 20
18.593
 11
71.7027
 21
16.289
  0
LINE
  8
0
 10
71.7027
 20
16.289
 11
63.7027
 21
16.289
  0
LINE
  8
0
 10
63.7027
 20
16.289
 11
63.7027
 21
6.625
  0
LINE
  8
0
 10
63.7027
 20
6.625
 11
60.9507
 21
6.625
  0
LINE
  8
0
 10
28.1959
 20
6.625
 11
28.1959
 21
26.849
  0
LINE
  8
0
 10
28.1959
 20
26.849
 11
30.9479
 21
26.849
  0
LINE
  8
0
 10
30.9479
 20
26.849
 11
30.9479
 21
8.929
  0
LINE
  8
0
 10
30.9479
 20
8.929
 11
40.8038
 21
8.929
  0
LINE
  8
0
 10
40.8038
 20
8.929
 11
40.8038
 21
6.625
  0
LINE
  8
0
 10
40.8038
 20
6.625
 11
28.1959
 21
6.625
  0
LINE
  8
0
 10
-172.446
 20
6.625
 11
-172.446
 21
26.849
  0
LINE
  8
0
 10
-172.446
 20
26.849
 11
-169.694
 21
26.849
  0
LINE
  8
0
 10
-169.694
 20
26.849
 11
-169.694
 21
18.593
  0
LINE
  8
0
 10
-169.694
 20
18.593
 11
-159.774
 21
18.593
  0
LINE
  8
0
 10
-159.774
 20
18.593
 11
-159.774
 21
26.849
  0
LINE
  8
0
 10
-159.774
 20
26.849
 11
-157.022
 21
26.849
  0
LINE
  8
0
 10
-157.022
 20
26.849
 11
-157.022
 21
6.625
  0
LINE
  8
0
 10
-157.022
 20
6.625
 11
-159.774
 21
6.625
  0
LINE
  8
0
 10
-159.774
 20
6.625
 11
-159.774
 21
16.289
  0
LINE
  8
0
 10
-159.774
 20
16.289
 11
-169.694
 21
16.289
  0
LINE
  8
0
 10
-169.694
 20
16.289
 11
-169.694
 21
6.625
  0
LINE
  8
0
 10
-169.694
 20
6.625
 11
-172.446
 21
6.625
  0
LINE
  8
0
 10
-42.0858
 20
6.625
 11
-34.3528
 21
26.849
  0
LINE
  8
0
 10
-34.3528
 20
26.849
 11
-31.2458
 21
26.849
  0
LINE
  8
0
 10
-31.2458
 20
26.849
 11
-23.5258
 21
6.625
  0
LINE
  8
0
 10
-23.5258
 20
6.625
 11
-26.3748
 21
6.625
  0
LINE
  8
0
 10
-26.3748
 20
6.625
 11
-28.2198
 21
11.809
  0
LINE
  8
0
 10
-28.2198
 20
11.809
 11
-37.3508
 21
11.809
  0
LINE
  8
0
 10
-37.3508
 20
11.809
 11
-39.1958
 21
6.625
  0
LINE
  8
0
 10
-39.1958
 20
6.625
 11
-42.0858
 21
6.625
  0
LINE
  8
0
 10
-32.8058
 20
24.158
 11
-36.5228
 21
14.113
  0
LINE
  8
0
 10
-36.5228
 20
14.113
 11
-29.0748
 21
14.113
  0
LINE
  8
0
 10
-29.0748
 20
14.113
 11
-32.8058
 21
24.158
  0
LINE
  8
0
 10
-72.5522
 20
6.625
 11
-72.5522
 21
26.849
  0
LINE
  8
0
 10
-72.5522
 20
26.849
 11
-65.5572
 21
26.849
  0
LINE
  8
0
 10
-65.5572
 20
26.849
 11
-64.3642
 21
26.7971
  0
LINE
  8
0
 10
-64.3642
 20
26.7971
 11
-63.286
 21
26.6413
  0
LINE
  8
0
 10
-63.286
 20
26.6413
 11
-62.3226
 21
26.3817
  0
LINE
  8
0
 10
-62.3226
 20
26.3817
 11
-61.474
 21
26.0183
  0
LINE
  8
0
 10
-61.474
 20
26.0183
 11
-60.7402
 21
25.551
  0
LINE
  8
0
 10
-60.7402
 20
25.551
 11
-60.1311
 21
24.9879
  0
LINE
  8
0
 10
-60.1311
 20
24.9879
 11
-59.6573
 21
24.3372
  0
LINE
  8
0
 10
-59.6573
 20
24.3372
 11
-59.3189
 21
23.5988
  0
LINE
  8
0
 10
-59.3189
 20
23.5988
 11
-59.1159
 21
22.7728
  0
LINE
  8
0
 10
-59.1159
 20
22.7728
 11
-59.0482
 21
21.859
  0
LINE
  8
0
 10
-59.0482
 20
21.859
 11
-59.0829
 21
21.1484
  0
LINE
  8
0
 10
-59.0829
 20
21.1484
 11
-59.1869
 21
20.4984
  0
LINE
  8
0
 10
-59.1869
 20
20.4984
 11
-59.3603
 21
19.9088
  0
LINE
  8
0
 10
-59.3603
 20
19.9088
 11
-59.6031
 21
19.3796
  0
LINE
  8
0
 10
-59.6031
 20
19.3796
 11
-59.9152
 21
18.911
  0
LINE
  8
0
 10
-59.9152
 20
18.911
 11
-60.2945
 21
18.506
  0
LINE
  8
0
 10
-60.2945
 20
18.506
 11
-60.7389
 21
18.167
  0
LINE
  8
0
 10
-60.7389
 20
18.167
 11
-61.2483
 21
17.894
  0
LINE
  8
0
 10
-61.2483
 20
17.894
 11
-61.8227
 21
17.687
  0
LINE
  8
0
 10
-61.8227
 20
17.687
 11
-62.4622
 21
17.546
  0
LINE
  8
0
 10
-62.4622
 20
17.546
 11
-61.6922
 21
17.3347
  0
LINE
  8
0
 10
-61.6922
 20
17.3347
 11
-60.9942
 21
17.0479
  0
LINE
  8
0
 10
-60.9942
 20
17.0479
 11
-60.3682
 21
16.6857
  0
LINE
  8
0
 10
-60.3682
 20
16.6857
 11
-59.8142
 21
16.2481
  0
LINE
  8
0
 10
-59.8142
 20
16.2481
 11
-59.3322
 21
15.735
  0
LINE
  8
0
 10
-59.3322
 20
15.735
 11
-58.9305
 21
15.1568
  0
LINE
  8
0
 10
-58.9305
 20
15.1568
 11
-58.618
 21
14.5238
  0
LINE
  8
0
 10
-58.618
 20
14.5238
 11
-58.3948
 21
13.836
  0
LINE
  8
0
 10
-58.3948
 20
13.836
 11
-58.2608
 21
13.0934
  0
LINE
  8
0
 10
-58.2608
 20
13.0934
 11
-58.2162
 21
12.296
  0
LINE
  8
0
 10
-58.2162
 20
12.296
 11
-58.2898
 21
11.2598
  0
LINE
  8
0
 10
-58.2898
 20
11.2598
 11
-58.5105
 21
10.3224
  0
LINE
  8
0
 10
-58.5105
 20
10.3224
 11
-58.8783
 21
9.48381
  0
LINE
  8
0
 10
-58.8783
 20
9.48381
 11
-59.3932
 21
8.744
  0
LINE
  8
0
 10
-59.3932
 20
8.744
 11
-60.0552
 21
8.10301
  0
LINE
  8
0
 10
-60.0552
 20
8.10301
 11
-60.8526
 21
7.57092
  0
LINE
  8
0
 10
-60.8526
 20
7.57092
 11
-61.7744
 21
7.15709
  0
LINE
  8
0
 10
-61.7744
 20
7.15709
 11
-62.8206
 21
6.86148
  0
LINE
  8
0
 10
-62.8206
 20
6.86148
 11
-63.9912
 21
6.68413
  0
LINE
  8
0
 10
-63.9912
 20
6.68413
 11
-65.2862
 21
6.625
  0
LINE
  8
0
 10
-65.2862
 20
6.625
 11
-72.5522
 21
6.625
  0
LINE
  8
0
 10
-65
 20
18.559
 11
-64.3226
 21
18.649
  0
LINE
  8
0
 10
-64.3226
 20
18.649
 11
-63.7268
 21
18.799
  0
LINE
  8
0
 10
-63.7268
 20
18.799
 11
-63.2126
 21
19.009
  0
LINE
  8
0
 10
-63.2126
 20
19.009
 11
-62.7802
 21
19.279
  0
LINE
  8
0
 10
-62.7802
 20
19.279
 11
-62.4274
 21
19.6106
  0
LINE
  8
0
 10
-62.4274
 20
19.6106
 11
-62.153
 21
20.0054
  0
LINE
  8
0
 10
-62.153
 20
20.0054
 11
-61.957
 21
20.4634
  0
LINE
  8
0
 10
-61.957
 20
20.4634
 11
-61.8394
 21
20.9846
  0
LINE
  8
0
 10
-61.8394
 20
20.9846
 11
-61.8002
 21
21.569
  0
LINE
  8
0
 10
-61.8002
 20
21.569
 11
-61.8394
 21
22.149
  0
LINE
  8
0
 10
-61.8394
 20
22.149
 11
-61.957
 21
22.6672
  0
LINE
  8
0
 10
-61.957
 20
22.6672
 11
-62.153
 21
23.1238
  0
LINE
  8
0
 10
-62.153
 20
23.1238
 11
-62.4274
 21
23.5188
  0
LINE
  8
0
 10
-62.4274
 20
23.5188
 11
-62.7802
 21
23.852
  0
LINE
  8
0
 10
-62.7802
 20
23.852
 11
-63.2126
 21
24.1245
  0
LINE
  8
0
 10
-63.2126
 20
24.1245
 11
-63.7268
 21
24.3365
  0
LINE
  8
0
 10
-63.7268
 20
24.3365
 11
-64.3226
 21
24.4879
  0
LINE
  8
0
 10
-64.3226
 20
24.4879
 11
-65
 21
24.5787
  0
LINE
  8
0
 10
-65
 20
24.5787
 11
-65.7592
 21
24.609
  0
LINE
  8
0
 10
-65.7592
 20
24.609
 11
-69.8002
 21
24.609
  0
LINE
  8
0
 10
-69.8002
 20
24.609
 11
-69.8002
 21
18.529
  0
LINE
  8
0
 10
-69.8002
 20
18.529
 11
-65.7592
 21
18.529
  0
LINE
  8
0
 10
-65.7592
 20
18.529
 11
-65
 21
18.559
  0
LINE
  8
0
 10
-64.5863
 20
8.90164
 11
-63.8419
 21
9.01157
  0
LINE
  8
0
 10
-63.8419
 20
9.01157
 11
-63.1889
 21
9.19476
  0
LINE
  8
0
 10
-63.1889
 20
9.19476
 11
-62.6273
 21
9.45125
  0
LINE
  8
0
 10
-62.6273
 20
9.45125
 11
-62.1572
 21
9.78101
  0
LINE
  8
0
 10
-62.1572
 20
9.78101
 11
-61.7753
 21
10.1862
  0
LINE
  8
0
 10
-61.7753
 20
10.1862
 11
-61.4782
 21
10.6692
  0
LINE
  8
0
 10
-61.4782
 20
10.6692
 11
-61.266
 21
11.2298
  0
LINE
  8
0
 10
-61.266
 20
11.2298
 11
-61.1386
 21
11.868
  0
LINE
  8
0
 10
-61.1386
 20
11.868
 11
-61.0962
 21
12.584
  0
LINE
  8
0
 10
-61.0962
 20
12.584
 11
-61.1386
 21
13.3041
  0
LINE
  8
0
 10
-61.1386
 20
13.3041
 11
-61.266
 21
13.9443
  0
LINE
  8
0
 10
-61.266
 20
13.9443
 11
-61.4782
 21
14.5047
  0
LINE
  8
0
 10
-61.4782
 20
14.5047
 11
-61.7753
 21
14.9853
  0
LINE
  8
0
 10
-61.7753
 20
14.9853
 11
-62.1572
 21
15.386
  0
LINE
  8
0
 10
-62.1572
 20
15.386
 11
-62.6273
 21
15.7111
  0
LINE
  8
0
 10
-62.6273
 20
15.7111
 11
-63.1889
 21
15.9639
  0
LINE
  8
0
 10
-63.1889
 20
15.9639
 11
-63.8419
 21
16.1445
  0
LINE
  8
0
 10
-63.8419
 20
16.1445
 11
-64.5863
 21
16.2529
  0
LINE
  8
0
 10
-64.5863
 20
16.2529
 11
-65.4222
 21
16.289
  0
LINE
  8
0
 10
-65.4222
 20
16.289
 11
-69.8002
 21
16.289
  0
LINE
  8
0
 10
-69.8002
 20
16.289
 11
-69.8002
 21
8.86501
  0
LINE
  8
0
 10
-69.8002
 20
8.86501
 11
-65.4222
 21
8.86501
  0
LINE
  8
0
 10
-65.4222
 20
8.86501
 11
-64.5863
 21
8.90164
  0
LINE
  8
0
 10
-103.804
 20
6.625
 11
-103.804
 21
26.849
  0
LINE
  8
0
 10
-103.804
 20
26.849
 11
-101.052
 21
26.849
  0
LINE
  8
0
 10
-101.052
 20
26.849
 11
-101.052
 21
8.929
  0
LINE
  8
0
 10
-101.052
 20
8.929
 11
-91.1962
 21
8.929
  0
LINE
  8
0
 10
-91.1962
 20
8.929
 11
-91.1962
 21
6.625
  0
LINE
  8
0
 10
-91.1962
 20
6.625
 11
-103.804
 21
6.625
  0
LINE
  8
0
 10
-141.086
 20
6.625
 11
-133.353
 21
26.849
  0
LINE
  8
0
 10
-133.353
 20
26.849
 11
-130.246
 21
26.849
  0
LINE
  8
0
 10
-130.246
 20
26.849
 11
-122.526
 21
6.625
  0
LINE
  8
0
 10
-122.526
 20
6.625
 11
-125.375
 21
6.625
  0
LINE
  8
0
 10
-125.375
 20
6.625
 11
-127.22
 21
11.809
  0
LINE
  8
0
 10
-127.22
 20
11.809
 11
-136.351
 21
11.809
  0
LINE
  8
0
 10
-136.351
 20
11.809
 11
-138.196
 21
6.625
  0
LINE
  8
0
 10
-138.196
 20
6.625
 11
-141.086
 21
6.625
  0
LINE
  8
0
 10
-131.806
 20
24.158
 11
-135.523
 21
14.113
  0
LINE
  8
0
 10
-135.523
 20
14.113
 11
-128.075
 21
14.113
  0
LINE
  8
0
 10
-128.075
 20
14.113
 11
-131.806
 21
24.158
  0
LINE
  8
0
 10
97.7973
 20
4.00935
 11
96.4886
 21
4.25186
  0
LINE
  8
0
 10
96.4886
 20
4.25186
 11
95.33
 21
4.65607
  0
LINE
  8
0
 10
95.33
 20
4.65607
 11
94.3215
 21
5.22195
  0
LINE
  8
0
 10
94.3215
 20
5.22195
 11
93.4633
 21
5.94951
  0
LINE
  8
0
 10
93.4633
 20
5.94951
 11
92.7584
 21
6.83546
  0
LINE
  8
0
 10
92.7584
 20
6.83546
 11
92.2101
 21
7.87654
  0
LINE
  8
0
 10
92.2101
 20
7.87654
 11
91.8185
 21
9.07275
  0
LINE
  8
0
 10
91.8185
 20
9.07275
 11
91.5836
 21
10.4241
  0
LINE
  8
0
 10
91.5836
 20
10.4241
 11
91.5052
 21
11.9305
  0
LINE
  8
0
 10
91.5052
 20
11.9305
 11
91.5052
 21
24.5365
  0
LINE
  8
0
 10
91.5052
 20
24.5365
 11
94.2572
 21
24.5365
  0
LINE
  8
0
 10
94.2572
 20
24.5365
 11
94.2572
 21
12.2685
  0
LINE
  8
0
 10
94.2572
 20
12.2685
 11
94.3044
 21
11.0429
  0
LINE
  8
0
 10
94.3044
 20
11.0429
 11
94.4457
 21
9.96275
  0
LINE
  8
0
 10
94.4457
 20
9.96275
 11
94.6813
 21
9.02815
  0
LINE
  8
0
 10
94.6813
 20
9.02815
 11
95.0112
 21
8.23907
  0
LINE
  8
0
 10
95.0112
 20
8.23907
 11
95.4353
 21
7.5955
  0
LINE
  8
0
 10
95.4353
 20
7.5955
 11
95.9654
 21
7.08179
  0
LINE
  8
0
 10
95.9654
 20
7.08179
 11
96.6125
 21
6.68222
  0
LINE
  8
0
 10
96.6125
 20
6.68222
 11
97.3767
 21
6.39682
  0
LINE
  8
0
 10
97.3767
 20
6.39682
 11
98.258
 21
6.22559
  0
LINE
  8
0
 10
98.258
 20
6.22559
 11
99.2562
 21
6.1685
  0
LINE
  8
0
 10
99.2562
 20
6.1685
 11
100.249
 21
6.22559
  0
LINE
  8
0
 10
100.249
 20
6.22559
 11
101.127
 21
6.39682
  0
LINE
  8
0
 10
101.127
 20
6.39682
 11
101.888
 21
6.68222
  0
LINE
  8
0
 10
101.888
 20
6.68222
 11
102.533
 21
7.08179
  0
LINE
  8
0
 10
102.533
 20
7.08179
 11
103.062
 21
7.5955
  0
LINE
  8
0
 10
103.062
 20
7.5955
 11
103.487
 21
8.23907
  0
LINE
  8
0
 10
103.487
 20
8.23907
 11
103.817
 21
9.02815
  0
LINE
  8
0
 10
103.817
 20
9.02815
 11
104.053
 21
9.96275
  0
LINE
  8
0
 10
104.053
 20
9.96275
 11
104.194
 21
11.0429
  0
LINE
  8
0
 10
104.194
 20
11.0429
 11
104.241
 21
12.2685
  0
LINE
  8
0
 10
104.241
 20
12.2685
 11
104.241
 21
24.5365
  0
LINE
  8
0
 10
104.241
 20
24.5365
 11
106.993
 21
24.5365
  0
LINE
  8
0
 10
106.993
 20
24.5365
 11
106.993
 21
11.9305
  0
LINE
  8
0
 10
106.993
 20
11.9305
 11
106.915
 21
10.4241
  0
LINE
  8
0
 10
106.915
 20
10.4241
 11
106.68
 21
9.07275
  0
LINE
  8
0
 10
106.68
 20
9.07275
 11
106.288
 21
7.87654
  0
LINE
  8
0
 10
106.288
 20
7.87654
 11
105.74
 21
6.83546
  0
LINE
  8
0
 10
105.74
 20
6.83546
 11
105.035
 21
5.94951
  0
LINE
  8
0
 10
105.035
 20
5.94951
 11
104.178
 21
5.22195
  0
LINE
  8
0
 10
104.178
 20
5.22195
 11
103.171
 21
4.65607
  0
LINE
  8
0
 10
103.171
 20
4.65607
 11
102.015
 21
4.25186
  0
LINE
  8
0
 10
102.015
 20
4.25186
 11
100.71
 21
4.00935
  0
LINE
  8
0
 10
100.71
 20
4.00935
 11
99.2562
 21
3.92851
  0
LINE
  8
0
 10
99.2562
 20
3.92851
 11
97.7973
 21
4.00935
  0
LINE
  8
0
 10
-66.8416
 20
-26.746
 11
-67.4401
 21
-26.7072
  0
LINE
  8
0
 10
-67.4401
 20
-26.7072
 11
-68.0533
 21
-26.6423
  0
LINE
  8
0
 10
-68.0533
 20
-26.6423
 11
-68.6812
 21
-26.5516
  0
LINE
  8
0
 10
-68.6812
 20
-26.5516
 11
-69.3239
 21
-26.435
  0
LINE
  8
0
 10
-69.3239
 20
-26.435
 11
-69.9785
 21
-26.2934
  0
LINE
  8
0
 10
-69.9785
 20
-26.2934
 11
-70.6423
 21
-26.127
  0
LINE
  8
0
 10
-70.6423
 20
-26.127
 11
-71.3153
 21
-25.9358
  0
LINE
  8
0
 10
-71.3153
 20
-25.9358
 11
-71.9975
 21
-25.7198
  0
LINE
  8
0
 10
-71.9975
 20
-25.7198
 11
-72.6889
 21
-25.479
  0
LINE
  8
0
 10
-72.6889
 20
-25.479
 11
-72.6889
 21
-22.663
  0
LINE
  8
0
 10
-72.6889
 20
-22.663
 11
-72.0232
 21
-23.0133
  0
LINE
  8
0
 10
-72.0232
 20
-23.0133
 11
-71.3631
 21
-23.3273
  0
LINE
  8
0
 10
-71.3631
 20
-23.3273
 11
-70.7085
 21
-23.6051
  0
LINE
  8
0
 10
-70.7085
 20
-23.6051
 11
-70.0594
 21
-23.8467
  0
LINE
  8
0
 10
-70.0594
 20
-23.8467
 11
-69.4159
 21
-24.052
  0
LINE
  8
0
 10
-69.4159
 20
-24.052
 11
-68.7768
 21
-24.2201
  0
LINE
  8
0
 10
-68.7768
 20
-24.2201
 11
-68.1421
 21
-24.3509
  0
LINE
  8
0
 10
-68.1421
 20
-24.3509
 11
-67.5117
 21
-24.4443
  0
LINE
  8
0
 10
-67.5117
 20
-24.4443
 11
-66.8856
 21
-24.5003
  0
LINE
  8
0
 10
-66.8856
 20
-24.5003
 11
-66.2639
 21
-24.519
  0
LINE
  8
0
 10
-66.2639
 20
-24.519
 11
-65.3672
 21
-24.4823
  0
LINE
  8
0
 10
-65.3672
 20
-24.4823
 11
-64.5562
 21
-24.3721
  0
LINE
  8
0
 10
-64.5562
 20
-24.3721
 11
-63.831
 21
-24.1885
  0
LINE
  8
0
 10
-63.831
 20
-24.1885
 11
-63.1916
 21
-23.9315
  0
LINE
  8
0
 10
-63.1916
 20
-23.9315
 11
-62.6379
 21
-23.601
  0
LINE
  8
0
 10
-62.6379
 20
-23.601
 11
-62.1782
 21
-23.2025
  0
LINE
  8
0
 10
-62.1782
 20
-23.2025
 11
-61.8206
 21
-22.7415
  0
LINE
  8
0
 10
-61.8206
 20
-22.7415
 11
-61.5652
 21
-22.2179
  0
LINE
  8
0
 10
-61.5652
 20
-22.2179
 11
-61.412
 21
-21.6317
  0
LINE
  8
0
 10
-61.412
 20
-21.6317
 11
-61.3609
 21
-20.983
  0
LINE
  8
0
 10
-61.3609
 20
-20.983
 11
-61.3975
 21
-20.4149
  0
LINE
  8
0
 10
-61.3975
 20
-20.4149
 11
-61.5075
 21
-19.8987
  0
LINE
  8
0
 10
-61.5075
 20
-19.8987
 11
-61.6907
 21
-19.4343
  0
LINE
  8
0
 10
-61.6907
 20
-19.4343
 11
-61.9471
 21
-19.0217
  0
LINE
  8
0
 10
-61.9471
 20
-19.0217
 11
-62.2769
 21
-18.661
  0
LINE
  8
0
 10
-62.2769
 20
-18.661
 11
-62.6898
 21
-18.343
  0
LINE
  8
0
 10
-62.6898
 20
-18.343
 11
-63.1967
 21
-18.0584
  0
LINE
  8
0
 10
-63.1967
 20
-18.0584
 11
-63.7975
 21
-17.8074
  0
LINE
  8
0
 10
-63.7975
 20
-17.8074
 11
-64.4922
 21
-17.59
  0
LINE
  8
0
 10
-64.4922
 20
-17.59
 11
-65.2809
 21
-17.406
  0
LINE
  8
0
 10
-65.2809
 20
-17.406
 11
-66.9489
 21
-17.08
  0
LINE
  8
0
 10
-66.9489
 20
-17.08
 11
-68.1071
 21
-16.8083
  0
LINE
  8
0
 10
-68.1071
 20
-16.8083
 11
-69.1297
 21
-16.4813
  0
LINE
  8
0
 10
-69.1297
 20
-16.4813
 11
-70.0167
 21
-16.0989
  0
LINE
  8
0
 10
-70.0167
 20
-16.0989
 11
-70.7681
 21
-15.6611
  0
LINE
  8
0
 10
-70.7681
 20
-15.6611
 11
-71.3839
 21
-15.168
  0
LINE
  8
0
 10
-71.3839
 20
-15.168
 11
-71.8767
 21
-14.6062
  0
LINE
  8
0
 10
-71.8767
 20
-14.6062
 11
-72.26
 21
-13.963
  0
LINE
  8
0
 10
-72.26
 20
-13.963
 11
-72.5338
 21
-13.2386
  0
LINE
  8
0
 10
-72.5338
 20
-13.2386
 11
-72.6981
 21
-12.433
  0
LINE
  8
0
 10
-72.6981
 20
-12.433
 11
-72.7529
 21
-11.546
  0
LINE
  8
0
 10
-72.7529
 20
-11.546
 11
-72.6771
 21
-10.5172
  0
LINE
  8
0
 10
-72.6771
 20
-10.5172
 11
-72.4497
 21
-9.57961
  0
LINE
  8
0
 10
-72.4497
 20
-9.57961
 11
-72.0707
 21
-8.7332
  0
LINE
  8
0
 10
-72.0707
 20
-8.7332
 11
-71.5401
 21
-7.97801
  0
LINE
  8
0
 10
-71.5401
 20
-7.97801
 11
-70.8579
 21
-7.31401
  0
LINE
  8
0
 10
-70.8579
 20
-7.31401
 11
-70.0425
 21
-6.75708
  0
LINE
  8
0
 10
-70.0425
 20
-6.75708
 11
-69.1124
 21
-6.32393
  0
LINE
  8
0
 10
-69.1124
 20
-6.32393
 11
-68.0676
 21
-6.01453
  0
LINE
  8
0
 10
-68.0676
 20
-6.01453
 11
-66.9081
 21
-5.82889
  0
LINE
  8
0
 10
-66.9081
 20
-5.82889
 11
-65.6339
 21
-5.76701
  0
LINE
  8
0
 10
-65.6339
 20
-5.76701
 11
-65.0613
 21
-5.77725
  0
LINE
  8
0
 10
-65.0613
 20
-5.77725
 11
-64.4843
 21
-5.80797
  0
LINE
  8
0
 10
-64.4843
 20
-5.80797
 11
-63.9029
 21
-5.85916
  0
LINE
  8
0
 10
-63.9029
 20
-5.85916
 11
-63.3171
 21
-5.93085
  0
LINE
  8
0
 10
-63.3171
 20
-5.93085
 11
-62.7269
 21
-6.02301
  0
LINE
  8
0
 10
-62.7269
 20
-6.02301
 11
-62.1318
 21
-6.13565
  0
LINE
  8
0
 10
-62.1318
 20
-6.13565
 11
-61.5312
 21
-6.26877
  0
LINE
  8
0
 10
-61.5312
 20
-6.26877
 11
-60.9252
 21
-6.42236
  0
LINE
  8
0
 10
-60.9252
 20
-6.42236
 11
-60.3138
 21
-6.59645
  0
LINE
  8
0
 10
-60.3138
 20
-6.59645
 11
-59.6969
 21
-6.791
  0
LINE
  8
0
 10
-59.6969
 20
-6.791
 11
-59.6969
 21
-9.479
  0
LINE
  8
0
 10
-59.6969
 20
-9.479
 11
-60.315
 21
-9.19696
  0
LINE
  8
0
 10
-60.315
 20
-9.19696
 11
-60.9191
 21
-8.94525
  0
LINE
  8
0
 10
-60.9191
 20
-8.94525
 11
-61.5091
 21
-8.72385
  0
LINE
  8
0
 10
-61.5091
 20
-8.72385
 11
-62.0851
 21
-8.53276
  0
LINE
  8
0
 10
-62.0851
 20
-8.53276
 11
-62.6469
 21
-8.37201
  0
LINE
  8
0
 10
-62.6469
 20
-8.37201
 11
-63.1975
 21
-8.2406
  0
LINE
  8
0
 10
-63.1975
 20
-8.2406
 11
-63.7407
 21
-8.13841
  0
LINE
  8
0
 10
-63.7407
 20
-8.13841
 11
-64.2763
 21
-8.06541
  0
LINE
  8
0
 10
-64.2763
 20
-8.06541
 11
-64.8043
 21
-8.02161
  0
LINE
  8
0
 10
-64.8043
 20
-8.02161
 11
-65.3249
 21
-8.007
  0
LINE
  8
0
 10
-65.3249
 20
-8.007
 11
-66.181
 21
-8.04169
  0
LINE
  8
0
 10
-66.181
 20
-8.04169
 11
-66.9551
 21
-8.14572
  0
LINE
  8
0
 10
-66.9551
 20
-8.14572
 11
-67.6471
 21
-8.31912
  0
LINE
  8
0
 10
-67.6471
 20
-8.31912
 11
-68.257
 21
-8.56189
  0
LINE
  8
0
 10
-68.257
 20
-8.56189
 11
-68.7849
 21
-8.87401
  0
LINE
  8
0
 10
-68.7849
 20
-8.87401
 11
-69.2226
 21
-9.24969
  0
LINE
  8
0
 10
-69.2226
 20
-9.24969
 11
-69.5631
 21
-9.68393
  0
LINE
  8
0
 10
-69.5631
 20
-9.68393
 11
-69.8063
 21
-10.1767
  0
LINE
  8
0
 10
-69.8063
 20
-10.1767
 11
-69.9522
 21
-10.7281
  0
LINE
  8
0
 10
-69.9522
 20
-10.7281
 11
-70.0009
 21
-11.338
  0
LINE
  8
0
 10
-70.0009
 20
-11.338
 11
-69.9686
 21
-11.8478
  0
LINE
  8
0
 10
-69.9686
 20
-11.8478
 11
-69.8718
 21
-12.3051
  0
LINE
  8
0
 10
-69.8718
 20
-12.3051
 11
-69.7104
 21
-12.7099
  0
LINE
  8
0
 10
-69.7104
 20
-12.7099
 11
-69.4844
 21
-13.0622
  0
LINE
  8
0
 10
-69.4844
 20
-13.0622
 11
-69.1939
 21
-13.362
  0
LINE
  8
0
 10
-69.1939
 20
-13.362
 11
-68.8133
 21
-13.6247
  0
LINE
  8
0
 10
-68.8133
 20
-13.6247
 11
-68.3171
 21
-13.8663
  0
LINE
  8
0
 10
-68.3171
 20
-13.8663
 11
-67.7053
 21
-14.0869
  0
LINE
  8
0
 10
-67.7053
 20
-14.0869
 11
-66.9779
 21
-14.2865
  0
LINE
  8
0
 10
-66.9779
 20
-14.2865
 11
-66.1349
 21
-14.465
  0
LINE
  8
0
 10
-66.1349
 20
-14.465
 11
-64.4809
 21
-14.804
  0
LINE
  8
0
 10
-64.4809
 20
-14.804
 11
-63.3154
 21
-15.0723
  0
LINE
  8
0
 10
-63.3154
 20
-15.0723
 11
-62.279
 21
-15.4115
  0
LINE
  8
0
 10
-62.279
 20
-15.4115
 11
-61.3716
 21
-15.8217
  0
LINE
  8
0
 10
-61.3716
 20
-15.8217
 11
-60.5932
 21
-16.3029
  0
LINE
  8
0
 10
-60.5932
 20
-16.3029
 11
-59.9439
 21
-16.855
  0
LINE
  8
0
 10
-59.9439
 20
-16.855
 11
-59.4172
 21
-17.4824
  0
LINE
  8
0
 10
-59.4172
 20
-17.4824
 11
-59.0076
 21
-18.1894
  0
LINE
  8
0
 10
-59.0076
 20
-18.1894
 11
-58.715
 21
-18.976
  0
LINE
  8
0
 10
-58.715
 20
-18.976
 11
-58.5394
 21
-19.8422
  0
LINE
  8
0
 10
-58.5394
 20
-19.8422
 11
-58.4809
 21
-20.788
  0
LINE
  8
0
 10
-58.4809
 20
-20.788
 11
-58.56
 21
-21.9064
  0
LINE
  8
0
 10
-58.56
 20
-21.9064
 11
-58.7974
 21
-22.911
  0
LINE
  8
0
 10
-58.7974
 20
-22.911
 11
-59.193
 21
-23.802
  0
LINE
  8
0
 10
-59.193
 20
-23.802
 11
-59.7468
 21
-24.5793
  0
LINE
  8
0
 10
-59.7468
 20
-24.5793
 11
-60.4589
 21
-25.243
  0
LINE
  8
0
 10
-60.4589
 20
-25.243
 11
-61.3238
 21
-25.7888
  0
LINE
  8
0
 10
-61.3238
 20
-25.7888
 11
-62.3362
 21
-26.2132
  0
LINE
  8
0
 10
-62.3362
 20
-26.2132
 11
-63.496
 21
-26.5164
  0
LINE
  8
0
 10
-63.496
 20
-26.5164
 11
-64.8032
 21
-26.6983
  0
LINE
  8
0
 10
-64.8032
 20
-26.6983
 11
-66.2579
 21
-26.759
  0
LINE
  8
0
 10
-66.2579
 20
-26.759
 11
-66.8416
 21
-26.746
  0
LINE
  8
0
 10
-41.459
 20
-26.375
 11
-34.257
 21
-15.579
  0
LINE
  8
0
 10
-34.257
 20
-15.579
 11
-40.563
 21
-6.151
  0
LINE
  8
0
 10
-40.563
 20
-6.151
 11
-37.616
 21
-6.151
  0
LINE
  8
0
 10
-37.616
 20
-6.151
 11
-32.577
 21
-13.678
  0
LINE
  8
0
 10
-32.577
 20
-13.678
 11
-27.51
 21
-6.151
  0
LINE
  8
0
 10
-27.51
 20
-6.151
 11
-24.563
 21
-6.151
  0
LINE
  8
0
 10
-24.563
 20
-6.151
 11
-31.073
 21
-15.863
  0
LINE
  8
0
 10
-31.073
 20
-15.863
 11
-24.115
 21
-26.375
  0
LINE
  8
0
 10
-24.115
 20
-26.375
 11
-27.06
 21
-26.375
  0
LINE
  8
0
 10
-27.06
 20
-26.375
 11
-32.76
 21
-17.763
  0
LINE
  8
0
 10
-32.76
 20
-17.763
 11
-38.5
 21
-26.375
  0
LINE
  8
0
 10
-38.5
 20
-26.375
 11
-41.459
 21
-26.375
  0
LINE
  8
0
 10
91.5639
 20
-26.375
 11
86.4859
 21
-6.151
  0
LINE
  8
0
 10
86.4859
 20
-6.151
 11
89.2558
 21
-6.151
  0
LINE
  8
0
 10
89.2558
 20
-6.151
 11
93.5199
 21
-23.246
  0
LINE
  8
0
 10
93.5199
 20
-23.246
 11
97.7699
 21
-6.151
  0
LINE
  8
0
 10
97.7699
 20
-6.151
 11
100.852
 21
-6.151
  0
LINE
  8
0
 10
100.852
 20
-6.151
 11
105.116
 21
-23.246
  0
LINE
  8
0
 10
105.116
 20
-23.246
 11
109.366
 21
-6.151
  0
LINE
  8
0
 10
109.366
 20
-6.151
 11
112.15
 21
-6.151
  0
LINE
  8
0
 10
112.15
 20
-6.151
 11
107.058
 21
-26.375
  0
LINE
  8
0
 10
107.058
 20
-26.375
 11
103.609
 21
-26.375
  0
LINE
  8
0
 10
103.609
 20
-26.375
 11
99.3318
 21
-8.82001
  0
LINE
  8
0
 10
99.3318
 20
-8.82001
 11
95.0139
 21
-26.375
  0
LINE
  8
0
 10
95.0139
 20
-26.375
 11
91.5639
 21
-26.375
  0
LINE
  8
0
 10
24.0504
 20
-26.375
 11
24.0504
 21
-6.151
  0
LINE
  8
0
 10
24.0504
 20
-6.151
 11
28.1543
 21
-6.151
  0
LINE
  8
0
 10
28.1543
 20
-6.151
 11
33.2913
 21
-19.9
  0
LINE
  8
0
 10
33.2913
 20
-19.9
 11
38.4563
 21
-6.151
  0
LINE
  8
0
 10
38.4563
 20
-6.151
 11
42.5463
 21
-6.151
  0
LINE
  8
0
 10
42.5463
 20
-6.151
 11
42.5463
 21
-26.375
  0
LINE
  8
0
 10
42.5463
 20
-26.375
 11
39.8583
 21
-26.375
  0
LINE
  8
0
 10
39.8583
 20
-26.375
 11
39.8583
 21
-8.61401
  0
LINE
  8
0
 10
39.8583
 20
-8.61401
 11
34.6673
 21
-22.471
  0
LINE
  8
0
 10
34.6673
 20
-22.471
 11
31.9294
 21
-22.471
  0
LINE
  8
0
 10
31.9294
 20
-22.471
 11
26.7383
 21
-8.61401
  0
LINE
  8
0
 10
26.7383
 20
-8.61401
 11
26.7383
 21
-26.375
  0
LINE
  8
0
 10
26.7383
 20
-26.375
 11
24.0504
 21
-26.375
  0
LINE
  8
0
 10
126.183
 20
-26.375
 11
126.183
 21
-6.151
  0
LINE
  8
0
 10
126.183
 20
-6.151
 11
138.983
 21
-6.151
  0
LINE
  8
0
 10
138.983
 20
-6.151
 11
138.983
 21
-8.455
  0
LINE
  8
0
 10
138.983
 20
-8.455
 11
128.935
 21
-8.455
  0
LINE
  8
0
 10
128.935
 20
-8.455
 11
128.935
 21
-14.407
  0
LINE
  8
0
 10
128.935
 20
-14.407
 11
138.599
 21
-14.407
  0
LINE
  8
0
 10
138.599
 20
-14.407
 11
138.599
 21
-16.711
  0
LINE
  8
0
 10
138.599
 20
-16.711
 11
128.935
 21
-16.711
  0
LINE
  8
0
 10
128.935
 20
-16.711
 11
128.935
 21
-24.071
  0
LINE
  8
0
 10
128.935
 20
-24.071
 11
139.239
 21
-24.071
  0
LINE
  8
0
 10
139.239
 20
-24.071
 11
139.239
 21
-26.375
  0
LINE
  8
0
 10
139.239
 20
-26.375
 11
126.183
 21
-26.375
  0
LINE
  8
0
 10
-170.817
 20
-26.375
 11
-170.817
 21
-6.151
  0
LINE
  8
0
 10
-170.817
 20
-6.151
 11
-158.017
 21
-6.151
  0
LINE
  8
0
 10
-158.017
 20
-6.151
 11
-158.017
 21
-8.455
  0
LINE
  8
0
 10
-158.017
 20
-8.455
 11
-168.065
 21
-8.455
  0
LINE
  8
0
 10
-168.065
 20
-8.455
 11
-168.065
 21
-14.407
  0
LINE
  8
0
 10
-168.065
 20
-14.407
 11
-158.401
 21
-14.407
  0
LINE
  8
0
 10
-158.401
 20
-14.407
 11
-158.401
 21
-16.711
  0
LINE
  8
0
 10
-158.401
 20
-16.711
 11
-168.065
 21
-16.711
  0
LINE
  8
0
 10
-168.065
 20
-16.711
 11
-168.065
 21
-24.071
  0
LINE
  8
0
 10
-168.065
 20
-24.071
 11
-157.761
 21
-24.071
  0
LINE
  8
0
 10
-157.761
 20
-24.071
 11
-157.761
 21
-26.375
  0
LINE
  8
0
 10
-157.761
 20
-26.375
 11
-170.817
 21
-26.375
  0
LINE
  8
0
 10
163.752
 20
-26.375
 11
163.752
 21
-6.151
  0
LINE
  8
0
 10
163.752
 20
-6.151
 11
166.504
 21
-6.151
  0
LINE
  8
0
 10
166.504
 20
-6.151
 11
166.504
 21
-26.375
  0
LINE
  8
0
 10
166.504
 20
-26.375
 11
163.752
 21
-26.375
  0
LINE
  8
0
 10
-106.393
 20
-26.375
 11
-106.393
 21
-6.151
  0
LINE
  8
0
 10
-106.393
 20
-6.151
 11
-102.684
 21
-6.151
  0
LINE
  8
0
 10
-102.684
 20
-6.151
 11
-93.7855
 21
-23.07
  0
LINE
  8
0
 10
-93.7855
 20
-23.07
 11
-93.7855
 21
-6.151
  0
LINE
  8
0
 10
-93.7855
 20
-6.151
 11
-91.0975
 21
-6.151
  0
LINE
  8
0
 10
-91.0975
 20
-6.151
 11
-91.0975
 21
-26.375
  0
LINE
  8
0
 10
-91.0975
 20
-26.375
 11
-94.8075
 21
-26.375
  0
LINE
  8
0
 10
-94.8075
 20
-26.375
 11
-103.706
 21
-9.45601
  0
LINE
  8
0
 10
-103.706
 20
-9.45601
 11
-103.706
 21
-26.375
  0
LINE
  8
0
 10
-103.706
 20
-26.375
 11
-106.393
 21
-26.375
  0
LINE
  8
0
 10
-9.08583
 20
-26.375
 11
-1.35283
 21
-6.151
  0
LINE
  8
0
 10
-1.35283
 20
-6.151
 11
1.75417
 21
-6.151
  0
LINE
  8
0
 10
1.75417
 20
-6.151
 11
9.47417
 21
-26.375
  0
LINE
  8
0
 10
9.47417
 20
-26.375
 11
6.62517
 21
-26.375
  0
LINE
  8
0
 10
6.62517
 20
-26.375
 11
4.78017
 21
-21.191
  0
LINE
  8
0
 10
4.78017
 20
-21.191
 11
-4.35083
 21
-21.191
  0
LINE
  8
0
 10
-4.35083
 20
-21.191
 11
-6.19583
 21
-26.375
  0
LINE
  8
0
 10
-6.19583
 20
-26.375
 11
-9.08583
 21
-26.375
  0
LINE
  8
0
 10
0.194153
 20
-8.84201
 11
-3.52283
 21
-18.887
  0
LINE
  8
0
 10
-3.52283
 20
-18.887
 11
3.92516
 21
-18.887
  0
LINE
  8
0
 10
3.92516
 20
-18.887
 11
0.194153
 21
-8.84201
  0
LINE
  8
0
 10
-133.248
 20
-26.375
 11
-133.248
 21
-6.151
  0
LINE
  8
0
 10
-133.248
 20
-6.151
 11
-130.496
 21
-6.151
  0
LINE
  8
0
 10
-130.496
 20
-6.151
 11
-130.496
 21
-26.375
  0
LINE
  8
0
 10
-130.496
 20
-26.375
 11
-133.248
 21
-26.375
  0
LINE
  8
0
 10
57.989
 20
-26.375
 11
57.989
 21
-24.289
  0
LINE
  8
0
 10
57.989
 20
-24.289
 11
70.771
 21
-8.455
  0
LINE
  8
0
 10
70.771
 20
-8.455
 11
58.309
 21
-8.455
  0
LINE
  8
0
 10
58.309
 20
-8.455
 11
58.309
 21
-6.151
  0
LINE
  8
0
 10
58.309
 20
-6.151
 11
74.181
 21
-6.151
  0
LINE
  8
0
 10
74.181
 20
-6.151
 11
74.181
 21
-8.23701
  0
LINE
  8
0
 10
74.181
 20
-8.23701
 11
61.408
 21
-24.071
  0
LINE
  8
0
 10
61.408
 20
-24.071
 11
74.501
 21
-24.071
  0
LINE
  8
0
 10
74.501
 20
-24.071
 11
74.501
 21
-26.375
  0
LINE
  8
0
 10
74.501
 20
-26.375
 11
57.989
 21
-26.375
  0
LINE
  8
0
 10
27.592
 20
-62.2242
 11
27.592
 21
-59.9202
  0
LINE
  8
0
 10
27.592
 20
-59.9202
 11
28.446
 21
-59.9202
  0
LINE
  8
0
 10
28.446
 20
-59.9202
 11
29.1296
 21
-59.8796
  0
LINE
  8
0
 10
29.1296
 20
-59.8796
 11
29.7274
 21
-59.7575
  0
LINE
  8
0
 10
29.7274
 20
-59.7575
 11
30.2397
 21
-59.5541
  0
LINE
  8
0
 10
30.2397
 20
-59.5541
 11
30.6662
 21
-59.2694
  0
LINE
  8
0
 10
30.6662
 20
-59.2694
 11
31.007
 21
-58.9032
  0
LINE
  8
0
 10
31.007
 20
-58.9032
 11
31.2752
 21
-58.4323
  0
LINE
  8
0
 10
31.2752
 20
-58.4323
 11
31.4838
 21
-57.8324
  0
LINE
  8
0
 10
31.4838
 20
-57.8324
 11
31.6328
 21
-57.1034
  0
LINE
  8
0
 10
31.6328
 20
-57.1034
 11
31.7222
 21
-56.2453
  0
LINE
  8
0
 10
31.7222
 20
-56.2453
 11
31.752
 21
-55.2582
  0
LINE
  8
0
 10
31.752
 20
-55.2582
 11
31.752
 21
-36.4323
  0
LINE
  8
0
 10
31.752
 20
-36.4323
 11
34.504
 21
-36.4323
  0
LINE
  8
0
 10
34.504
 20
-36.4323
 11
34.504
 21
-55.2582
  0
LINE
  8
0
 10
34.504
 20
-55.2582
 11
34.4483
 21
-56.6416
  0
LINE
  8
0
 10
34.4483
 20
-56.6416
 11
34.2811
 21
-57.8645
  0
LINE
  8
0
 10
34.2811
 20
-57.8645
 11
34.0025
 21
-58.9269
  0
LINE
  8
0
 10
34.0025
 20
-58.9269
 11
33.6125
 21
-59.8288
  0
LINE
  8
0
 10
33.6125
 20
-59.8288
 11
33.111
 21
-60.5702
  0
LINE
  8
0
 10
33.111
 20
-60.5702
 11
32.4865
 21
-61.1657
  0
LINE
  8
0
 10
32.4865
 20
-61.1657
 11
31.7267
 21
-61.6288
  0
LINE
  8
0
 10
31.7267
 20
-61.6288
 11
30.8315
 21
-61.9596
  0
LINE
  8
0
 10
30.8315
 20
-61.9596
 11
29.8009
 21
-62.1581
  0
LINE
  8
0
 10
29.8009
 20
-62.1581
 11
28.635
 21
-62.2242
  0
LINE
  8
0
 10
28.635
 20
-62.2242
 11
27.592
 21
-62.2242
  0
LINE
  8
0
 10
-8.94965
 20
-59.375
 11
-8.94965
 21
-39.151
  0
LINE
  8
0
 10
-8.94965
 20
-39.151
 11
-4.84566
 21
-39.151
  0
LINE
  8
0
 10
-4.84566
 20
-39.151
 11
0.291336
 21
-52.9
  0
LINE
  8
0
 10
0.291336
 20
-52.9
 11
5.45633
 21
-39.151
  0
LINE
  8
0
 10
5.45633
 20
-39.151
 11
9.54633
 21
-39.151
  0
LINE
  8
0
 10
9.54633
 20
-39.151
 11
9.54633
 21
-59.375
  0
LINE
  8
0
 10
9.54633
 20
-59.375
 11
6.85834
 21
-59.375
  0
LINE
  8
0
 10
6.85834
 20
-59.375
 11
6.85834
 21
-41.614
  0
LINE
  8
0
 10
6.85834
 20
-41.614
 11
1.66733
 21
-55.471
  0
LINE
  8
0
 10
1.66733
 20
-55.471
 11
-1.07065
 21
-55.471
  0
LINE
  8
0
 10
-1.07065
 20
-55.471
 11
-6.26166
 21
-41.614
  0
LINE
  8
0
 10
-6.26166
 20
-41.614
 11
-6.26166
 21
-59.375
  0
LINE
  8
0
 10
-6.26166
 20
-59.375
 11
-8.94965
 21
-59.375
  0
LINE
  8
0
 10
-104.817
 20
-59.375
 11
-104.817
 21
-39.151
  0
LINE
  8
0
 10
-104.817
 20
-39.151
 11
-92.0173
 21
-39.151
  0
LINE
  8
0
 10
-92.0173
 20
-39.151
 11
-92.0173
 21
-41.455
  0
LINE
  8
0
 10
-92.0173
 20
-41.455
 11
-102.065
 21
-41.455
  0
LINE
  8
0
 10
-102.065
 20
-41.455
 11
-102.065
 21
-47.407
  0
LINE
  8
0
 10
-102.065
 20
-47.407
 11
-92.4013
 21
-47.407
  0
LINE
  8
0
 10
-92.4013
 20
-47.407
 11
-92.4013
 21
-49.711
  0
LINE
  8
0
 10
-92.4013
 20
-49.711
 11
-102.065
 21
-49.711
  0
LINE
  8
0
 10
-102.065
 20
-49.711
 11
-102.065
 21
-57.071
  0
LINE
  8
0
 10
-102.065
 20
-57.071
 11
-91.7613
 21
-57.071
  0
LINE
  8
0
 10
-91.7613
 20
-57.071
 11
-91.7613
 21
-59.375
  0
LINE
  8
0
 10
-91.7613
 20
-59.375
 11
-104.817
 21
-59.375
  0
LINE
  8
0
 10
-138.671
 20
-59.375
 11
-138.671
 21
-39.151
  0
LINE
  8
0
 10
-138.671
 20
-39.151
 11
-132.484
 21
-39.151
  0
LINE
  8
0
 10
-132.484
 20
-39.151
 11
-131.17
 21
-39.2092
  0
LINE
  8
0
 10
-131.17
 20
-39.2092
 11
-129.996
 21
-39.3838
  0
LINE
  8
0
 10
-129.996
 20
-39.3838
 11
-128.963
 21
-39.6748
  0
LINE
  8
0
 10
-128.963
 20
-39.6748
 11
-128.071
 21
-40.0822
  0
LINE
  8
0
 10
-128.071
 20
-40.0822
 11
-127.319
 21
-40.606
  0
LINE
  8
0
 10
-127.319
 20
-40.606
 11
-126.706
 21
-41.2469
  0
LINE
  8
0
 10
-126.706
 20
-41.2469
 11
-126.229
 21
-42.0065
  0
LINE
  8
0
 10
-126.229
 20
-42.0065
 11
-125.888
 21
-42.8847
  0
LINE
  8
0
 10
-125.888
 20
-42.8847
 11
-125.684
 21
-43.8815
  0
LINE
  8
0
 10
-125.684
 20
-43.8815
 11
-125.615
 21
-44.997
  0
LINE
  8
0
 10
-125.615
 20
-44.997
 11
-125.651
 21
-45.7377
  0
LINE
  8
0
 10
-125.651
 20
-45.7377
 11
-125.757
 21
-46.4263
  0
LINE
  8
0
 10
-125.757
 20
-46.4263
 11
-125.934
 21
-47.0627
  0
LINE
  8
0
 10
-125.934
 20
-47.0627
 11
-126.182
 21
-47.6469
  0
LINE
  8
0
 10
-126.182
 20
-47.6469
 11
-126.501
 21
-48.179
  0
LINE
  8
0
 10
-126.501
 20
-48.179
 11
-126.888
 21
-48.6536
  0
LINE
  8
0
 10
-126.888
 20
-48.6536
 11
-127.338
 21
-49.0662
  0
LINE
  8
0
 10
-127.338
 20
-49.0662
 11
-127.853
 21
-49.4168
  0
LINE
  8
0
 10
-127.853
 20
-49.4168
 11
-128.433
 21
-49.7054
  0
LINE
  8
0
 10
-128.433
 20
-49.7054
 11
-129.076
 21
-49.932
  0
LINE
  8
0
 10
-129.076
 20
-49.932
 11
-128.727
 21
-50.0778
  0
LINE
  8
0
 10
-128.727
 20
-50.0778
 11
-128.381
 21
-50.2774
  0
LINE
  8
0
 10
-128.381
 20
-50.2774
 11
-128.039
 21
-50.531
  0
LINE
  8
0
 10
-128.039
 20
-50.531
 11
-127.701
 21
-50.8385
  0
LINE
  8
0
 10
-127.701
 20
-50.8385
 11
-127.366
 21
-51.2
  0
LINE
  8
0
 10
-127.366
 20
-51.2
 11
-127.033
 21
-51.6176
  0
LINE
  8
0
 10
-127.033
 20
-51.6176
 11
-126.7
 21
-52.0934
  0
LINE
  8
0
 10
-126.7
 20
-52.0934
 11
-126.366
 21
-52.6276
  0
LINE
  8
0
 10
-126.366
 20
-52.6276
 11
-126.031
 21
-53.2202
  0
LINE
  8
0
 10
-126.031
 20
-53.2202
 11
-125.696
 21
-53.871
  0
LINE
  8
0
 10
-125.696
 20
-53.871
 11
-122.927
 21
-59.375
  0
LINE
  8
0
 10
-122.927
 20
-59.375
 11
-125.858
 21
-59.375
  0
LINE
  8
0
 10
-125.858
 20
-59.375
 11
-128.441
 21
-54.208
  0
LINE
  8
0
 10
-128.441
 20
-54.208
 11
-128.839
 21
-53.4533
  0
LINE
  8
0
 10
-128.839
 20
-53.4533
 11
-129.232
 21
-52.8075
  0
LINE
  8
0
 10
-129.232
 20
-52.8075
 11
-129.621
 21
-52.2707
  0
LINE
  8
0
 10
-129.621
 20
-52.2707
 11
-130.004
 21
-51.8429
  0
LINE
  8
0
 10
-130.004
 20
-51.8429
 11
-130.382
 21
-51.524
  0
LINE
  8
0
 10
-130.382
 20
-51.524
 11
-130.785
 21
-51.286
  0
LINE
  8
0
 10
-130.785
 20
-51.286
 11
-131.243
 21
-51.101
  0
LINE
  8
0
 10
-131.243
 20
-51.101
 11
-131.755
 21
-50.9688
  0
LINE
  8
0
 10
-131.755
 20
-50.9688
 11
-132.322
 21
-50.8894
  0
LINE
  8
0
 10
-132.322
 20
-50.8894
 11
-132.944
 21
-50.863
  0
LINE
  8
0
 10
-132.944
 20
-50.863
 11
-135.919
 21
-50.863
  0
LINE
  8
0
 10
-135.919
 20
-50.863
 11
-135.919
 21
-59.375
  0
LINE
  8
0
 10
-135.919
 20
-59.375
 11
-138.671
 21
-59.375
  0
LINE
  8
0
 10
-131.733
 20
-48.5862
 11
-131.06
 21
-48.4756
  0
LINE
  8
0
 10
-131.06
 20
-48.4756
 11
-130.464
 21
-48.2914
  0
LINE
  8
0
 10
-130.464
 20
-48.2914
 11
-129.945
 21
-48.0336
  0
LINE
  8
0
 10
-129.945
 20
-48.0336
 11
-129.503
 21
-47.702
  0
LINE
  8
0
 10
-129.503
 20
-47.702
 11
-129.14
 21
-47.2989
  0
LINE
  8
0
 10
-129.14
 20
-47.2989
 11
-128.858
 21
-46.8265
  0
LINE
  8
0
 10
-128.858
 20
-46.8265
 11
-128.657
 21
-46.2847
  0
LINE
  8
0
 10
-128.657
 20
-46.2847
 11
-128.536
 21
-45.6735
  0
LINE
  8
0
 10
-128.536
 20
-45.6735
 11
-128.495
 21
-44.993
  0
LINE
  8
0
 10
-128.495
 20
-44.993
 11
-128.536
 21
-44.3134
  0
LINE
  8
0
 10
-128.536
 20
-44.3134
 11
-128.657
 21
-43.7042
  0
LINE
  8
0
 10
-128.657
 20
-43.7042
 11
-128.858
 21
-43.1654
  0
LINE
  8
0
 10
-128.858
 20
-43.1654
 11
-129.14
 21
-42.697
  0
LINE
  8
0
 10
-129.14
 20
-42.697
 11
-129.503
 21
-42.299
  0
LINE
  8
0
 10
-129.503
 20
-42.299
 11
-129.945
 21
-41.9721
  0
LINE
  8
0
 10
-129.945
 20
-41.9721
 11
-130.464
 21
-41.7179
  0
LINE
  8
0
 10
-130.464
 20
-41.7179
 11
-131.06
 21
-41.5363
  0
LINE
  8
0
 10
-131.06
 20
-41.5363
 11
-131.733
 21
-41.4273
  0
LINE
  8
0
 10
-131.733
 20
-41.4273
 11
-132.484
 21
-41.391
  0
LINE
  8
0
 10
-132.484
 20
-41.391
 11
-135.919
 21
-41.391
  0
LINE
  8
0
 10
-135.919
 20
-41.391
 11
-135.919
 21
-48.623
  0
LINE
  8
0
 10
-135.919
 20
-48.623
 11
-132.484
 21
-48.623
  0
LINE
  8
0
 10
-132.484
 20
-48.623
 11
-131.733
 21
-48.5862
  0
LINE
  8
0
 10
158.329
 20
-59.375
 11
158.329
 21
-39.151
  0
LINE
  8
0
 10
158.329
 20
-39.151
 11
164.516
 21
-39.151
  0
LINE
  8
0
 10
164.516
 20
-39.151
 11
165.83
 21
-39.2092
  0
LINE
  8
0
 10
165.83
 20
-39.2092
 11
167.004
 21
-39.3838
  0
LINE
  8
0
 10
167.004
 20
-39.3838
 11
168.037
 21
-39.6748
  0
LINE
  8
0
 10
168.037
 20
-39.6748
 11
168.929
 21
-40.0822
  0
LINE
  8
0
 10
168.929
 20
-40.0822
 11
169.681
 21
-40.606
  0
LINE
  8
0
 10
169.681
 20
-40.606
 11
170.294
 21
-41.2469
  0
LINE
  8
0
 10
170.294
 20
-41.2469
 11
170.771
 21
-42.0065
  0
LINE
  8
0
 10
170.771
 20
-42.0065
 11
171.112
 21
-42.8847
  0
LINE
  8
0
 10
171.112
 20
-42.8847
 11
171.316
 21
-43.8815
  0
LINE
  8
0
 10
171.316
 20
-43.8815
 11
171.385
 21
-44.997
  0
LINE
  8
0
 10
171.385
 20
-44.997
 11
171.349
 21
-45.7377
  0
LINE
  8
0
 10
171.349
 20
-45.7377
 11
171.243
 21
-46.4263
  0
LINE
  8
0
 10
171.243
 20
-46.4263
 11
171.066
 21
-47.0627
  0
LINE
  8
0
 10
171.066
 20
-47.0627
 11
170.818
 21
-47.6469
  0
LINE
  8
0
 10
170.818
 20
-47.6469
 11
170.499
 21
-48.179
  0
LINE
  8
0
 10
170.499
 20
-48.179
 11
170.112
 21
-48.6536
  0
LINE
  8
0
 10
170.112
 20
-48.6536
 11
169.662
 21
-49.0662
  0
LINE
  8
0
 10
169.662
 20
-49.0662
 11
169.147
 21
-49.4168
  0
LINE
  8
0
 10
169.147
 20
-49.4168
 11
168.567
 21
-49.7054
  0
LINE
  8
0
 10
168.567
 20
-49.7054
 11
167.924
 21
-49.932
  0
LINE
  8
0
 10
167.924
 20
-49.932
 11
168.273
 21
-50.0778
  0
LINE
  8
0
 10
168.273
 20
-50.0778
 11
168.619
 21
-50.2774
  0
LINE
  8
0
 10
168.619
 20
-50.2774
 11
168.961
 21
-50.531
  0
LINE
  8
0
 10
168.961
 20
-50.531
 11
169.299
 21
-50.8385
  0
LINE
  8
0
 10
169.299
 20
-50.8385
 11
169.634
 21
-51.2
  0
LINE
  8
0
 10
169.634
 20
-51.2
 11
169.967
 21
-51.6176
  0
LINE
  8
0
 10
169.967
 20
-51.6176
 11
170.3
 21
-52.0934
  0
LINE
  8
0
 10
170.3
 20
-52.0934
 11
170.634
 21
-52.6276
  0
LINE
  8
0
 10
170.634
 20
-52.6276
 11
170.969
 21
-53.2202
  0
LINE
  8
0
 10
170.969
 20
-53.2202
 11
171.304
 21
-53.871
  0
LINE
  8
0
 10
171.304
 20
-53.871
 11
174.073
 21
-59.375
  0
LINE
  8
0
 10
174.073
 20
-59.375
 11
171.142
 21
-59.375
  0
LINE
  8
0
 10
171.142
 20
-59.375
 11
168.559
 21
-54.208
  0
LINE
  8
0
 10
168.559
 20
-54.208
 11
168.161
 21
-53.4533
  0
LINE
  8
0
 10
168.161
 20
-53.4533
 11
167.768
 21
-52.8075
  0
LINE
  8
0
 10
167.768
 20
-52.8075
 11
167.379
 21
-52.2707
  0
LINE
  8
0
 10
167.379
 20
-52.2707
 11
166.996
 21
-51.8429
  0
LINE
  8
0
 10
166.996
 20
-51.8429
 11
166.618
 21
-51.524
  0
LINE
  8
0
 10
166.618
 20
-51.524
 11
166.215
 21
-51.286
  0
LINE
  8
0
 10
166.215
 20
-51.286
 11
165.757
 21
-51.101
  0
LINE
  8
0
 10
165.757
 20
-51.101
 11
165.245
 21
-50.9688
  0
LINE
  8
0
 10
165.245
 20
-50.9688
 11
164.678
 21
-50.8894
  0
LINE
  8
0
 10
164.678
 20
-50.8894
 11
164.056
 21
-50.863
  0
LINE
  8
0
 10
164.056
 20
-50.863
 11
161.081
 21
-50.863
  0
LINE
  8
0
 10
161.081
 20
-50.863
 11
161.081
 21
-59.375
  0
LINE
  8
0
 10
161.081
 20
-59.375
 11
158.329
 21
-59.375
  0
LINE
  8
0
 10
165.267
 20
-48.5862
 11
165.94
 21
-48.4756
  0
LINE
  8
0
 10
165.94
 20
-48.4756
 11
166.536
 21
-48.2914
  0
LINE
  8
0
 10
166.536
 20
-48.2914
 11
167.055
 21
-48.0336
  0
LINE
  8
0
 10
167.055
 20
-48.0336
 11
167.497
 21
-47.702
  0
LINE
  8
0
 10
167.497
 20
-47.702
 11
167.86
 21
-47.2989
  0
LINE
  8
0
 10
167.86
 20
-47.2989
 11
168.142
 21
-46.8265
  0
LINE
  8
0
 10
168.142
 20
-46.8265
 11
168.343
 21
-46.2847
  0
LINE
  8
0
 10
168.343
 20
-46.2847
 11
168.464
 21
-45.6735
  0
LINE
  8
0
 10
168.464
 20
-45.6735
 11
168.505
 21
-44.993
  0
LINE
  8
0
 10
168.505
 20
-44.993
 11
168.464
 21
-44.3134
  0
LINE
  8
0
 10
168.464
 20
-44.3134
 11
168.343
 21
-43.7042
  0
LINE
  8
0
 10
168.343
 20
-43.7042
 11
168.142
 21
-43.1654
  0
LINE
  8
0
 10
168.142
 20
-43.1654
 11
167.86
 21
-42.697
  0
LINE
  8
0
 10
167.86
 20
-42.697
 11
167.497
 21
-42.299
  0
LINE
  8
0
 10
167.497
 20
-42.299
 11
167.055
 21
-41.9721
  0
LINE
  8
0
 10
167.055
 20
-41.9721
 11
166.536
 21
-41.7179
  0
LINE
  8
0
 10
166.536
 20
-41.7179
 11
165.94
 21
-41.5363
  0
LINE
  8
0
 10
165.94
 20
-41.5363
 11
165.267
 21
-41.4273
  0
LINE
  8
0
 10
165.267
 20
-41.4273
 11
164.516
 21
-41.391
  0
LINE
  8
0
 10
164.516
 20
-41.391
 11
161.081
 21
-41.391
  0
LINE
  8
0
 10
161.081
 20
-41.391
 11
161.081
 21
-48.623
  0
LINE
  8
0
 10
161.081
 20
-48.623
 11
164.516
 21
-48.623
  0
LINE
  8
0
 10
164.516
 20
-48.623
 11
165.267
 21
-48.5862
  0
LINE
  8
0
 10
-67.248
 20
-59.375
 11
-67.248
 21
-39.151
  0
LINE
  8
0
 10
-67.248
 20
-39.151
 11
-64.496
 21
-39.151
  0
LINE
  8
0
 10
-64.496
 20
-39.151
 11
-64.496
 21
-59.375
  0
LINE
  8
0
 10
-64.496
 20
-59.375
 11
-67.248
 21
-59.375
  0
LINE
  8
0
 10
-38.4267
 20
-59.375
 11
-38.4267
 21
-39.151
  0
LINE
  8
0
 10
-38.4267
 20
-39.151
 11
-32.2397
 21
-39.151
  0
LINE
  8
0
 10
-32.2397
 20
-39.151
 11
-30.9484
 21
-39.2125
  0
LINE
  8
0
 10
-30.9484
 20
-39.2125
 11
-29.7896
 21
-39.3971
  0
LINE
  8
0
 10
-29.7896
 20
-39.3971
 11
-28.7634
 21
-39.7047
  0
LINE
  8
0
 10
-28.7634
 20
-39.7047
 11
-27.8698
 21
-40.1353
  0
LINE
  8
0
 10
-27.8698
 20
-40.1353
 11
-27.1087
 21
-40.689
  0
LINE
  8
0
 10
-27.1087
 20
-40.689
 11
-26.483
 21
-41.361
  0
LINE
  8
0
 10
-26.483
 20
-41.361
 11
-25.9964
 21
-42.1472
  0
LINE
  8
0
 10
-25.9964
 20
-42.1472
 11
-25.6488
 21
-43.0479
  0
LINE
  8
0
 10
-25.6488
 20
-43.0479
 11
-25.4402
 21
-44.0628
  0
LINE
  8
0
 10
-25.4402
 20
-44.0628
 11
-25.3707
 21
-45.192
  0
LINE
  8
0
 10
-25.3707
 20
-45.192
 11
-25.4402
 21
-46.3311
  0
LINE
  8
0
 10
-25.4402
 20
-46.3311
 11
-25.6488
 21
-47.3531
  0
LINE
  8
0
 10
-25.6488
 20
-47.3531
 11
-25.9964
 21
-48.2581
  0
LINE
  8
0
 10
-25.9964
 20
-48.2581
 11
-26.483
 21
-49.0461
  0
LINE
  8
0
 10
-26.483
 20
-49.0461
 11
-27.1087
 21
-49.717
  0
LINE
  8
0
 10
-27.1087
 20
-49.717
 11
-27.8698
 21
-50.2678
  0
LINE
  8
0
 10
-27.8698
 20
-50.2678
 11
-28.7634
 21
-50.6962
  0
LINE
  8
0
 10
-28.7634
 20
-50.6962
 11
-29.7896
 21
-51.0022
  0
LINE
  8
0
 10
-29.7896
 20
-51.0022
 11
-30.9484
 21
-51.1858
  0
LINE
  8
0
 10
-30.9484
 20
-51.1858
 11
-32.2397
 21
-51.247
  0
LINE
  8
0
 10
-32.2397
 20
-51.247
 11
-35.6747
 21
-51.247
  0
LINE
  8
0
 10
-35.6747
 20
-51.247
 11
-35.6747
 21
-59.375
  0
LINE
  8
0
 10
-35.6747
 20
-59.375
 11
-38.4267
 21
-59.375
  0
LINE
  8
0
 10
-31.5116
 20
-48.9674
 11
-30.8527
 21
-48.8484
  0
LINE
  8
0
 10
-30.8527
 20
-48.8484
 11
-30.2631
 21
-48.6503
  0
LINE
  8
0
 10
-30.2631
 20
-48.6503
 11
-29.7428
 21
-48.3728
  0
LINE
  8
0
 10
-29.7428
 20
-48.3728
 11
-29.2917
 21
-48.016
  0
LINE
  8
0
 10
-29.2917
 20
-48.016
 11
-28.917
 21
-47.5859
  0
LINE
  8
0
 10
-28.917
 20
-47.5859
 11
-28.6255
 21
-47.0885
  0
LINE
  8
0
 10
-28.6255
 20
-47.0885
 11
-28.4173
 21
-46.5237
  0
LINE
  8
0
 10
-28.4173
 20
-46.5237
 11
-28.2924
 21
-45.8915
  0
LINE
  8
0
 10
-28.2924
 20
-45.8915
 11
-28.2507
 21
-45.192
  0
LINE
  8
0
 10
-28.2507
 20
-45.192
 11
-28.2924
 21
-44.4975
  0
LINE
  8
0
 10
-28.2924
 20
-44.4975
 11
-28.4173
 21
-43.8693
  0
LINE
  8
0
 10
-28.4173
 20
-43.8693
 11
-28.6255
 21
-43.3073
  0
LINE
  8
0
 10
-28.6255
 20
-43.3073
 11
-28.917
 21
-42.8115
  0
LINE
  8
0
 10
-28.917
 20
-42.8115
 11
-29.2917
 21
-42.382
  0
LINE
  8
0
 10
-29.2917
 20
-42.382
 11
-29.7428
 21
-42.0253
  0
LINE
  8
0
 10
-29.7428
 20
-42.0253
 11
-30.2631
 21
-41.7478
  0
LINE
  8
0
 10
-30.2631
 20
-41.7478
 11
-30.8527
 21
-41.5496
  0
LINE
  8
0
 10
-30.8527
 20
-41.5496
 11
-31.5116
 21
-41.4306
  0
LINE
  8
0
 10
-31.5116
 20
-41.4306
 11
-32.2397
 21
-41.391
  0
LINE
  8
0
 10
-32.2397
 20
-41.391
 11
-35.6747
 21
-41.391
  0
LINE
  8
0
 10
-35.6747
 20
-41.391
 11
-35.6747
 21
-49.007
  0
LINE
  8
0
 10
-35.6747
 20
-49.007
 11
-32.2397
 21
-49.007
  0
LINE
  8
0
 10
-32.2397
 20
-49.007
 11
-31.5116
 21
-48.9674
  0
LINE
  8
0
 10
126.183
 20
-59.375
 11
126.183
 21
-39.151
  0
LINE
  8
0
 10
126.183
 20
-39.151
 11
138.983
 21
-39.151
  0
LINE
  8
0
 10
138.983
 20
-39.151
 11
138.983
 21
-41.455
  0
LINE
  8
0
 10
138.983
 20
-41.455
 11
128.935
 21
-41.455
  0
LINE
  8
0
 10
128.935
 20
-41.455
 11
128.935
 21
-47.407
  0
LINE
  8
0
 10
128.935
 20
-47.407
 11
138.599
 21
-47.407
  0
LINE
  8
0
 10
138.599
 20
-47.407
 11
138.599
 21
-49.711
  0
LINE
  8
0
 10
138.599
 20
-49.711
 11
128.935
 21
-49.711
  0
LINE
  8
0
 10
128.935
 20
-49.711
 11
128.935
 21
-57.071
  0
LINE
  8
0
 10
128.935
 20
-57.071
 11
139.239
 21
-57.071
  0
LINE
  8
0
 10
139.239
 20
-57.071
 11
139.239
 21
-59.375
  0
LINE
  8
0
 10
139.239
 20
-59.375
 11
126.183
 21
-59.375
  0
LINE
  8
0
 10
97.752
 20
-59.375
 11
97.752
 21
-39.151
  0
LINE
  8
0
 10
97.752
 20
-39.151
 11
100.504
 21
-39.151
  0
LINE
  8
0
 10
100.504
 20
-39.151
 11
100.504
 21
-59.375
  0
LINE
  8
0
 10
100.504
 20
-59.375
 11
97.752
 21
-59.375
  0
LINE
  8
0
 10
64.6472
 20
-59.375
 11
56.9142
 21
-39.151
  0
LINE
  8
0
 10
56.9142
 20
-39.151
 11
59.7772
 21
-39.151
  0
LINE
  8
0
 10
59.7772
 20
-39.151
 11
66.1942
 21
-56.178
  0
LINE
  8
0
 10
66.1942
 20
-56.178
 11
72.6252
 21
-39.151
  0
LINE
  8
0
 10
72.6252
 20
-39.151
 11
75.4742
 21
-39.151
  0
LINE
  8
0
 10
75.4742
 20
-39.151
 11
67.7542
 21
-59.375
  0
LINE
  8
0
 10
67.7542
 20
-59.375
 11
64.6472
 21
-59.375
  0
LINE
  8
0
 10
-172.691
 20
-59.375
 11
-172.691
 21
-39.151
  0
LINE
  8
0
 10
-172.691
 20
-39.151
 11
-167.05
 21
-39.151
  0
LINE
  8
0
 10
-167.05
 20
-39.151
 11
-164.823
 21
-39.2488
  0
LINE
  8
0
 10
-164.823
 20
-39.2488
 11
-162.846
 21
-39.5422
  0
LINE
  8
0
 10
-162.846
 20
-39.5422
 11
-161.12
 21
-40.0312
  0
LINE
  8
0
 10
-161.12
 20
-40.0312
 11
-159.644
 21
-40.7158
  0
LINE
  8
0
 10
-159.644
 20
-40.7158
 11
-158.418
 21
-41.596
  0
LINE
  8
0
 10
-158.418
 20
-41.596
 11
-157.428
 21
-42.6843
  0
LINE
  8
0
 10
-157.428
 20
-42.6843
 11
-156.658
 21
-43.9931
  0
LINE
  8
0
 10
-156.658
 20
-43.9931
 11
-156.108
 21
-45.5225
  0
LINE
  8
0
 10
-156.108
 20
-45.5225
 11
-155.777
 21
-47.2725
  0
LINE
  8
0
 10
-155.777
 20
-47.2725
 11
-155.667
 21
-49.243
  0
LINE
  8
0
 10
-155.667
 20
-49.243
 11
-155.778
 21
-51.2232
  0
LINE
  8
0
 10
-155.778
 20
-51.2232
 11
-156.11
 21
-52.9812
  0
LINE
  8
0
 10
-156.11
 20
-52.9812
 11
-156.663
 21
-54.5172
  0
LINE
  8
0
 10
-156.663
 20
-54.5172
 11
-157.437
 21
-55.8311
  0
LINE
  8
0
 10
-157.437
 20
-55.8311
 11
-158.432
 21
-56.923
  0
LINE
  8
0
 10
-158.432
 20
-56.923
 11
-159.662
 21
-57.8057
  0
LINE
  8
0
 10
-159.662
 20
-57.8057
 11
-161.138
 21
-58.4923
  0
LINE
  8
0
 10
-161.138
 20
-58.4923
 11
-162.862
 21
-58.9827
  0
LINE
  8
0
 10
-162.862
 20
-58.9827
 11
-164.832
 21
-59.2769
  0
LINE
  8
0
 10
-164.832
 20
-59.2769
 11
-167.05
 21
-59.375
  0
LINE
  8
0
 10
-167.05
 20
-59.375
 11
-172.691
 21
-59.375
  0
LINE
  8
0
 10
-165.044
 20
-57.0591
 11
-163.637
 21
-56.8313
  0
LINE
  8
0
 10
-163.637
 20
-56.8313
 11
-162.409
 21
-56.4517
  0
LINE
  8
0
 10
-162.409
 20
-56.4517
 11
-161.362
 21
-55.9203
  0
LINE
  8
0
 10
-161.362
 20
-55.9203
 11
-160.493
 21
-55.237
  0
LINE
  8
0
 10
-160.493
 20
-55.237
 11
-159.793
 21
-54.3896
  0
LINE
  8
0
 10
-159.793
 20
-54.3896
 11
-159.248
 21
-53.3664
  0
LINE
  8
0
 10
-159.248
 20
-53.3664
 11
-158.859
 21
-52.1676
  0
LINE
  8
0
 10
-158.859
 20
-52.1676
 11
-158.625
 21
-50.7932
  0
LINE
  8
0
 10
-158.625
 20
-50.7932
 11
-158.547
 21
-49.243
  0
LINE
  8
0
 10
-158.547
 20
-49.243
 11
-158.625
 21
-47.7025
  0
LINE
  8
0
 10
-158.625
 20
-47.7025
 11
-158.859
 21
-46.3363
  0
LINE
  8
0
 10
-158.859
 20
-46.3363
 11
-159.248
 21
-45.1443
  0
LINE
  8
0
 10
-159.248
 20
-45.1443
 11
-159.793
 21
-44.1265
  0
LINE
  8
0
 10
-159.793
 20
-44.1265
 11
-160.493
 21
-43.283
  0
LINE
  8
0
 10
-160.493
 20
-43.283
 11
-161.362
 21
-42.6019
  0
LINE
  8
0
 10
-161.362
 20
-42.6019
 11
-162.409
 21
-42.0721
  0
LINE
  8
0
 10
-162.409
 20
-42.0721
 11
-163.637
 21
-41.6937
  0
LINE
  8
0
 10
-163.637
 20
-41.6937
 11
-165.044
 21
-41.4667
  0
LINE
  8
0
 10
-165.044
 20
-41.4667
 11
-166.63
 21
-41.391
  0
LINE
  8
0
 10
-166.63
 20
-41.391
 11
-169.939
 21
-41.391
  0
LINE
  8
0
 10
-169.939
 20
-41.391
 11
-169.939
 21
-57.135
  0
LINE
  8
0
 10
-169.939
 20
-57.135
 11
-166.63
 21
-57.135
  0
LINE
  8
0
 10
-166.63
 20
-57.135
 11
-165.044
 21
-57.0591
  0
LINE
  8
0
 10
-165.842
 20
-92.746
 11
-166.44
 21
-92.7072
  0
LINE
  8
0
 10
-166.44
 20
-92.7072
 11
-167.053
 21
-92.6423
  0
LINE
  8
0
 10
-167.053
 20
-92.6423
 11
-167.681
 21
-92.5516
  0
LINE
  8
0
 10
-167.681
 20
-92.5516
 11
-168.324
 21
-92.435
  0
LINE
  8
0
 10
-168.324
 20
-92.435
 11
-168.978
 21
-92.2934
  0
LINE
  8
0
 10
-168.978
 20
-92.2934
 11
-169.642
 21
-92.127
  0
LINE
  8
0
 10
-169.642
 20
-92.127
 11
-170.315
 21
-91.9358
  0
LINE
  8
0
 10
-170.315
 20
-91.9358
 11
-170.997
 21
-91.7198
  0
LINE
  8
0
 10
-170.997
 20
-91.7198
 11
-171.689
 21
-91.479
  0
LINE
  8
0
 10
-171.689
 20
-91.479
 11
-171.689
 21
-88.663
  0
LINE
  8
0
 10
-171.689
 20
-88.663
 11
-171.023
 21
-89.0133
  0
LINE
  8
0
 10
-171.023
 20
-89.0133
 11
-170.363
 21
-89.3273
  0
LINE
  8
0
 10
-170.363
 20
-89.3273
 11
-169.709
 21
-89.6051
  0
LINE
  8
0
 10
-169.709
 20
-89.6051
 11
-169.059
 21
-89.8467
  0
LINE
  8
0
 10
-169.059
 20
-89.8467
 11
-168.416
 21
-90.052
  0
LINE
  8
0
 10
-168.416
 20
-90.052
 11
-167.777
 21
-90.2201
  0
LINE
  8
0
 10
-167.777
 20
-90.2201
 11
-167.142
 21
-90.3509
  0
LINE
  8
0
 10
-167.142
 20
-90.3509
 11
-166.512
 21
-90.4443
  0
LINE
  8
0
 10
-166.512
 20
-90.4443
 11
-165.886
 21
-90.5003
  0
LINE
  8
0
 10
-165.886
 20
-90.5003
 11
-165.264
 21
-90.519
  0
LINE
  8
0
 10
-165.264
 20
-90.519
 11
-164.367
 21
-90.4823
  0
LINE
  8
0
 10
-164.367
 20
-90.4823
 11
-163.556
 21
-90.3721
  0
LINE
  8
0
 10
-163.556
 20
-90.3721
 11
-162.831
 21
-90.1885
  0
LINE
  8
0
 10
-162.831
 20
-90.1885
 11
-162.192
 21
-89.9315
  0
LINE
  8
0
 10
-162.192
 20
-89.9315
 11
-161.638
 21
-89.601
  0
LINE
  8
0
 10
-161.638
 20
-89.601
 11
-161.178
 21
-89.2025
  0
LINE
  8
0
 10
-161.178
 20
-89.2025
 11
-160.821
 21
-88.7415
  0
LINE
  8
0
 10
-160.821
 20
-88.7415
 11
-160.565
 21
-88.2179
  0
LINE
  8
0
 10
-160.565
 20
-88.2179
 11
-160.412
 21
-87.6317
  0
LINE
  8
0
 10
-160.412
 20
-87.6317
 11
-160.361
 21
-86.983
  0
LINE
  8
0
 10
-160.361
 20
-86.983
 11
-160.398
 21
-86.4149
  0
LINE
  8
0
 10
-160.398
 20
-86.4149
 11
-160.507
 21
-85.8987
  0
LINE
  8
0
 10
-160.507
 20
-85.8987
 11
-160.691
 21
-85.4343
  0
LINE
  8
0
 10
-160.691
 20
-85.4343
 11
-160.947
 21
-85.0217
  0
LINE
  8
0
 10
-160.947
 20
-85.0217
 11
-161.277
 21
-84.661
  0
LINE
  8
0
 10
-161.277
 20
-84.661
 11
-161.69
 21
-84.343
  0
LINE
  8
0
 10
-161.69
 20
-84.343
 11
-162.197
 21
-84.0584
  0
LINE
  8
0
 10
-162.197
 20
-84.0584
 11
-162.798
 21
-83.8074
  0
LINE
  8
0
 10
-162.798
 20
-83.8074
 11
-163.492
 21
-83.59
  0
LINE
  8
0
 10
-163.492
 20
-83.59
 11
-164.281
 21
-83.406
  0
LINE
  8
0
 10
-164.281
 20
-83.406
 11
-165.949
 21
-83.08
  0
LINE
  8
0
 10
-165.949
 20
-83.08
 11
-167.107
 21
-82.8083
  0
LINE
  8
0
 10
-167.107
 20
-82.8083
 11
-168.13
 21
-82.4813
  0
LINE
  8
0
 10
-168.13
 20
-82.4813
 11
-169.017
 21
-82.0989
  0
LINE
  8
0
 10
-169.017
 20
-82.0989
 11
-169.768
 21
-81.6611
  0
LINE
  8
0
 10
-169.768
 20
-81.6611
 11
-170.384
 21
-81.168
  0
LINE
  8
0
 10
-170.384
 20
-81.168
 11
-170.877
 21
-80.6062
  0
LINE
  8
0
 10
-170.877
 20
-80.6062
 11
-171.26
 21
-79.963
  0
LINE
  8
0
 10
-171.26
 20
-79.963
 11
-171.534
 21
-79.2386
  0
LINE
  8
0
 10
-171.534
 20
-79.2386
 11
-171.698
 21
-78.433
  0
LINE
  8
0
 10
-171.698
 20
-78.433
 11
-171.753
 21
-77.546
  0
LINE
  8
0
 10
-171.753
 20
-77.546
 11
-171.677
 21
-76.5172
  0
LINE
  8
0
 10
-171.677
 20
-76.5172
 11
-171.45
 21
-75.5796
  0
LINE
  8
0
 10
-171.45
 20
-75.5796
 11
-171.071
 21
-74.7332
  0
LINE
  8
0
 10
-171.071
 20
-74.7332
 11
-170.54
 21
-73.978
  0
LINE
  8
0
 10
-170.54
 20
-73.978
 11
-169.858
 21
-73.314
  0
LINE
  8
0
 10
-169.858
 20
-73.314
 11
-169.043
 21
-72.7571
  0
LINE
  8
0
 10
-169.043
 20
-72.7571
 11
-168.112
 21
-72.3239
  0
LINE
  8
0
 10
-168.112
 20
-72.3239
 11
-167.068
 21
-72.0145
  0
LINE
  8
0
 10
-167.068
 20
-72.0145
 11
-165.908
 21
-71.8289
  0
LINE
  8
0
 10
-165.908
 20
-71.8289
 11
-164.634
 21
-71.767
  0
LINE
  8
0
 10
-164.634
 20
-71.767
 11
-164.061
 21
-71.7773
  0
LINE
  8
0
 10
-164.061
 20
-71.7773
 11
-163.484
 21
-71.808
  0
LINE
  8
0
 10
-163.484
 20
-71.808
 11
-162.903
 21
-71.8592
  0
LINE
  8
0
 10
-162.903
 20
-71.8592
 11
-162.317
 21
-71.9308
  0
LINE
  8
0
 10
-162.317
 20
-71.9308
 11
-161.727
 21
-72.023
  0
LINE
  8
0
 10
-161.727
 20
-72.023
 11
-161.132
 21
-72.1357
  0
LINE
  8
0
 10
-161.132
 20
-72.1357
 11
-160.531
 21
-72.2688
  0
LINE
  8
0
 10
-160.531
 20
-72.2688
 11
-159.925
 21
-72.4224
  0
LINE
  8
0
 10
-159.925
 20
-72.4224
 11
-159.314
 21
-72.5965
  0
LINE
  8
0
 10
-159.314
 20
-72.5965
 11
-158.697
 21
-72.791
  0
LINE
  8
0
 10
-158.697
 20
-72.791
 11
-158.697
 21
-75.479
  0
LINE
  8
0
 10
-158.697
 20
-75.479
 11
-159.315
 21
-75.197
  0
LINE
  8
0
 10
-159.315
 20
-75.197
 11
-159.919
 21
-74.9453
  0
LINE
  8
0
 10
-159.919
 20
-74.9453
 11
-160.509
 21
-74.7238
  0
LINE
  8
0
 10
-160.509
 20
-74.7238
 11
-161.085
 21
-74.5328
  0
LINE
  8
0
 10
-161.085
 20
-74.5328
 11
-161.647
 21
-74.372
  0
LINE
  8
0
 10
-161.647
 20
-74.372
 11
-162.198
 21
-74.2406
  0
LINE
  8
0
 10
-162.198
 20
-74.2406
 11
-162.741
 21
-74.1384
  0
LINE
  8
0
 10
-162.741
 20
-74.1384
 11
-163.276
 21
-74.0654
  0
LINE
  8
0
 10
-163.276
 20
-74.0654
 11
-163.804
 21
-74.0216
  0
LINE
  8
0
 10
-163.804
 20
-74.0216
 11
-164.325
 21
-74.007
  0
LINE
  8
0
 10
-164.325
 20
-74.007
 11
-165.181
 21
-74.0417
  0
LINE
  8
0
 10
-165.181
 20
-74.0417
 11
-165.955
 21
-74.1457
  0
LINE
  8
0
 10
-165.955
 20
-74.1457
 11
-166.647
 21
-74.3191
  0
LINE
  8
0
 10
-166.647
 20
-74.3191
 11
-167.257
 21
-74.5619
  0
LINE
  8
0
 10
-167.257
 20
-74.5619
 11
-167.785
 21
-74.874
  0
LINE
  8
0
 10
-167.785
 20
-74.874
 11
-168.223
 21
-75.2497
  0
LINE
  8
0
 10
-168.223
 20
-75.2497
 11
-168.563
 21
-75.6839
  0
LINE
  8
0
 10
-168.563
 20
-75.6839
 11
-168.806
 21
-76.1767
  0
LINE
  8
0
 10
-168.806
 20
-76.1767
 11
-168.952
 21
-76.7281
  0
LINE
  8
0
 10
-168.952
 20
-76.7281
 11
-169.001
 21
-77.338
  0
LINE
  8
0
 10
-169.001
 20
-77.338
 11
-168.969
 21
-77.8478
  0
LINE
  8
0
 10
-168.969
 20
-77.8478
 11
-168.872
 21
-78.3051
  0
LINE
  8
0
 10
-168.872
 20
-78.3051
 11
-168.71
 21
-78.7099
  0
LINE
  8
0
 10
-168.71
 20
-78.7099
 11
-168.484
 21
-79.0622
  0
LINE
  8
0
 10
-168.484
 20
-79.0622
 11
-168.194
 21
-79.362
  0
LINE
  8
0
 10
-168.194
 20
-79.362
 11
-167.813
 21
-79.6247
  0
LINE
  8
0
 10
-167.813
 20
-79.6247
 11
-167.317
 21
-79.8663
  0
LINE
  8
0
 10
-167.317
 20
-79.8663
 11
-166.705
 21
-80.0869
  0
LINE
  8
0
 10
-166.705
 20
-80.0869
 11
-165.978
 21
-80.2865
  0
LINE
  8
0
 10
-165.978
 20
-80.2865
 11
-165.135
 21
-80.465
  0
LINE
  8
0
 10
-165.135
 20
-80.465
 11
-163.481
 21
-80.804
  0
LINE
  8
0
 10
-163.481
 20
-80.804
 11
-162.315
 21
-81.0723
  0
LINE
  8
0
 10
-162.315
 20
-81.0723
 11
-161.279
 21
-81.4115
  0
LINE
  8
0
 10
-161.279
 20
-81.4115
 11
-160.372
 21
-81.8217
  0
LINE
  8
0
 10
-160.372
 20
-81.8217
 11
-159.593
 21
-82.3029
  0
LINE
  8
0
 10
-159.593
 20
-82.3029
 11
-158.944
 21
-82.855
  0
LINE
  8
0
 10
-158.944
 20
-82.855
 11
-158.417
 21
-83.4824
  0
LINE
  8
0
 10
-158.417
 20
-83.4824
 11
-158.008
 21
-84.1894
  0
LINE
  8
0
 10
-158.008
 20
-84.1894
 11
-157.715
 21
-84.976
  0
LINE
  8
0
 10
-157.715
 20
-84.976
 11
-157.539
 21
-85.8422
  0
LINE
  8
0
 10
-157.539
 20
-85.8422
 11
-157.481
 21
-86.788
  0
LINE
  8
0
 10
-157.481
 20
-86.788
 11
-157.56
 21
-87.9064
  0
LINE
  8
0
 10
-157.56
 20
-87.9064
 11
-157.797
 21
-88.911
  0
LINE
  8
0
 10
-157.797
 20
-88.911
 11
-158.193
 21
-89.802
  0
LINE
  8
0
 10
-158.193
 20
-89.802
 11
-158.747
 21
-90.5793
  0
LINE
  8
0
 10
-158.747
 20
-90.5793
 11
-159.459
 21
-91.243
  0
LINE
  8
0
 10
-159.459
 20
-91.243
 11
-160.324
 21
-91.7888
  0
LINE
  8
0
 10
-160.324
 20
-91.7888
 11
-161.336
 21
-92.2132
  0
LINE
  8
0
 10
-161.336
 20
-92.2132
 11
-162.496
 21
-92.5164
  0
LINE
  8
0
 10
-162.496
 20
-92.5164
 11
-163.803
 21
-92.6983
  0
LINE
  8
0
 10
-163.803
 20
-92.6983
 11
-165.258
 21
-92.759
  0
LINE
  8
0
 10
-165.258
 20
-92.759
 11
-165.842
 21
-92.746
  0
LINE
  8
0
 10
-98.8127
 20
-92.6465
 11
-100.416
 21
-92.3091
  0
LINE
  8
0
 10
-100.416
 20
-92.3091
 11
-101.864
 21
-91.7467
  0
LINE
  8
0
 10
-101.864
 20
-91.7467
 11
-103.155
 21
-90.9593
  0
LINE
  8
0
 10
-103.155
 20
-90.9593
 11
-104.291
 21
-89.947
  0
LINE
  8
0
 10
-104.291
 20
-89.947
 11
-105.242
 21
-88.7401
  0
LINE
  8
0
 10
-105.242
 20
-88.7401
 11
-105.982
 21
-87.3689
  0
LINE
  8
0
 10
-105.982
 20
-87.3689
 11
-106.511
 21
-85.8335
  0
LINE
  8
0
 10
-106.511
 20
-85.8335
 11
-106.828
 21
-84.1339
  0
LINE
  8
0
 10
-106.828
 20
-84.1339
 11
-106.934
 21
-82.27
  0
LINE
  8
0
 10
-106.934
 20
-82.27
 11
-106.828
 21
-80.4011
  0
LINE
  8
0
 10
-106.828
 20
-80.4011
 11
-106.511
 21
-78.6975
  0
LINE
  8
0
 10
-106.511
 20
-78.6975
 11
-105.982
 21
-77.1593
  0
LINE
  8
0
 10
-105.982
 20
-77.1593
 11
-105.242
 21
-75.7865
  0
LINE
  8
0
 10
-105.242
 20
-75.7865
 11
-104.291
 21
-74.579
  0
LINE
  8
0
 10
-104.291
 20
-74.579
 11
-103.155
 21
-73.5667
  0
LINE
  8
0
 10
-103.155
 20
-73.5667
 11
-101.864
 21
-72.7793
  0
LINE
  8
0
 10
-101.864
 20
-72.7793
 11
-100.416
 21
-72.2169
  0
LINE
  8
0
 10
-100.416
 20
-72.2169
 11
-98.8127
 21
-71.8795
  0
LINE
  8
0
 10
-98.8127
 20
-71.8795
 11
-97.0527
 21
-71.767
  0
LINE
  8
0
 10
-97.0527
 20
-71.767
 11
-96.3344
 21
-71.7862
  0
LINE
  8
0
 10
-96.3344
 20
-71.7862
 11
-95.6329
 21
-71.8438
  0
LINE
  8
0
 10
-95.6329
 20
-71.8438
 11
-94.9483
 21
-71.9398
  0
LINE
  8
0
 10
-94.9483
 20
-71.9398
 11
-94.2806
 21
-72.0742
  0
LINE
  8
0
 10
-94.2806
 20
-72.0742
 11
-93.6297
 21
-72.247
  0
LINE
  8
0
 10
-93.6297
 20
-72.247
 11
-92.9952
 21
-72.4582
  0
LINE
  8
0
 10
-92.9952
 20
-72.4582
 11
-92.3763
 21
-72.7078
  0
LINE
  8
0
 10
-92.3763
 20
-72.7078
 11
-91.7731
 21
-72.9958
  0
LINE
  8
0
 10
-91.7731
 20
-72.9958
 11
-91.1856
 21
-73.3222
  0
LINE
  8
0
 10
-91.1856
 20
-73.3222
 11
-90.6137
 21
-73.687
  0
LINE
  8
0
 10
-90.6137
 20
-73.687
 11
-90.6137
 21
-76.567
  0
LINE
  8
0
 10
-90.6137
 20
-76.567
 11
-91.1743
 21
-76.0782
  0
LINE
  8
0
 10
-91.1743
 20
-76.0782
 11
-91.7496
 21
-75.6416
  0
LINE
  8
0
 10
-91.7496
 20
-75.6416
 11
-92.3396
 21
-75.257
  0
LINE
  8
0
 10
-92.3396
 20
-75.257
 11
-92.9443
 21
-74.9245
  0
LINE
  8
0
 10
-92.9443
 20
-74.9245
 11
-93.5637
 21
-74.644
  0
LINE
  8
0
 10
-93.5637
 20
-74.644
 11
-94.198
 21
-74.4147
  0
LINE
  8
0
 10
-94.198
 20
-74.4147
 11
-94.8481
 21
-74.2363
  0
LINE
  8
0
 10
-94.8481
 20
-74.2363
 11
-95.5139
 21
-74.1089
  0
LINE
  8
0
 10
-95.5139
 20
-74.1089
 11
-96.1954
 21
-74.0325
  0
LINE
  8
0
 10
-96.1954
 20
-74.0325
 11
-96.8927
 21
-74.007
  0
LINE
  8
0
 10
-96.8927
 20
-74.007
 11
-98.2165
 21
-74.092
  0
LINE
  8
0
 10
-98.2165
 20
-74.092
 11
-99.41
 21
-74.3468
  0
LINE
  8
0
 10
-99.41
 20
-74.3468
 11
-100.473
 21
-74.7717
  0
LINE
  8
0
 10
-100.473
 20
-74.7717
 11
-101.407
 21
-75.3664
  0
LINE
  8
0
 10
-101.407
 20
-75.3664
 11
-102.21
 21
-76.131
  0
LINE
  8
0
 10
-102.21
 20
-76.131
 11
-102.874
 21
-77.0559
  0
LINE
  8
0
 10
-102.874
 20
-77.0559
 11
-103.39
 21
-78.1323
  0
LINE
  8
0
 10
-103.39
 20
-78.1323
 11
-103.759
 21
-79.3601
  0
LINE
  8
0
 10
-103.759
 20
-79.3601
 11
-103.98
 21
-80.7393
  0
LINE
  8
0
 10
-103.98
 20
-80.7393
 11
-104.054
 21
-82.27
  0
LINE
  8
0
 10
-104.054
 20
-82.27
 11
-103.98
 21
-83.7957
  0
LINE
  8
0
 10
-103.98
 20
-83.7957
 11
-103.759
 21
-85.1711
  0
LINE
  8
0
 10
-103.759
 20
-85.1711
 11
-103.39
 21
-86.3963
  0
LINE
  8
0
 10
-103.39
 20
-86.3963
 11
-102.874
 21
-87.4713
  0
LINE
  8
0
 10
-102.874
 20
-87.4713
 11
-102.21
 21
-88.396
  0
LINE
  8
0
 10
-102.21
 20
-88.396
 11
-101.407
 21
-89.1603
  0
LINE
  8
0
 10
-101.407
 20
-89.1603
 11
-100.473
 21
-89.7547
  0
LINE
  8
0
 10
-100.473
 20
-89.7547
 11
-99.41
 21
-90.1793
  0
LINE
  8
0
 10
-99.41
 20
-90.1793
 11
-98.2165
 21
-90.4341
  0
LINE
  8
0
 10
-98.2165
 20
-90.4341
 11
-96.8927
 21
-90.519
  0
LINE
  8
0
 10
-96.8927
 20
-90.519
 11
-96.1954
 21
-90.4929
  0
LINE
  8
0
 10
-96.1954
 20
-90.4929
 11
-95.5139
 21
-90.4147
  0
LINE
  8
0
 10
-95.5139
 20
-90.4147
 11
-94.8481
 21
-90.2843
  0
LINE
  8
0
 10
-94.8481
 20
-90.2843
 11
-94.198
 21
-90.1017
  0
LINE
  8
0
 10
-94.198
 20
-90.1017
 11
-93.5637
 21
-89.867
  0
LINE
  8
0
 10
-93.5637
 20
-89.867
 11
-92.9443
 21
-89.5791
  0
LINE
  8
0
 10
-92.9443
 20
-89.5791
 11
-92.3396
 21
-89.238
  0
LINE
  8
0
 10
-92.3396
 20
-89.238
 11
-91.7496
 21
-88.8436
  0
LINE
  8
0
 10
-91.7496
 20
-88.8436
 11
-91.1743
 21
-88.396
  0
LINE
  8
0
 10
-91.1743
 20
-88.396
 11
-90.6137
 21
-87.895
  0
LINE
  8
0
 10
-90.6137
 20
-87.895
 11
-90.6137
 21
-90.775
  0
LINE
  8
0
 10
-90.6137
 20
-90.775
 11
-91.1953
 21
-91.1519
  0
LINE
  8
0
 10
-91.1953
 20
-91.1519
 11
-91.7904
 21
-91.4892
  0
LINE
  8
0
 10
-91.7904
 20
-91.4892
 11
-92.399
 21
-91.7868
  0
LINE
  8
0
 10
-92.399
 20
-91.7868
 11
-93.0211
 21
-92.0448
  0
LINE
  8
0
 10
-93.0211
 20
-92.0448
 11
-93.6567
 21
-92.263
  0
LINE
  8
0
 10
-93.6567
 20
-92.263
 11
-94.3065
 21
-92.4416
  0
LINE
  8
0
 10
-94.3065
 20
-92.4416
 11
-94.971
 21
-92.5804
  0
LINE
  8
0
 10
-94.971
 20
-92.5804
 11
-95.6502
 21
-92.6796
  0
LINE
  8
0
 10
-95.6502
 20
-92.6796
 11
-96.3441
 21
-92.7392
  0
LINE
  8
0
 10
-96.3441
 20
-92.7392
 11
-97.0527
 21
-92.759
  0
LINE
  8
0
 10
-97.0527
 20
-92.759
 11
-98.8127
 21
-92.6465
  0
LINE
  8
0
 10
-33.8416
 20
-92.746
 11
-34.4401
 21
-92.7072
  0
LINE
  8
0
 10
-34.4401
 20
-92.7072
 11
-35.0533
 21
-92.6423
  0
LINE
  8
0
 10
-35.0533
 20
-92.6423
 11
-35.6812
 21
-92.5516
  0
LINE
  8
0
 10
-35.6812
 20
-92.5516
 11
-36.3239
 21
-92.435
  0
LINE
  8
0
 10
-36.3239
 20
-92.435
 11
-36.9785
 21
-92.2934
  0
LINE
  8
0
 10
-36.9785
 20
-92.2934
 11
-37.6423
 21
-92.127
  0
LINE
  8
0
 10
-37.6423
 20
-92.127
 11
-38.3153
 21
-91.9358
  0
LINE
  8
0
 10
-38.3153
 20
-91.9358
 11
-38.9975
 21
-91.7198
  0
LINE
  8
0
 10
-38.9975
 20
-91.7198
 11
-39.6889
 21
-91.479
  0
LINE
  8
0
 10
-39.6889
 20
-91.479
 11
-39.6889
 21
-88.663
  0
LINE
  8
0
 10
-39.6889
 20
-88.663
 11
-39.0232
 21
-89.0133
  0
LINE
  8
0
 10
-39.0232
 20
-89.0133
 11
-38.3631
 21
-89.3273
  0
LINE
  8
0
 10
-38.3631
 20
-89.3273
 11
-37.7085
 21
-89.6051
  0
LINE
  8
0
 10
-37.7085
 20
-89.6051
 11
-37.0594
 21
-89.8467
  0
LINE
  8
0
 10
-37.0594
 20
-89.8467
 11
-36.4159
 21
-90.052
  0
LINE
  8
0
 10
-36.4159
 20
-90.052
 11
-35.7768
 21
-90.2201
  0
LINE
  8
0
 10
-35.7768
 20
-90.2201
 11
-35.1421
 21
-90.3509
  0
LINE
  8
0
 10
-35.1421
 20
-90.3509
 11
-34.5117
 21
-90.4443
  0
LINE
  8
0
 10
-34.5117
 20
-90.4443
 11
-33.8856
 21
-90.5003
  0
LINE
  8
0
 10
-33.8856
 20
-90.5003
 11
-33.2639
 21
-90.519
  0
LINE
  8
0
 10
-33.2639
 20
-90.519
 11
-32.3672
 21
-90.4823
  0
LINE
  8
0
 10
-32.3672
 20
-90.4823
 11
-31.5562
 21
-90.3721
  0
LINE
  8
0
 10
-31.5562
 20
-90.3721
 11
-30.831
 21
-90.1885
  0
LINE
  8
0
 10
-30.831
 20
-90.1885
 11
-30.1916
 21
-89.9315
  0
LINE
  8
0
 10
-30.1916
 20
-89.9315
 11
-29.6379
 21
-89.601
  0
LINE
  8
0
 10
-29.6379
 20
-89.601
 11
-29.1782
 21
-89.2025
  0
LINE
  8
0
 10
-29.1782
 20
-89.2025
 11
-28.8206
 21
-88.7415
  0
LINE
  8
0
 10
-28.8206
 20
-88.7415
 11
-28.5652
 21
-88.2179
  0
LINE
  8
0
 10
-28.5652
 20
-88.2179
 11
-28.412
 21
-87.6317
  0
LINE
  8
0
 10
-28.412
 20
-87.6317
 11
-28.3609
 21
-86.983
  0
LINE
  8
0
 10
-28.3609
 20
-86.983
 11
-28.3975
 21
-86.4149
  0
LINE
  8
0
 10
-28.3975
 20
-86.4149
 11
-28.5075
 21
-85.8987
  0
LINE
  8
0
 10
-28.5075
 20
-85.8987
 11
-28.6907
 21
-85.4343
  0
LINE
  8
0
 10
-28.6907
 20
-85.4343
 11
-28.9471
 21
-85.0217
  0
LINE
  8
0
 10
-28.9471
 20
-85.0217
 11
-29.2769
 21
-84.661
  0
LINE
  8
0
 10
-29.2769
 20
-84.661
 11
-29.6898
 21
-84.343
  0
LINE
  8
0
 10
-29.6898
 20
-84.343
 11
-30.1967
 21
-84.0584
  0
LINE
  8
0
 10
-30.1967
 20
-84.0584
 11
-30.7975
 21
-83.8074
  0
LINE
  8
0
 10
-30.7975
 20
-83.8074
 11
-31.4922
 21
-83.59
  0
LINE
  8
0
 10
-31.4922
 20
-83.59
 11
-32.2809
 21
-83.406
  0
LINE
  8
0
 10
-32.2809
 20
-83.406
 11
-33.9489
 21
-83.08
  0
LINE
  8
0
 10
-33.9489
 20
-83.08
 11
-35.1071
 21
-82.8083
  0
LINE
  8
0
 10
-35.1071
 20
-82.8083
 11
-36.1297
 21
-82.4813
  0
LINE
  8
0
 10
-36.1297
 20
-82.4813
 11
-37.0167
 21
-82.0989
  0
LINE
  8
0
 10
-37.0167
 20
-82.0989
 11
-37.7681
 21
-81.6611
  0
LINE
  8
0
 10
-37.7681
 20
-81.6611
 11
-38.3839
 21
-81.168
  0
LINE
  8
0
 10
-38.3839
 20
-81.168
 11
-38.8767
 21
-80.6062
  0
LINE
  8
0
 10
-38.8767
 20
-80.6062
 11
-39.26
 21
-79.963
  0
LINE
  8
0
 10
-39.26
 20
-79.963
 11
-39.5338
 21
-79.2386
  0
LINE
  8
0
 10
-39.5338
 20
-79.2386
 11
-39.6981
 21
-78.433
  0
LINE
  8
0
 10
-39.6981
 20
-78.433
 11
-39.7529
 21
-77.546
  0
LINE
  8
0
 10
-39.7529
 20
-77.546
 11
-39.6771
 21
-76.5172
  0
LINE
  8
0
 10
-39.6771
 20
-76.5172
 11
-39.4497
 21
-75.5796
  0
LINE
  8
0
 10
-39.4497
 20
-75.5796
 11
-39.0707
 21
-74.7332
  0
LINE
  8
0
 10
-39.0707
 20
-74.7332
 11
-38.5401
 21
-73.978
  0
LINE
  8
0
 10
-38.5401
 20
-73.978
 11
-37.8579
 21
-73.314
  0
LINE
  8
0
 10
-37.8579
 20
-73.314
 11
-37.0425
 21
-72.7571
  0
LINE
  8
0
 10
-37.0425
 20
-72.7571
 11
-36.1124
 21
-72.3239
  0
LINE
  8
0
 10
-36.1124
 20
-72.3239
 11
-35.0676
 21
-72.0145
  0
LINE
  8
0
 10
-35.0676
 20
-72.0145
 11
-33.9081
 21
-71.8289
  0
LINE
  8
0
 10
-33.9081
 20
-71.8289
 11
-32.6339
 21
-71.767
  0
LINE
  8
0
 10
-32.6339
 20
-71.767
 11
-32.0613
 21
-71.7773
  0
LINE
  8
0
 10
-32.0613
 20
-71.7773
 11
-31.4843
 21
-71.808
  0
LINE
  8
0
 10
-31.4843
 20
-71.808
 11
-30.9029
 21
-71.8592
  0
LINE
  8
0
 10
-30.9029
 20
-71.8592
 11
-30.3171
 21
-71.9308
  0
LINE
  8
0
 10
-30.3171
 20
-71.9308
 11
-29.7269
 21
-72.023
  0
LINE
  8
0
 10
-29.7269
 20
-72.023
 11
-29.1318
 21
-72.1357
  0
LINE
  8
0
 10
-29.1318
 20
-72.1357
 11
-28.5312
 21
-72.2688
  0
LINE
  8
0
 10
-28.5312
 20
-72.2688
 11
-27.9252
 21
-72.4224
  0
LINE
  8
0
 10
-27.9252
 20
-72.4224
 11
-27.3138
 21
-72.5965
  0
LINE
  8
0
 10
-27.3138
 20
-72.5965
 11
-26.6969
 21
-72.791
  0
LINE
  8
0
 10
-26.6969
 20
-72.791
 11
-26.6969
 21
-75.479
  0
LINE
  8
0
 10
-26.6969
 20
-75.479
 11
-27.315
 21
-75.197
  0
LINE
  8
0
 10
-27.315
 20
-75.197
 11
-27.9191
 21
-74.9453
  0
LINE
  8
0
 10
-27.9191
 20
-74.9453
 11
-28.5091
 21
-74.7238
  0
LINE
  8
0
 10
-28.5091
 20
-74.7238
 11
-29.0851
 21
-74.5328
  0
LINE
  8
0
 10
-29.0851
 20
-74.5328
 11
-29.6469
 21
-74.372
  0
LINE
  8
0
 10
-29.6469
 20
-74.372
 11
-30.1975
 21
-74.2406
  0
LINE
  8
0
 10
-30.1975
 20
-74.2406
 11
-30.7407
 21
-74.1384
  0
LINE
  8
0
 10
-30.7407
 20
-74.1384
 11
-31.2763
 21
-74.0654
  0
LINE
  8
0
 10
-31.2763
 20
-74.0654
 11
-31.8043
 21
-74.0216
  0
LINE
  8
0
 10
-31.8043
 20
-74.0216
 11
-32.3249
 21
-74.007
  0
LINE
  8
0
 10
-32.3249
 20
-74.007
 11
-33.181
 21
-74.0417
  0
LINE
  8
0
 10
-33.181
 20
-74.0417
 11
-33.9551
 21
-74.1457
  0
LINE
  8
0
 10
-33.9551
 20
-74.1457
 11
-34.6471
 21
-74.3191
  0
LINE
  8
0
 10
-34.6471
 20
-74.3191
 11
-35.257
 21
-74.5619
  0
LINE
  8
0
 10
-35.257
 20
-74.5619
 11
-35.7849
 21
-74.874
  0
LINE
  8
0
 10
-35.7849
 20
-74.874
 11
-36.2226
 21
-75.2497
  0
LINE
  8
0
 10
-36.2226
 20
-75.2497
 11
-36.5631
 21
-75.6839
  0
LINE
  8
0
 10
-36.5631
 20
-75.6839
 11
-36.8063
 21
-76.1767
  0
LINE
  8
0
 10
-36.8063
 20
-76.1767
 11
-36.9522
 21
-76.7281
  0
LINE
  8
0
 10
-36.9522
 20
-76.7281
 11
-37.0009
 21
-77.338
  0
LINE
  8
0
 10
-37.0009
 20
-77.338
 11
-36.9686
 21
-77.8478
  0
LINE
  8
0
 10
-36.9686
 20
-77.8478
 11
-36.8718
 21
-78.3051
  0
LINE
  8
0
 10
-36.8718
 20
-78.3051
 11
-36.7104
 21
-78.7099
  0
LINE
  8
0
 10
-36.7104
 20
-78.7099
 11
-36.4844
 21
-79.0622
  0
LINE
  8
0
 10
-36.4844
 20
-79.0622
 11
-36.1939
 21
-79.362
  0
LINE
  8
0
 10
-36.1939
 20
-79.362
 11
-35.8133
 21
-79.6247
  0
LINE
  8
0
 10
-35.8133
 20
-79.6247
 11
-35.3171
 21
-79.8663
  0
LINE
  8
0
 10
-35.3171
 20
-79.8663
 11
-34.7053
 21
-80.0869
  0
LINE
  8
0
 10
-34.7053
 20
-80.0869
 11
-33.9779
 21
-80.2865
  0
LINE
  8
0
 10
-33.9779
 20
-80.2865
 11
-33.1349
 21
-80.465
  0
LINE
  8
0
 10
-33.1349
 20
-80.465
 11
-31.4809
 21
-80.804
  0
LINE
  8
0
 10
-31.4809
 20
-80.804
 11
-30.3154
 21
-81.0723
  0
LINE
  8
0
 10
-30.3154
 20
-81.0723
 11
-29.279
 21
-81.4115
  0
LINE
  8
0
 10
-29.279
 20
-81.4115
 11
-28.3716
 21
-81.8217
  0
LINE
  8
0
 10
-28.3716
 20
-81.8217
 11
-27.5932
 21
-82.3029
  0
LINE
  8
0
 10
-27.5932
 20
-82.3029
 11
-26.9439
 21
-82.855
  0
LINE
  8
0
 10
-26.9439
 20
-82.855
 11
-26.4172
 21
-83.4824
  0
LINE
  8
0
 10
-26.4172
 20
-83.4824
 11
-26.0076
 21
-84.1894
  0
LINE
  8
0
 10
-26.0076
 20
-84.1894
 11
-25.715
 21
-84.976
  0
LINE
  8
0
 10
-25.715
 20
-84.976
 11
-25.5394
 21
-85.8422
  0
LINE
  8
0
 10
-25.5394
 20
-85.8422
 11
-25.4809
 21
-86.788
  0
LINE
  8
0
 10
-25.4809
 20
-86.788
 11
-25.56
 21
-87.9064
  0
LINE
  8
0
 10
-25.56
 20
-87.9064
 11
-25.7974
 21
-88.911
  0
LINE
  8
0
 10
-25.7974
 20
-88.911
 11
-26.193
 21
-89.802
  0
LINE
  8
0
 10
-26.193
 20
-89.802
 11
-26.7468
 21
-90.5793
  0
LINE
  8
0
 10
-26.7468
 20
-90.5793
 11
-27.4589
 21
-91.243
  0
LINE
  8
0
 10
-27.4589
 20
-91.243
 11
-28.3238
 21
-91.7888
  0
LINE
  8
0
 10
-28.3238
 20
-91.7888
 11
-29.3362
 21
-92.2132
  0
LINE
  8
0
 10
-29.3362
 20
-92.2132
 11
-30.496
 21
-92.5164
  0
LINE
  8
0
 10
-30.496
 20
-92.5164
 11
-31.8032
 21
-92.6983
  0
LINE
  8
0
 10
-31.8032
 20
-92.6983
 11
-33.2579
 21
-92.759
  0
LINE
  8
0
 10
-33.2579
 20
-92.759
 11
-33.8416
 21
-92.746
  0
LINE
  8
0
 10
99.1873
 20
-92.6465
 11
97.5836
 21
-92.3091
  0
LINE
  8
0
 10
97.5836
 20
-92.3091
 11
96.136
 21
-91.7467
  0
LINE
  8
0
 10
96.136
 20
-91.7467
 11
94.8446
 21
-90.9593
  0
LINE
  8
0
 10
94.8446
 20
-90.9593
 11
93.7093
 21
-89.947
  0
LINE
  8
0
 10
93.7093
 20
-89.947
 11
92.7578
 21
-88.7401
  0
LINE
  8
0
 10
92.7578
 20
-88.7401
 11
92.0178
 21
-87.3689
  0
LINE
  8
0
 10
92.0178
 20
-87.3689
 11
91.4892
 21
-85.8335
  0
LINE
  8
0
 10
91.4892
 20
-85.8335
 11
91.172
 21
-84.1339
  0
LINE
  8
0
 10
91.172
 20
-84.1339
 11
91.0663
 21
-82.27
  0
LINE
  8
0
 10
91.0663
 20
-82.27
 11
91.172
 21
-80.4011
  0
LINE
  8
0
 10
91.172
 20
-80.4011
 11
91.4892
 21
-78.6975
  0
LINE
  8
0
 10
91.4892
 20
-78.6975
 11
92.0178
 21
-77.1593
  0
LINE
  8
0
 10
92.0178
 20
-77.1593
 11
92.7578
 21
-75.7865
  0
LINE
  8
0
 10
92.7578
 20
-75.7865
 11
93.7093
 21
-74.579
  0
LINE
  8
0
 10
93.7093
 20
-74.579
 11
94.8446
 21
-73.5667
  0
LINE
  8
0
 10
94.8446
 20
-73.5667
 11
96.136
 21
-72.7793
  0
LINE
  8
0
 10
96.136
 20
-72.7793
 11
97.5836
 21
-72.2169
  0
LINE
  8
0
 10
97.5836
 20
-72.2169
 11
99.1873
 21
-71.8795
  0
LINE
  8
0
 10
99.1873
 20
-71.8795
 11
100.947
 21
-71.767
  0
LINE
  8
0
 10
100.947
 20
-71.767
 11
101.666
 21
-71.7862
  0
LINE
  8
0
 10
101.666
 20
-71.7862
 11
102.367
 21
-71.8438
  0
LINE
  8
0
 10
102.367
 20
-71.8438
 11
103.052
 21
-71.9398
  0
LINE
  8
0
 10
103.052
 20
-71.9398
 11
103.719
 21
-72.0742
  0
LINE
  8
0
 10
103.719
 20
-72.0742
 11
104.37
 21
-72.247
  0
LINE
  8
0
 10
104.37
 20
-72.247
 11
105.005
 21
-72.4582
  0
LINE
  8
0
 10
105.005
 20
-72.4582
 11
105.624
 21
-72.7078
  0
LINE
  8
0
 10
105.624
 20
-72.7078
 11
106.227
 21
-72.9958
  0
LINE
  8
0
 10
106.227
 20
-72.9958
 11
106.814
 21
-73.3222
  0
LINE
  8
0
 10
106.814
 20
-73.3222
 11
107.386
 21
-73.687
  0
LINE
  8
0
 10
107.386
 20
-73.687
 11
107.386
 21
-76.567
  0
LINE
  8
0
 10
107.386
 20
-76.567
 11
106.826
 21
-76.0782
  0
LINE
  8
0
 10
106.826
 20
-76.0782
 11
106.25
 21
-75.6416
  0
LINE
  8
0
 10
106.25
 20
-75.6416
 11
105.66
 21
-75.257
  0
LINE
  8
0
 10
105.66
 20
-75.257
 11
105.056
 21
-74.9245
  0
LINE
  8
0
 10
105.056
 20
-74.9245
 11
104.436
 21
-74.644
  0
LINE
  8
0
 10
104.436
 20
-74.644
 11
103.802
 21
-74.4147
  0
LINE
  8
0
 10
103.802
 20
-74.4147
 11
103.152
 21
-74.2363
  0
LINE
  8
0
 10
103.152
 20
-74.2363
 11
102.486
 21
-74.1089
  0
LINE
  8
0
 10
102.486
 20
-74.1089
 11
101.805
 21
-74.0325
  0
LINE
  8
0
 10
101.805
 20
-74.0325
 11
101.107
 21
-74.007
  0
LINE
  8
0
 10
101.107
 20
-74.007
 11
99.7835
 21
-74.092
  0
LINE
  8
0
 10
99.7835
 20
-74.092
 11
98.59
 21
-74.3468
  0
LINE
  8
0
 10
98.59
 20
-74.3468
 11
97.5266
 21
-74.7717
  0
LINE
  8
0
 10
97.5266
 20
-74.7717
 11
96.5934
 21
-75.3664
  0
LINE
  8
0
 10
96.5934
 20
-75.3664
 11
95.7903
 21
-76.131
  0
LINE
  8
0
 10
95.7903
 20
-76.131
 11
95.1264
 21
-77.0559
  0
LINE
  8
0
 10
95.1264
 20
-77.0559
 11
94.6101
 21
-78.1323
  0
LINE
  8
0
 10
94.6101
 20
-78.1323
 11
94.2413
 21
-79.3601
  0
LINE
  8
0
 10
94.2413
 20
-79.3601
 11
94.02
 21
-80.7393
  0
LINE
  8
0
 10
94.02
 20
-80.7393
 11
93.9463
 21
-82.27
  0
LINE
  8
0
 10
93.9463
 20
-82.27
 11
94.02
 21
-83.7957
  0
LINE
  8
0
 10
94.02
 20
-83.7957
 11
94.2413
 21
-85.1711
  0
LINE
  8
0
 10
94.2413
 20
-85.1711
 11
94.6101
 21
-86.3963
  0
LINE
  8
0
 10
94.6101
 20
-86.3963
 11
95.1264
 21
-87.4713
  0
LINE
  8
0
 10
95.1264
 20
-87.4713
 11
95.7903
 21
-88.396
  0
LINE
  8
0
 10
95.7903
 20
-88.396
 11
96.5934
 21
-89.1603
  0
LINE
  8
0
 10
96.5934
 20
-89.1603
 11
97.5266
 21
-89.7547
  0
LINE
  8
0
 10
97.5266
 20
-89.7547
 11
98.59
 21
-90.1793
  0
LINE
  8
0
 10
98.59
 20
-90.1793
 11
99.7835
 21
-90.4341
  0
LINE
  8
0
 10
99.7835
 20
-90.4341
 11
101.107
 21
-90.519
  0
LINE
  8
0
 10
101.107
 20
-90.519
 11
101.805
 21
-90.4929
  0
LINE
  8
0
 10
101.805
 20
-90.4929
 11
102.486
 21
-90.4147
  0
LINE
  8
0
 10
102.486
 20
-90.4147
 11
103.152
 21
-90.2843
  0
LINE
  8
0
 10
103.152
 20
-90.2843
 11
103.802
 21
-90.1017
  0
LINE
  8
0
 10
103.802
 20
-90.1017
 11
104.436
 21
-89.867
  0
LINE
  8
0
 10
104.436
 20
-89.867
 11
105.056
 21
-89.5791
  0
LINE
  8
0
 10
105.056
 20
-89.5791
 11
105.66
 21
-89.238
  0
LINE
  8
0
 10
105.66
 20
-89.238
 11
106.25
 21
-88.8436
  0
LINE
  8
0
 10
106.25
 20
-88.8436
 11
106.826
 21
-88.396
  0
LINE
  8
0
 10
106.826
 20
-88.396
 11
107.386
 21
-87.895
  0
LINE
  8
0
 10
107.386
 20
-87.895
 11
107.386
 21
-90.775
  0
LINE
  8
0
 10
107.386
 20
-90.775
 11
106.805
 21
-91.1519
  0
LINE
  8
0
 10
106.805
 20
-91.1519
 11
106.21
 21
-91.4892
  0
LINE
  8
0
 10
106.21
 20
-91.4892
 11
105.601
 21
-91.7868
  0
LINE
  8
0
 10
105.601
 20
-91.7868
 11
104.979
 21
-92.0448
  0
LINE
  8
0
 10
104.979
 20
-92.0448
 11
104.343
 21
-92.263
  0
LINE
  8
0
 10
104.343
 20
-92.263
 11
103.694
 21
-92.4416
  0
LINE
  8
0
 10
103.694
 20
-92.4416
 11
103.029
 21
-92.5804
  0
LINE
  8
0
 10
103.029
 20
-92.5804
 11
102.35
 21
-92.6796
  0
LINE
  8
0
 10
102.35
 20
-92.6796
 11
101.656
 21
-92.7392
  0
LINE
  8
0
 10
101.656
 20
-92.7392
 11
100.947
 21
-92.759
  0
LINE
  8
0
 10
100.947
 20
-92.759
 11
99.1873
 21
-92.6465
  0
LINE
  8
0
 10
-73.4462
 20
-92.375
 11
-73.4462
 21
-72.151
  0
LINE
  8
0
 10
-73.4462
 20
-72.151
 11
-70.6942
 21
-72.151
  0
LINE
  8
0
 10
-70.6942
 20
-72.151
 11
-70.6942
 21
-80.407
  0
LINE
  8
0
 10
-70.6942
 20
-80.407
 11
-60.7742
 21
-80.407
  0
LINE
  8
0
 10
-60.7742
 20
-80.407
 11
-60.7742
 21
-72.151
  0
LINE
  8
0
 10
-60.7742
 20
-72.151
 11
-58.0222
 21
-72.151
  0
LINE
  8
0
 10
-58.0222
 20
-72.151
 11
-58.0222
 21
-92.375
  0
LINE
  8
0
 10
-58.0222
 20
-92.375
 11
-60.7742
 21
-92.375
  0
LINE
  8
0
 10
-60.7742
 20
-92.375
 11
-60.7742
 21
-82.711
  0
LINE
  8
0
 10
-60.7742
 20
-82.711
 11
-70.6942
 21
-82.711
  0
LINE
  8
0
 10
-70.6942
 20
-82.711
 11
-70.6942
 21
-92.375
  0
LINE
  8
0
 10
-70.6942
 20
-92.375
 11
-73.4462
 21
-92.375
  0
LINE
  8
0
 10
-7.39349
 20
-92.375
 11
-7.39349
 21
-72.151
  0
LINE
  8
0
 10
-7.39349
 20
-72.151
 11
-3.6835
 21
-72.151
  0
LINE
  8
0
 10
-3.6835
 20
-72.151
 11
5.21448
 21
-89.07
  0
LINE
  8
0
 10
5.21448
 20
-89.07
 11
5.21448
 21
-72.151
  0
LINE
  8
0
 10
5.21448
 20
-72.151
 11
7.90248
 21
-72.151
  0
LINE
  8
0
 10
7.90248
 20
-72.151
 11
7.90248
 21
-92.375
  0
LINE
  8
0
 10
7.90248
 20
-92.375
 11
4.19249
 21
-92.375
  0
LINE
  8
0
 10
4.19249
 20
-92.375
 11
-4.70551
 21
-75.456
  0
LINE
  8
0
 10
-4.70551
 20
-75.456
 11
-4.70551
 21
-92.375
  0
LINE
  8
0
 10
-4.70551
 20
-92.375
 11
-7.39349
 21
-92.375
  0
LINE
  8
0
 10
28.1959
 20
-92.375
 11
28.1959
 21
-72.151
  0
LINE
  8
0
 10
28.1959
 20
-72.151
 11
30.9479
 21
-72.151
  0
LINE
  8
0
 10
30.9479
 20
-72.151
 11
30.9479
 21
-90.071
  0
LINE
  8
0
 10
30.9479
 20
-90.071
 11
40.8038
 21
-90.071
  0
LINE
  8
0
 10
40.8038
 20
-90.071
 11
40.8038
 21
-92.375
  0
LINE
  8
0
 10
40.8038
 20
-92.375
 11
28.1959
 21
-92.375
  0
LINE
  8
0
 10
56.9142
 20
-92.375
 11
64.6472
 21
-72.151
  0
LINE
  8
0
 10
64.6472
 20
-72.151
 11
67.7542
 21
-72.151
  0
LINE
  8
0
 10
67.7542
 20
-72.151
 11
75.4742
 21
-92.375
  0
LINE
  8
0
 10
75.4742
 20
-92.375
 11
72.6252
 21
-92.375
  0
LINE
  8
0
 10
72.6252
 20
-92.375
 11
70.7802
 21
-87.191
  0
LINE
  8
0
 10
70.7802
 20
-87.191
 11
61.6492
 21
-87.191
  0
LINE
  8
0
 10
61.6492
 20
-87.191
 11
59.8042
 21
-92.375
  0
LINE
  8
0
 10
59.8042
 20
-92.375
 11
56.9142
 21
-92.375
  0
LINE
  8
0
 10
66.1942
 20
-74.842
 11
62.4772
 21
-84.887
  0
LINE
  8
0
 10
62.4772
 20
-84.887
 11
69.9252
 21
-84.887
  0
LINE
  8
0
 10
69.9252
 20
-84.887
 11
66.1942
 21
-74.842
  0
LINE
  8
0
 10
163.819
 20
-92.375
 11
163.819
 21
-74.455
  0
LINE
  8
0
 10
163.819
 20
-74.455
 11
156.651
 21
-74.455
  0
LINE
  8
0
 10
156.651
 20
-74.455
 11
156.651
 21
-72.151
  0
LINE
  8
0
 10
156.651
 20
-72.151
 11
173.739
 21
-72.151
  0
LINE
  8
0
 10
173.739
 20
-72.151
 11
173.739
 21
-74.455
  0
LINE
  8
0
 10
173.739
 20
-74.455
 11
166.571
 21
-74.455
  0
LINE
  8
0
 10
166.571
 20
-74.455
 11
166.571
 21
-92.375
  0
LINE
  8
0
 10
166.571
 20
-92.375
 11
163.819
 21
-92.375
  0
LINE
  8
0
 10
124.554
 20
-92.375
 11
124.554
 21
-72.151
  0
LINE
  8
0
 10
124.554
 20
-72.151
 11
127.306
 21
-72.151
  0
LINE
  8
0
 10
127.306
 20
-72.151
 11
127.306
 21
-80.407
  0
LINE
  8
0
 10
127.306
 20
-80.407
 11
137.226
 21
-80.407
  0
LINE
  8
0
 10
137.226
 20
-80.407
 11
137.226
 21
-72.151
  0
LINE
  8
0
 10
137.226
 20
-72.151
 11
139.978
 21
-72.151
  0
LINE
  8
0
 10
139.978
 20
-72.151
 11
139.978
 21
-92.375
  0
LINE
  8
0
 10
139.978
 20
-92.375
 11
137.226
 21
-92.375
  0
LINE
  8
0
 10
137.226
 20
-92.375
 11
137.226
 21
-82.711
  0
LINE
  8
0
 10
137.226
 20
-82.711
 11
127.306
 21
-82.711
  0
LINE
  8
0
 10
127.306
 20
-82.711
 11
127.306
 21
-92.375
  0
LINE
  8
0
 10
127.306
 20
-92.375
 11
124.554
 21
-92.375
  0
LINE
  8
0
 10
-137.817
 20
-92.375
 11
-137.817
 21
-72.151
  0
LINE
  8
0
 10
-137.817
 20
-72.151
 11
-125.017
 21
-72.151
  0
LINE
  8
0
 10
-125.017
 20
-72.151
 11
-125.017
 21
-74.455
  0
LINE
  8
0
 10
-125.017
 20
-74.455
 11
-135.065
 21
-74.455
  0
LINE
  8
0
 10
-135.065
 20
-74.455
 11
-135.065
 21
-80.407
  0
LINE
  8
0
 10
-135.065
 20
-80.407
 11
-125.401
 21
-80.407
  0
LINE
  8
0
 10
-125.401
 20
-80.407
 11
-125.401
 21
-82.711
  0
LINE
  8
0
 10
-125.401
 20
-82.711
 11
-135.065
 21
-82.711
  0
LINE
  8
0
 10
-135.065
 20
-82.711
 11
-135.065
 21
-90.071
  0
LINE
  8
0
 10
-135.065
 20
-90.071
 11
-124.761
 21
-90.071
  0
LINE
  8
0
 10
-124.761
 20
-90.071
 11
-124.761
 21
-92.375
  0
LINE
  8
0
 10
-124.761
 20
-92.375
 11
-137.817
 21
-92.375
  0
LINE
  8
0
 10
95.2367
 20
-105.096
 11
95.2367
 21
-102.344
  0
LINE
  8
0
 10
95.2367
 20
-102.344
 11
97.9887
 21
-102.344
  0
LINE
  8
0
 10
97.9887
 20
-102.344
 11
97.9887
 21
-105.096
  0
LINE
  8
0
 10
97.9887
 20
-105.096
 11
95.2367
 21
-105.096
  0
LINE
  8
0
 10
100.485
 20
-105.096
 11
100.485
 21
-102.344
  0
LINE
  8
0
 10
100.485
 20
-102.344
 11
103.237
 21
-102.344
  0
LINE
  8
0
 10
103.237
 20
-102.344
 11
103.237
 21
-105.096
  0
LINE
  8
0
 10
103.237
 20
-105.096
 11
100.485
 21
-105.096
  0
LINE
  8
0
 10
-165.842
 20
-125.746
 11
-166.44
 21
-125.707
  0
LINE
  8
0
 10
-166.44
 20
-125.707
 11
-167.053
 21
-125.642
  0
LINE
  8
0
 10
-167.053
 20
-125.642
 11
-167.681
 21
-125.552
  0
LINE
  8
0
 10
-167.681
 20
-125.552
 11
-168.324
 21
-125.435
  0
LINE
  8
0
 10
-168.324
 20
-125.435
 11
-168.978
 21
-125.293
  0
LINE
  8
0
 10
-168.978
 20
-125.293
 11
-169.642
 21
-125.127
  0
LINE
  8
0
 10
-169.642
 20
-125.127
 11
-170.315
 21
-124.936
  0
LINE
  8
0
 10
-170.315
 20
-124.936
 11
-170.997
 21
-124.72
  0
LINE
  8
0
 10
-170.997
 20
-124.72
 11
-171.689
 21
-124.479
  0
LINE
  8
0
 10
-171.689
 20
-124.479
 11
-171.689
 21
-121.663
  0
LINE
  8
0
 10
-171.689
 20
-121.663
 11
-171.023
 21
-122.013
  0
LINE
  8
0
 10
-171.023
 20
-122.013
 11
-170.363
 21
-122.327
  0
LINE
  8
0
 10
-170.363
 20
-122.327
 11
-169.709
 21
-122.605
  0
LINE
  8
0
 10
-169.709
 20
-122.605
 11
-169.059
 21
-122.847
  0
LINE
  8
0
 10
-169.059
 20
-122.847
 11
-168.416
 21
-123.052
  0
LINE
  8
0
 10
-168.416
 20
-123.052
 11
-167.777
 21
-123.22
  0
LINE
  8
0
 10
-167.777
 20
-123.22
 11
-167.142
 21
-123.351
  0
LINE
  8
0
 10
-167.142
 20
-123.351
 11
-166.512
 21
-123.444
  0
LINE
  8
0
 10
-166.512
 20
-123.444
 11
-165.886
 21
-123.5
  0
LINE
  8
0
 10
-165.886
 20
-123.5
 11
-165.264
 21
-123.519
  0
LINE
  8
0
 10
-165.264
 20
-123.519
 11
-164.367
 21
-123.482
  0
LINE
  8
0
 10
-164.367
 20
-123.482
 11
-163.556
 21
-123.372
  0
LINE
  8
0
 10
-163.556
 20
-123.372
 11
-162.831
 21
-123.189
  0
LINE
  8
0
 10
-162.831
 20
-123.189
 11
-162.192
 21
-122.931
  0
LINE
  8
0
 10
-162.192
 20
-122.931
 11
-161.638
 21
-122.601
  0
LINE
  8
0
 10
-161.638
 20
-122.601
 11
-161.178
 21
-122.203
  0
LINE
  8
0
 10
-161.178
 20
-122.203
 11
-160.821
 21
-121.741
  0
LINE
  8
0
 10
-160.821
 20
-121.741
 11
-160.565
 21
-121.218
  0
LINE
  8
0
 10
-160.565
 20
-121.218
 11
-160.412
 21
-120.632
  0
LINE
  8
0
 10
-160.412
 20
-120.632
 11
-160.361
 21
-119.983
  0
LINE
  8
0
 10
-160.361
 20
-119.983
 11
-160.398
 21
-119.415
  0
LINE
  8
0
 10
-160.398
 20
-119.415
 11
-160.507
 21
-118.899
  0
LINE
  8
0
 10
-160.507
 20
-118.899
 11
-160.691
 21
-118.434
  0
LINE
  8
0
 10
-160.691
 20
-118.434
 11
-160.947
 21
-118.022
  0
LINE
  8
0
 10
-160.947
 20
-118.022
 11
-161.277
 21
-117.661
  0
LINE
  8
0
 10
-161.277
 20
-117.661
 11
-161.69
 21
-117.343
  0
LINE
  8
0
 10
-161.69
 20
-117.343
 11
-162.197
 21
-117.058
  0
LINE
  8
0
 10
-162.197
 20
-117.058
 11
-162.798
 21
-116.807
  0
LINE
  8
0
 10
-162.798
 20
-116.807
 11
-163.492
 21
-116.59
  0
LINE
  8
0
 10
-163.492
 20
-116.59
 11
-164.281
 21
-116.406
  0
LINE
  8
0
 10
-164.281
 20
-116.406
 11
-165.949
 21
-116.08
  0
LINE
  8
0
 10
-165.949
 20
-116.08
 11
-167.107
 21
-115.808
  0
LINE
  8
0
 10
-167.107
 20
-115.808
 11
-168.13
 21
-115.481
  0
LINE
  8
0
 10
-168.13
 20
-115.481
 11
-169.017
 21
-115.099
  0
LINE
  8
0
 10
-169.017
 20
-115.099
 11
-169.768
 21
-114.661
  0
LINE
  8
0
 10
-169.768
 20
-114.661
 11
-170.384
 21
-114.168
  0
LINE
  8
0
 10
-170.384
 20
-114.168
 11
-170.877
 21
-113.606
  0
LINE
  8
0
 10
-170.877
 20
-113.606
 11
-171.26
 21
-112.963
  0
LINE
  8
0
 10
-171.26
 20
-112.963
 11
-171.534
 21
-112.239
  0
LINE
  8
0
 10
-171.534
 20
-112.239
 11
-171.698
 21
-111.433
  0
LINE
  8
0
 10
-171.698
 20
-111.433
 11
-171.753
 21
-110.546
  0
LINE
  8
0
 10
-171.753
 20
-110.546
 11
-171.677
 21
-109.517
  0
LINE
  8
0
 10
-171.677
 20
-109.517
 11
-171.45
 21
-108.58
  0
LINE
  8
0
 10
-171.45
 20
-108.58
 11
-171.071
 21
-107.733
  0
LINE
  8
0
 10
-171.071
 20
-107.733
 11
-170.54
 21
-106.978
  0
LINE
  8
0
 10
-170.54
 20
-106.978
 11
-169.858
 21
-106.314
  0
LINE
  8
0
 10
-169.858
 20
-106.314
 11
-169.043
 21
-105.757
  0
LINE
  8
0
 10
-169.043
 20
-105.757
 11
-168.112
 21
-105.324
  0
LINE
  8
0
 10
-168.112
 20
-105.324
 11
-167.068
 21
-105.015
  0
LINE
  8
0
 10
-167.068
 20
-105.015
 11
-165.908
 21
-104.829
  0
LINE
  8
0
 10
-165.908
 20
-104.829
 11
-164.634
 21
-104.767
  0
LINE
  8
0
 10
-164.634
 20
-104.767
 11
-164.061
 21
-104.777
  0
LINE
  8
0
 10
-164.061
 20
-104.777
 11
-163.484
 21
-104.808
  0
LINE
  8
0
 10
-163.484
 20
-104.808
 11
-162.903
 21
-104.859
  0
LINE
  8
0
 10
-162.903
 20
-104.859
 11
-162.317
 21
-104.931
  0
LINE
  8
0
 10
-162.317
 20
-104.931
 11
-161.727
 21
-105.023
  0
LINE
  8
0
 10
-161.727
 20
-105.023
 11
-161.132
 21
-105.136
  0
LINE
  8
0
 10
-161.132
 20
-105.136
 11
-160.531
 21
-105.269
  0
LINE
  8
0
 10
-160.531
 20
-105.269
 11
-159.925
 21
-105.422
  0
LINE
  8
0
 10
-159.925
 20
-105.422
 11
-159.314
 21
-105.596
  0
LINE
  8
0
 10
-159.314
 20
-105.596
 11
-158.697
 21
-105.791
  0
LINE
  8
0
 10
-158.697
 20
-105.791
 11
-158.697
 21
-108.479
  0
LINE
  8
0
 10
-158.697
 20
-108.479
 11
-159.315
 21
-108.197
  0
LINE
  8
0
 10
-159.315
 20
-108.197
 11
-159.919
 21
-107.945
  0
LINE
  8
0
 10
-159.919
 20
-107.945
 11
-160.509
 21
-107.724
  0
LINE
  8
0
 10
-160.509
 20
-107.724
 11
-161.085
 21
-107.533
  0
LINE
  8
0
 10
-161.085
 20
-107.533
 11
-161.647
 21
-107.372
  0
LINE
  8
0
 10
-161.647
 20
-107.372
 11
-162.198
 21
-107.241
  0
LINE
  8
0
 10
-162.198
 20
-107.241
 11
-162.741
 21
-107.138
  0
LINE
  8
0
 10
-162.741
 20
-107.138
 11
-163.276
 21
-107.065
  0
LINE
  8
0
 10
-163.276
 20
-107.065
 11
-163.804
 21
-107.022
  0
LINE
  8
0
 10
-163.804
 20
-107.022
 11
-164.325
 21
-107.007
  0
LINE
  8
0
 10
-164.325
 20
-107.007
 11
-165.181
 21
-107.042
  0
LINE
  8
0
 10
-165.181
 20
-107.042
 11
-165.955
 21
-107.146
  0
LINE
  8
0
 10
-165.955
 20
-107.146
 11
-166.647
 21
-107.319
  0
LINE
  8
0
 10
-166.647
 20
-107.319
 11
-167.257
 21
-107.562
  0
LINE
  8
0
 10
-167.257
 20
-107.562
 11
-167.785
 21
-107.874
  0
LINE
  8
0
 10
-167.785
 20
-107.874
 11
-168.223
 21
-108.25
  0
LINE
  8
0
 10
-168.223
 20
-108.25
 11
-168.563
 21
-108.684
  0
LINE
  8
0
 10
-168.563
 20
-108.684
 11
-168.806
 21
-109.177
  0
LINE
  8
0
 10
-168.806
 20
-109.177
 11
-168.952
 21
-109.728
  0
LINE
  8
0
 10
-168.952
 20
-109.728
 11
-169.001
 21
-110.338
  0
LINE
  8
0
 10
-169.001
 20
-110.338
 11
-168.969
 21
-110.848
  0
LINE
  8
0
 10
-168.969
 20
-110.848
 11
-168.872
 21
-111.305
  0
LINE
  8
0
 10
-168.872
 20
-111.305
 11
-168.71
 21
-111.71
  0
LINE
  8
0
 10
-168.71
 20
-111.71
 11
-168.484
 21
-112.062
  0
LINE
  8
0
 10
-168.484
 20
-112.062
 11
-168.194
 21
-112.362
  0
LINE
  8
0
 10
-168.194
 20
-112.362
 11
-167.813
 21
-112.625
  0
LINE
  8
0
 10
-167.813
 20
-112.625
 11
-167.317
 21
-112.866
  0
LINE
  8
0
 10
-167.317
 20
-112.866
 11
-166.705
 21
-113.087
  0
LINE
  8
0
 10
-166.705
 20
-113.087
 11
-165.978
 21
-113.286
  0
LINE
  8
0
 10
-165.978
 20
-113.286
 11
-165.135
 21
-113.465
  0
LINE
  8
0
 10
-165.135
 20
-113.465
 11
-163.481
 21
-113.804
  0
LINE
  8
0
 10
-163.481
 20
-113.804
 11
-162.315
 21
-114.072
  0
LINE
  8
0
 10
-162.315
 20
-114.072
 11
-161.279
 21
-114.412
  0
LINE
  8
0
 10
-161.279
 20
-114.412
 11
-160.372
 21
-114.822
  0
LINE
  8
0
 10
-160.372
 20
-114.822
 11
-159.593
 21
-115.303
  0
LINE
  8
0
 10
-159.593
 20
-115.303
 11
-158.944
 21
-115.855
  0
LINE
  8
0
 10
-158.944
 20
-115.855
 11
-158.417
 21
-116.482
  0
LINE
  8
0
 10
-158.417
 20
-116.482
 11
-158.008
 21
-117.189
  0
LINE
  8
0
 10
-158.008
 20
-117.189
 11
-157.715
 21
-117.976
  0
LINE
  8
0
 10
-157.715
 20
-117.976
 11
-157.539
 21
-118.842
  0
LINE
  8
0
 10
-157.539
 20
-118.842
 11
-157.481
 21
-119.788
  0
LINE
  8
0
 10
-157.481
 20
-119.788
 11
-157.56
 21
-120.906
  0
LINE
  8
0
 10
-157.56
 20
-120.906
 11
-157.797
 21
-121.911
  0
LINE
  8
0
 10
-157.797
 20
-121.911
 11
-158.193
 21
-122.802
  0
LINE
  8
0
 10
-158.193
 20
-122.802
 11
-158.747
 21
-123.579
  0
LINE
  8
0
 10
-158.747
 20
-123.579
 11
-159.459
 21
-124.243
  0
LINE
  8
0
 10
-159.459
 20
-124.243
 11
-160.324
 21
-124.789
  0
LINE
  8
0
 10
-160.324
 20
-124.789
 11
-161.336
 21
-125.213
  0
LINE
  8
0
 10
-161.336
 20
-125.213
 11
-162.496
 21
-125.516
  0
LINE
  8
0
 10
-162.496
 20
-125.516
 11
-163.803
 21
-125.698
  0
LINE
  8
0
 10
-163.803
 20
-125.698
 11
-165.258
 21
-125.759
  0
LINE
  8
0
 10
-165.258
 20
-125.759
 11
-165.842
 21
-125.746
  0
LINE
  8
0
 10
159.951
 20
-125.375
 11
159.951
 21
-105.151
  0
LINE
  8
0
 10
159.951
 20
-105.151
 11
171.599
 21
-105.151
  0
LINE
  8
0
 10
171.599
 20
-105.151
 11
171.599
 21
-107.455
  0
LINE
  8
0
 10
171.599
 20
-107.455
 11
162.703
 21
-107.455
  0
LINE
  8
0
 10
162.703
 20
-107.455
 11
162.703
 21
-113.407
  0
LINE
  8
0
 10
162.703
 20
-113.407
 11
170.703
 21
-113.407
  0
LINE
  8
0
 10
170.703
 20
-113.407
 11
170.703
 21
-115.711
  0
LINE
  8
0
 10
170.703
 20
-115.711
 11
162.703
 21
-115.711
  0
LINE
  8
0
 10
162.703
 20
-115.711
 11
162.703
 21
-125.375
  0
LINE
  8
0
 10
162.703
 20
-125.375
 11
159.951
 21
-125.375
  0
LINE
  8
0
 10
127.196
 20
-125.375
 11
127.196
 21
-105.151
  0
LINE
  8
0
 10
127.196
 20
-105.151
 11
129.948
 21
-105.151
  0
LINE
  8
0
 10
129.948
 20
-105.151
 11
129.948
 21
-123.071
  0
LINE
  8
0
 10
129.948
 20
-123.071
 11
139.804
 21
-123.071
  0
LINE
  8
0
 10
139.804
 20
-123.071
 11
139.804
 21
-125.375
  0
LINE
  8
0
 10
139.804
 20
-125.375
 11
127.196
 21
-125.375
  0
LINE
  8
0
 10
58.5639
 20
-125.375
 11
53.4859
 21
-105.151
  0
LINE
  8
0
 10
53.4859
 20
-105.151
 11
56.2558
 21
-105.151
  0
LINE
  8
0
 10
56.2558
 20
-105.151
 11
60.5199
 21
-122.246
  0
LINE
  8
0
 10
60.5199
 20
-122.246
 11
64.7699
 21
-105.151
  0
LINE
  8
0
 10
64.7699
 20
-105.151
 11
67.8518
 21
-105.151
  0
LINE
  8
0
 10
67.8518
 20
-105.151
 11
72.1158
 21
-122.246
  0
LINE
  8
0
 10
72.1158
 20
-122.246
 11
76.3658
 21
-105.151
  0
LINE
  8
0
 10
76.3658
 20
-105.151
 11
79.1498
 21
-105.151
  0
LINE
  8
0
 10
79.1498
 20
-105.151
 11
74.0578
 21
-125.375
  0
LINE
  8
0
 10
74.0578
 20
-125.375
 11
70.6088
 21
-125.375
  0
LINE
  8
0
 10
70.6088
 20
-125.375
 11
66.3318
 21
-107.82
  0
LINE
  8
0
 10
66.3318
 20
-107.82
 11
62.0139
 21
-125.375
  0
LINE
  8
0
 10
62.0139
 20
-125.375
 11
58.5639
 21
-125.375
  0
LINE
  8
0
 10
24.989
 20
-125.375
 11
24.989
 21
-123.289
  0
LINE
  8
0
 10
24.989
 20
-123.289
 11
37.771
 21
-107.455
  0
LINE
  8
0
 10
37.771
 20
-107.455
 11
25.309
 21
-107.455
  0
LINE
  8
0
 10
25.309
 20
-107.455
 11
25.309
 21
-105.151
  0
LINE
  8
0
 10
25.309
 20
-105.151
 11
41.181
 21
-105.151
  0
LINE
  8
0
 10
41.181
 20
-105.151
 11
41.181
 21
-107.237
  0
LINE
  8
0
 10
41.181
 20
-107.237
 11
28.408
 21
-123.071
  0
LINE
  8
0
 10
28.408
 20
-123.071
 11
41.501
 21
-123.071
  0
LINE
  8
0
 10
41.501
 20
-123.071
 11
41.501
 21
-125.375
  0
LINE
  8
0
 10
41.501
 20
-125.375
 11
24.989
 21
-125.375
  0
LINE
  8
0
 10
-38.8173
 20
-125.375
 11
-38.8173
 21
-105.151
  0
LINE
  8
0
 10
-38.8173
 20
-105.151
 11
-26.0173
 21
-105.151
  0
LINE
  8
0
 10
-26.0173
 20
-105.151
 11
-26.0173
 21
-107.455
  0
LINE
  8
0
 10
-26.0173
 20
-107.455
 11
-36.0653
 21
-107.455
  0
LINE
  8
0
 10
-36.0653
 20
-107.455
 11
-36.0653
 21
-113.407
  0
LINE
  8
0
 10
-36.0653
 20
-113.407
 11
-26.4013
 21
-113.407
  0
LINE
  8
0
 10
-26.4013
 20
-113.407
 11
-26.4013
 21
-115.711
  0
LINE
  8
0
 10
-26.4013
 20
-115.711
 11
-36.0653
 21
-115.711
  0
LINE
  8
0
 10
-36.0653
 20
-115.711
 11
-36.0653
 21
-123.071
  0
LINE
  8
0
 10
-36.0653
 20
-123.071
 11
-25.7613
 21
-123.071
  0
LINE
  8
0
 10
-25.7613
 20
-123.071
 11
-25.7613
 21
-125.375
  0
LINE
  8
0
 10
-25.7613
 20
-125.375
 11
-38.8173
 21
-125.375
  0
LINE
  8
0
 10
-72.5522
 20
-125.375
 11
-72.5522
 21
-105.151
  0
LINE
  8
0
 10
-72.5522
 20
-105.151
 11
-65.5572
 21
-105.151
  0
LINE
  8
0
 10
-65.5572
 20
-105.151
 11
-64.3642
 21
-105.203
  0
LINE
  8
0
 10
-64.3642
 20
-105.203
 11
-63.286
 21
-105.359
  0
LINE
  8
0
 10
-63.286
 20
-105.359
 11
-62.3226
 21
-105.618
  0
LINE
  8
0
 10
-62.3226
 20
-105.618
 11
-61.474
 21
-105.982
  0
LINE
  8
0
 10
-61.474
 20
-105.982
 11
-60.7402
 21
-106.449
  0
LINE
  8
0
 10
-60.7402
 20
-106.449
 11
-60.1311
 21
-107.012
  0
LINE
  8
0
 10
-60.1311
 20
-107.012
 11
-59.6573
 21
-107.663
  0
LINE
  8
0
 10
-59.6573
 20
-107.663
 11
-59.3189
 21
-108.401
  0
LINE
  8
0
 10
-59.3189
 20
-108.401
 11
-59.1159
 21
-109.227
  0
LINE
  8
0
 10
-59.1159
 20
-109.227
 11
-59.0482
 21
-110.141
  0
LINE
  8
0
 10
-59.0482
 20
-110.141
 11
-59.0829
 21
-110.852
  0
LINE
  8
0
 10
-59.0829
 20
-110.852
 11
-59.1869
 21
-111.502
  0
LINE
  8
0
 10
-59.1869
 20
-111.502
 11
-59.3603
 21
-112.091
  0
LINE
  8
0
 10
-59.3603
 20
-112.091
 11
-59.6031
 21
-112.62
  0
LINE
  8
0
 10
-59.6031
 20
-112.62
 11
-59.9152
 21
-113.089
  0
LINE
  8
0
 10
-59.9152
 20
-113.089
 11
-60.2945
 21
-113.494
  0
LINE
  8
0
 10
-60.2945
 20
-113.494
 11
-60.7389
 21
-113.833
  0
LINE
  8
0
 10
-60.7389
 20
-113.833
 11
-61.2483
 21
-114.106
  0
LINE
  8
0
 10
-61.2483
 20
-114.106
 11
-61.8227
 21
-114.313
  0
LINE
  8
0
 10
-61.8227
 20
-114.313
 11
-62.4622
 21
-114.454
  0
LINE
  8
0
 10
-62.4622
 20
-114.454
 11
-61.6922
 21
-114.665
  0
LINE
  8
0
 10
-61.6922
 20
-114.665
 11
-60.9942
 21
-114.952
  0
LINE
  8
0
 10
-60.9942
 20
-114.952
 11
-60.3682
 21
-115.314
  0
LINE
  8
0
 10
-60.3682
 20
-115.314
 11
-59.8142
 21
-115.752
  0
LINE
  8
0
 10
-59.8142
 20
-115.752
 11
-59.3322
 21
-116.265
  0
LINE
  8
0
 10
-59.3322
 20
-116.265
 11
-58.9305
 21
-116.843
  0
LINE
  8
0
 10
-58.9305
 20
-116.843
 11
-58.618
 21
-117.476
  0
LINE
  8
0
 10
-58.618
 20
-117.476
 11
-58.3948
 21
-118.164
  0
LINE
  8
0
 10
-58.3948
 20
-118.164
 11
-58.2608
 21
-118.907
  0
LINE
  8
0
 10
-58.2608
 20
-118.907
 11
-58.2162
 21
-119.704
  0
LINE
  8
0
 10
-58.2162
 20
-119.704
 11
-58.2898
 21
-120.74
  0
LINE
  8
0
 10
-58.2898
 20
-120.74
 11
-58.5105
 21
-121.678
  0
LINE
  8
0
 10
-58.5105
 20
-121.678
 11
-58.8783
 21
-122.516
  0
LINE
  8
0
 10
-58.8783
 20
-122.516
 11
-59.3932
 21
-123.256
  0
LINE
  8
0
 10
-59.3932
 20
-123.256
 11
-60.0552
 21
-123.897
  0
LINE
  8
0
 10
-60.0552
 20
-123.897
 11
-60.8526
 21
-124.429
  0
LINE
  8
0
 10
-60.8526
 20
-124.429
 11
-61.7744
 21
-124.843
  0
LINE
  8
0
 10
-61.7744
 20
-124.843
 11
-62.8206
 21
-125.139
  0
LINE
  8
0
 10
-62.8206
 20
-125.139
 11
-63.9912
 21
-125.316
  0
LINE
  8
0
 10
-63.9912
 20
-125.316
 11
-65.2862
 21
-125.375
  0
LINE
  8
0
 10
-65.2862
 20
-125.375
 11
-72.5522
 21
-125.375
  0
LINE
  8
0
 10
-65
 20
-113.441
 11
-64.3226
 21
-113.351
  0
LINE
  8
0
 10
-64.3226
 20
-113.351
 11
-63.7268
 21
-113.201
  0
LINE
  8
0
 10
-63.7268
 20
-113.201
 11
-63.2126
 21
-112.991
  0
LINE
  8
0
 10
-63.2126
 20
-112.991
 11
-62.7802
 21
-112.721
  0
LINE
  8
0
 10
-62.7802
 20
-112.721
 11
-62.4274
 21
-112.389
  0
LINE
  8
0
 10
-62.4274
 20
-112.389
 11
-62.153
 21
-111.995
  0
LINE
  8
0
 10
-62.153
 20
-111.995
 11
-61.957
 21
-111.537
  0
LINE
  8
0
 10
-61.957
 20
-111.537
 11
-61.8394
 21
-111.015
  0
LINE
  8
0
 10
-61.8394
 20
-111.015
 11
-61.8002
 21
-110.431
  0
LINE
  8
0
 10
-61.8002
 20
-110.431
 11
-61.8394
 21
-109.851
  0
LINE
  8
0
 10
-61.8394
 20
-109.851
 11
-61.957
 21
-109.333
  0
LINE
  8
0
 10
-61.957
 20
-109.333
 11
-62.153
 21
-108.876
  0
LINE
  8
0
 10
-62.153
 20
-108.876
 11
-62.4274
 21
-108.481
  0
LINE
  8
0
 10
-62.4274
 20
-108.481
 11
-62.7802
 21
-108.148
  0
LINE
  8
0
 10
-62.7802
 20
-108.148
 11
-63.2126
 21
-107.875
  0
LINE
  8
0
 10
-63.2126
 20
-107.875
 11
-63.7268
 21
-107.664
  0
LINE
  8
0
 10
-63.7268
 20
-107.664
 11
-64.3226
 21
-107.512
  0
LINE
  8
0
 10
-64.3226
 20
-107.512
 11
-65
 21
-107.421
  0
LINE
  8
0
 10
-65
 20
-107.421
 11
-65.7592
 21
-107.391
  0
LINE
  8
0
 10
-65.7592
 20
-107.391
 11
-69.8002
 21
-107.391
  0
LINE
  8
0
 10
-69.8002
 20
-107.391
 11
-69.8002
 21
-113.471
  0
LINE
  8
0
 10
-69.8002
 20
-113.471
 11
-65.7592
 21
-113.471
  0
LINE
  8
0
 10
-65.7592
 20
-113.471
 11
-65
 21
-113.441
  0
LINE
  8
0
 10
-64.5863
 20
-123.098
 11
-63.8419
 21
-122.988
  0
LINE
  8
0
 10
-63.8419
 20
-122.988
 11
-63.1889
 21
-122.805
  0
LINE
  8
0
 10
-63.1889
 20
-122.805
 11
-62.6273
 21
-122.549
  0
LINE
  8
0
 10
-62.6273
 20
-122.549
 11
-62.1572
 21
-122.219
  0
LINE
  8
0
 10
-62.1572
 20
-122.219
 11
-61.7753
 21
-121.814
  0
LINE
  8
0
 10
-61.7753
 20
-121.814
 11
-61.4782
 21
-121.331
  0
LINE
  8
0
 10
-61.4782
 20
-121.331
 11
-61.266
 21
-120.77
  0
LINE
  8
0
 10
-61.266
 20
-120.77
 11
-61.1386
 21
-120.132
  0
LINE
  8
0
 10
-61.1386
 20
-120.132
 11
-61.0962
 21
-119.416
  0
LINE
  8
0
 10
-61.0962
 20
-119.416
 11
-61.1386
 21
-118.696
  0
LINE
  8
0
 10
-61.1386
 20
-118.696
 11
-61.266
 21
-118.056
  0
LINE
  8
0
 10
-61.266
 20
-118.056
 11
-61.4782
 21
-117.495
  0
LINE
  8
0
 10
-61.4782
 20
-117.495
 11
-61.7753
 21
-117.015
  0
LINE
  8
0
 10
-61.7753
 20
-117.015
 11
-62.1572
 21
-116.614
  0
LINE
  8
0
 10
-62.1572
 20
-116.614
 11
-62.6273
 21
-116.289
  0
LINE
  8
0
 10
-62.6273
 20
-116.289
 11
-63.1889
 21
-116.036
  0
LINE
  8
0
 10
-63.1889
 20
-116.036
 11
-63.8419
 21
-115.855
  0
LINE
  8
0
 10
-63.8419
 20
-115.855
 11
-64.5863
 21
-115.747
  0
LINE
  8
0
 10
-64.5863
 20
-115.747
 11
-65.4222
 21
-115.711
  0
LINE
  8
0
 10
-65.4222
 20
-115.711
 11
-69.8002
 21
-115.711
  0
LINE
  8
0
 10
-69.8002
 20
-115.711
 11
-69.8002
 21
-123.135
  0
LINE
  8
0
 10
-69.8002
 20
-123.135
 11
-65.4222
 21
-123.135
  0
LINE
  8
0
 10
-65.4222
 20
-123.135
 11
-64.5863
 21
-123.098
  0
LINE
  8
0
 10
-104.817
 20
-125.375
 11
-104.817
 21
-105.151
  0
LINE
  8
0
 10
-104.817
 20
-105.151
 11
-92.0173
 21
-105.151
  0
LINE
  8
0
 10
-92.0173
 20
-105.151
 11
-92.0173
 21
-107.455
  0
LINE
  8
0
 10
-92.0173
 20
-107.455
 11
-102.065
 21
-107.455
  0
LINE
  8
0
 10
-102.065
 20
-107.455
 11
-102.065
 21
-113.407
  0
LINE
  8
0
 10
-102.065
 20
-113.407
 11
-92.4013
 21
-113.407
  0
LINE
  8
0
 10
-92.4013
 20
-113.407
 11
-92.4013
 21
-115.711
  0
LINE
  8
0
 10
-92.4013
 20
-115.711
 11
-102.065
 21
-115.711
  0
LINE
  8
0
 10
-102.065
 20
-115.711
 11
-102.065
 21
-123.071
  0
LINE
  8
0
 10
-102.065
 20
-123.071
 11
-91.7613
 21
-123.071
  0
LINE
  8
0
 10
-91.7613
 20
-123.071
 11
-91.7613
 21
-125.375
  0
LINE
  8
0
 10
-91.7613
 20
-125.375
 11
-104.817
 21
-125.375
  0
LINE
  8
0
 10
-133.248
 20
-125.375
 11
-133.248
 21
-105.151
  0
LINE
  8
0
 10
-133.248
 20
-105.151
 11
-130.496
 21
-105.151
  0
LINE
  8
0
 10
-130.496
 20
-105.151
 11
-130.496
 21
-125.375
  0
LINE
  8
0
 10
-130.496
 20
-125.375
 11
-133.248
 21
-125.375
  0
LINE
  8
0
 10
-7.39349
 20
-125.375
 11
-7.39349
 21
-105.151
  0
LINE
  8
0
 10
-7.39349
 20
-105.151
 11
-3.6835
 21
-105.151
  0
LINE
  8
0
 10
-3.6835
 20
-105.151
 11
5.21448
 21
-122.07
  0
LINE
  8
0
 10
5.21448
 20
-122.07
 11
5.21448
 21
-105.151
  0
LINE
  8
0
 10
5.21448
 20
-105.151
 11
7.90248
 21
-105.151
  0
LINE
  8
0
 10
7.90248
 20
-105.151
 11
7.90248
 21
-125.375
  0
LINE
  8
0
 10
7.90248
 20
-125.375
 11
4.19249
 21
-125.375
  0
LINE
  8
0
 10
4.19249
 20
-125.375
 11
-4.70551
 21
-108.456
  0
LINE
  8
0
 10
-4.70551
 20
-108.456
 11
-4.70551
 21
-125.375
  0
LINE
  8
0
 10
-4.70551
 20
-125.375
 11
-7.39349
 21
-125.375
  0
LINE
  8
0
 10
97.6094
 20
-127.958
 11
96.1054
 21
-127.616
  0
LINE
  8
0
 10
96.1054
 20
-127.616
 11
94.7388
 21
-127.047
  0
LINE
  8
0
 10
94.7388
 20
-127.047
 11
93.5096
 21
-126.25
  0
LINE
  8
0
 10
93.5096
 20
-126.25
 11
92.4177
 21
-125.225
  0
LINE
  8
0
 10
92.4177
 20
-125.225
 11
91.4972
 21
-124.009
  0
LINE
  8
0
 10
91.4972
 20
-124.009
 11
90.7812
 21
-122.637
  0
LINE
  8
0
 10
90.7812
 20
-122.637
 11
90.2698
 21
-121.108
  0
LINE
  8
0
 10
90.2698
 20
-121.108
 11
89.963
 21
-119.423
  0
LINE
  8
0
 10
89.963
 20
-119.423
 11
89.8607
 21
-117.582
  0
LINE
  8
0
 10
89.8607
 20
-117.582
 11
89.963
 21
-115.741
  0
LINE
  8
0
 10
89.963
 20
-115.741
 11
90.2698
 21
-114.055
  0
LINE
  8
0
 10
90.2698
 20
-114.055
 11
90.7812
 21
-112.525
  0
LINE
  8
0
 10
90.7812
 20
-112.525
 11
91.4972
 21
-111.151
  0
LINE
  8
0
 10
91.4972
 20
-111.151
 11
92.4177
 21
-109.933
  0
LINE
  8
0
 10
92.4177
 20
-109.933
 11
93.5096
 21
-108.905
  0
LINE
  8
0
 10
93.5096
 20
-108.905
 11
94.7388
 21
-108.107
  0
LINE
  8
0
 10
94.7388
 20
-108.107
 11
96.1054
 21
-107.536
  0
LINE
  8
0
 10
96.1054
 20
-107.536
 11
97.6094
 21
-107.194
  0
LINE
  8
0
 10
97.6094
 20
-107.194
 11
99.2507
 21
-107.08
  0
LINE
  8
0
 10
99.2507
 20
-107.08
 11
100.886
 21
-107.194
  0
LINE
  8
0
 10
100.886
 20
-107.194
 11
102.385
 21
-107.536
  0
LINE
  8
0
 10
102.385
 20
-107.536
 11
103.747
 21
-108.107
  0
LINE
  8
0
 10
103.747
 20
-108.107
 11
104.973
 21
-108.905
  0
LINE
  8
0
 10
104.973
 20
-108.905
 11
106.062
 21
-109.933
  0
LINE
  8
0
 10
106.062
 20
-109.933
 11
106.98
 21
-111.151
  0
LINE
  8
0
 10
106.98
 20
-111.151
 11
107.694
 21
-112.525
  0
LINE
  8
0
 10
107.694
 20
-112.525
 11
108.205
 21
-114.055
  0
LINE
  8
0
 10
108.205
 20
-114.055
 11
108.511
 21
-115.741
  0
LINE
  8
0
 10
108.511
 20
-115.741
 11
108.613
 21
-117.582
  0
LINE
  8
0
 10
108.613
 20
-117.582
 11
108.511
 21
-119.419
  0
LINE
  8
0
 10
108.511
 20
-119.419
 11
108.205
 21
-121.101
  0
LINE
  8
0
 10
108.205
 20
-121.101
 11
107.694
 21
-122.628
  0
LINE
  8
0
 10
107.694
 20
-122.628
 11
106.98
 21
-124.001
  0
LINE
  8
0
 10
106.98
 20
-124.001
 11
106.062
 21
-125.219
  0
LINE
  8
0
 10
106.062
 20
-125.219
 11
104.973
 21
-126.246
  0
LINE
  8
0
 10
104.973
 20
-126.246
 11
103.747
 21
-127.045
  0
LINE
  8
0
 10
103.747
 20
-127.045
 11
102.385
 21
-127.615
  0
LINE
  8
0
 10
102.385
 20
-127.615
 11
100.886
 21
-127.957
  0
LINE
  8
0
 10
100.886
 20
-127.957
 11
99.2507
 21
-128.071
  0
LINE
  8
0
 10
99.2507
 20
-128.071
 11
97.6094
 21
-127.958
  0
LINE
  8
0
 10
100.397
 20
-125.743
 11
101.443
 21
-125.477
  0
LINE
  8
0
 10
101.443
 20
-125.477
 11
102.39
 21
-125.033
  0
LINE
  8
0
 10
102.39
 20
-125.033
 11
103.238
 21
-124.412
  0
LINE
  8
0
 10
103.238
 20
-124.412
 11
103.986
 21
-123.613
  0
LINE
  8
0
 10
103.986
 20
-123.613
 11
104.615
 21
-122.662
  0
LINE
  8
0
 10
104.615
 20
-122.662
 11
105.104
 21
-121.584
  0
LINE
  8
0
 10
105.104
 20
-121.584
 11
105.453
 21
-120.378
  0
LINE
  8
0
 10
105.453
 20
-120.378
 11
105.663
 21
-119.044
  0
LINE
  8
0
 10
105.663
 20
-119.044
 11
105.733
 21
-117.582
  0
LINE
  8
0
 10
105.733
 20
-117.582
 11
105.663
 21
-116.116
  0
LINE
  8
0
 10
105.663
 20
-116.116
 11
105.453
 21
-114.778
  0
LINE
  8
0
 10
105.453
 20
-114.778
 11
105.104
 21
-113.569
  0
LINE
  8
0
 10
105.104
 20
-113.569
 11
104.615
 21
-112.489
  0
LINE
  8
0
 10
104.615
 20
-112.489
 11
103.986
 21
-111.538
  0
LINE
  8
0
 10
103.986
 20
-111.538
 11
103.238
 21
-110.739
  0
LINE
  8
0
 10
103.238
 20
-110.739
 11
102.39
 21
-110.118
  0
LINE
  8
0
 10
102.39
 20
-110.118
 11
101.443
 21
-109.674
  0
LINE
  8
0
 10
101.443
 20
-109.674
 11
100.397
 21
-109.408
  0
LINE
  8
0
 10
100.397
 20
-109.408
 11
99.2507
 21
-109.32
  0
LINE
  8
0
 10
99.2507
 20
-109.32
 11
98.1039
 21
-109.408
  0
LINE
  8
0
 10
98.1039
 20
-109.408
 11
97.0555
 21
-109.674
  0
LINE
  8
0
 10
97.0555
 20
-109.674
 11
96.1055
 21
-110.118
  0
LINE
  8
0
 10
96.1055
 20
-110.118
 11
95.2539
 21
-110.739
  0
LINE
  8
0
 10
95.2539
 20
-110.739
 11
94.5007
 21
-111.538
  0
LINE
  8
0
 10
94.5007
 20
-111.538
 11
93.8671
 21
-112.489
  0
LINE
  8
0
 10
93.8671
 20
-112.489
 11
93.3743
 21
-113.569
  0
LINE
  8
0
 10
93.3743
 20
-113.569
 11
93.0223
 21
-114.778
  0
LINE
  8
0
 10
93.0223
 20
-114.778
 11
92.8111
 21
-116.116
  0
LINE
  8
0
 10
92.8111
 20
-116.116
 11
92.7407
 21
-117.582
  0
LINE
  8
0
 10
92.7407
 20
-117.582
 11
92.8111
 21
-119.044
  0
LINE
  8
0
 10
92.8111
 20
-119.044
 11
93.0223
 21
-120.378
  0
LINE
  8
0
 10
93.0223
 20
-120.378
 11
93.3743
 21
-121.584
  0
LINE
  8
0
 10
93.3743
 20
-121.584
 11
93.8671
 21
-122.662
  0
LINE
  8
0
 10
93.8671
 20
-122.662
 11
94.5007
 21
-123.613
  0
LINE
  8
0
 10
94.5007
 20
-123.613
 11
95.2539
 21
-124.412
  0
LINE
  8
0
 10
95.2539
 20
-124.412
 11
96.1055
 21
-125.033
  0
LINE
  8
0
 10
96.1055
 20
-125.033
 11
97.0555
 21
-125.477
  0
LINE
  8
0
 10
97.0555
 20
-125.477
 11
98.1039
 21
-125.743
  0
LINE
  8
0
 10
98.1039
 20
-125.743
 11
99.2507
 21
-125.831
  0
LINE
  8
0
 10
99.2507
 20
-125.831
 11
100.397
 21
-125.743
  0
LINE
  8
0
 10
97.7973
 20
-158.491
 11
96.4886
 21
-158.248
  0
LINE
  8
0
 10
96.4886
 20
-158.248
 11
95.33
 21
-157.844
  0
LINE
  8
0
 10
95.33
 20
-157.844
 11
94.3215
 21
-157.278
  0
LINE
  8
0
 10
94.3215
 20
-157.278
 11
93.4633
 21
-156.55
  0
LINE
  8
0
 10
93.4633
 20
-156.55
 11
92.7584
 21
-155.665
  0
LINE
  8
0
 10
92.7584
 20
-155.665
 11
92.2101
 21
-154.623
  0
LINE
  8
0
 10
92.2101
 20
-154.623
 11
91.8185
 21
-153.427
  0
LINE
  8
0
 10
91.8185
 20
-153.427
 11
91.5836
 21
-152.076
  0
LINE
  8
0
 10
91.5836
 20
-152.076
 11
91.5052
 21
-150.569
  0
LINE
  8
0
 10
91.5052
 20
-150.569
 11
91.5052
 21
-137.964
  0
LINE
  8
0
 10
91.5052
 20
-137.964
 11
94.2572
 21
-137.964
  0
LINE
  8
0
 10
94.2572
 20
-137.964
 11
94.2572
 21
-150.231
  0
LINE
  8
0
 10
94.2572
 20
-150.231
 11
94.3044
 21
-151.457
  0
LINE
  8
0
 10
94.3044
 20
-151.457
 11
94.4457
 21
-152.537
  0
LINE
  8
0
 10
94.4457
 20
-152.537
 11
94.6813
 21
-153.472
  0
LINE
  8
0
 10
94.6813
 20
-153.472
 11
95.0112
 21
-154.261
  0
LINE
  8
0
 10
95.0112
 20
-154.261
 11
95.4353
 21
-154.904
  0
LINE
  8
0
 10
95.4353
 20
-154.904
 11
95.9654
 21
-155.418
  0
LINE
  8
0
 10
95.9654
 20
-155.418
 11
96.6125
 21
-155.818
  0
LINE
  8
0
 10
96.6125
 20
-155.818
 11
97.3767
 21
-156.103
  0
LINE
  8
0
 10
97.3767
 20
-156.103
 11
98.258
 21
-156.274
  0
LINE
  8
0
 10
98.258
 20
-156.274
 11
99.2562
 21
-156.331
  0
LINE
  8
0
 10
99.2562
 20
-156.331
 11
100.249
 21
-156.274
  0
LINE
  8
0
 10
100.249
 20
-156.274
 11
101.127
 21
-156.103
  0
LINE
  8
0
 10
101.127
 20
-156.103
 11
101.888
 21
-155.818
  0
LINE
  8
0
 10
101.888
 20
-155.818
 11
102.533
 21
-155.418
  0
LINE
  8
0
 10
102.533
 20
-155.418
 11
103.062
 21
-154.904
  0
LINE
  8
0
 10
103.062
 20
-154.904
 11
103.487
 21
-154.261
  0
LINE
  8
0
 10
103.487
 20
-154.261
 11
103.817
 21
-153.472
  0
LINE
  8
0
 10
103.817
 20
-153.472
 11
104.053
 21
-152.537
  0
LINE
  8
0
 10
104.053
 20
-152.537
 11
104.194
 21
-151.457
  0
LINE
  8
0
 10
104.194
 20
-151.457
 11
104.241
 21
-150.231
  0
LINE
  8
0
 10
104.241
 20
-150.231
 11
104.241
 21
-137.964
  0
LINE
  8
0
 10
104.241
 20
-137.964
 11
106.993
 21
-137.964
  0
LINE
  8
0
 10
106.993
 20
-137.964
 11
106.993
 21
-150.569
  0
LINE
  8
0
 10
106.993
 20
-150.569
 11
106.915
 21
-152.076
  0
LINE
  8
0
 10
106.915
 20
-152.076
 11
106.68
 21
-153.427
  0
LINE
  8
0
 10
106.68
 20
-153.427
 11
106.288
 21
-154.623
  0
LINE
  8
0
 10
106.288
 20
-154.623
 11
105.74
 21
-155.665
  0
LINE
  8
0
 10
105.74
 20
-155.665
 11
105.035
 21
-156.55
  0
LINE
  8
0
 10
105.035
 20
-156.55
 11
104.178
 21
-157.278
  0
LINE
  8
0
 10
104.178
 20
-157.278
 11
103.171
 21
-157.844
  0
LINE
  8
0
 10
103.171
 20
-157.844
 11
102.015
 21
-158.248
  0
LINE
  8
0
 10
102.015
 20
-158.248
 11
100.71
 21
-158.491
  0
LINE
  8
0
 10
100.71
 20
-158.491
 11
99.2562
 21
-158.571
  0
LINE
  8
0
 10
99.2562
 20
-158.571
 11
97.7973
 21
-158.491
  0
LINE
  8
0
 10
-1.20267
 20
-158.491
 11
-2.51143
 21
-158.248
  0
LINE
  8
0
 10
-2.51143
 20
-158.248
 11
-3.67003
 21
-157.844
  0
LINE
  8
0
 10
-3.67003
 20
-157.844
 11
-4.67847
 21
-157.278
  0
LINE
  8
0
 10
-4.67847
 20
-157.278
 11
-5.53674
 21
-156.55
  0
LINE
  8
0
 10
-5.53674
 20
-156.55
 11
-6.24162
 21
-155.665
  0
LINE
  8
0
 10
-6.24162
 20
-155.665
 11
-6.78987
 21
-154.623
  0
LINE
  8
0
 10
-6.78987
 20
-154.623
 11
-7.18147
 21
-153.427
  0
LINE
  8
0
 10
-7.18147
 20
-153.427
 11
-7.41643
 21
-152.076
  0
LINE
  8
0
 10
-7.41643
 20
-152.076
 11
-7.49475
 21
-150.569
  0
LINE
  8
0
 10
-7.49475
 20
-150.569
 11
-7.49475
 21
-137.964
  0
LINE
  8
0
 10
-7.49475
 20
-137.964
 11
-4.74275
 21
-137.964
  0
LINE
  8
0
 10
-4.74275
 20
-137.964
 11
-4.74275
 21
-150.231
  0
LINE
  8
0
 10
-4.74275
 20
-150.231
 11
-4.69563
 21
-151.457
  0
LINE
  8
0
 10
-4.69563
 20
-151.457
 11
-4.55428
 21
-152.537
  0
LINE
  8
0
 10
-4.55428
 20
-152.537
 11
-4.31866
 21
-153.472
  0
LINE
  8
0
 10
-4.31866
 20
-153.472
 11
-3.98883
 21
-154.261
  0
LINE
  8
0
 10
-3.98883
 20
-154.261
 11
-3.56474
 21
-154.904
  0
LINE
  8
0
 10
-3.56474
 20
-154.904
 11
-3.03464
 21
-155.418
  0
LINE
  8
0
 10
-3.03464
 20
-155.418
 11
-2.38747
 21
-155.818
  0
LINE
  8
0
 10
-2.38747
 20
-155.818
 11
-1.62328
 21
-156.103
  0
LINE
  8
0
 10
-1.62328
 20
-156.103
 11
-0.742035
 21
-156.274
  0
LINE
  8
0
 10
-0.742035
 20
-156.274
 11
0.256241
 21
-156.331
  0
LINE
  8
0
 10
0.256241
 20
-156.331
 11
1.24944
 21
-156.274
  0
LINE
  8
0
 10
1.24944
 20
-156.274
 11
2.12663
 21
-156.103
  0
LINE
  8
0
 10
2.12663
 20
-156.103
 11
2.88783
 21
-155.818
  0
LINE
  8
0
 10
2.88783
 20
-155.818
 11
3.53304
 21
-155.418
  0
LINE
  8
0
 10
3.53304
 20
-155.418
 11
4.06224
 21
-154.904
  0
LINE
  8
0
 10
4.06224
 20
-154.904
 11
4.48668
 21
-154.261
  0
LINE
  8
0
 10
4.48668
 20
-154.261
 11
4.81679
 21
-153.472
  0
LINE
  8
0
 10
4.81679
 20
-153.472
 11
5.0526
 21
-152.537
  0
LINE
  8
0
 10
5.0526
 20
-152.537
 11
5.19408
 21
-151.457
  0
LINE
  8
0
 10
5.19408
 20
-151.457
 11
5.24124
 21
-150.231
  0
LINE
  8
0
 10
5.24124
 20
-150.231
 11
5.24124
 21
-137.964
  0
LINE
  8
0
 10
5.24124
 20
-137.964
 11
7.99324
 21
-137.964
  0
LINE
  8
0
 10
7.99324
 20
-137.964
 11
7.99324
 21
-150.569
  0
LINE
  8
0
 10
7.99324
 20
-150.569
 11
7.91492
 21
-152.076
  0
LINE
  8
0
 10
7.91492
 20
-152.076
 11
7.67996
 21
-153.427
  0
LINE
  8
0
 10
7.67996
 20
-153.427
 11
7.28836
 21
-154.623
  0
LINE
  8
0
 10
7.28836
 20
-154.623
 11
6.74011
 21
-155.665
  0
LINE
  8
0
 10
6.74011
 20
-155.665
 11
6.03523
 21
-156.55
  0
LINE
  8
0
 10
6.03523
 20
-156.55
 11
5.17752
 21
-157.278
  0
LINE
  8
0
 10
5.17752
 20
-157.278
 11
4.17076
 21
-157.844
  0
LINE
  8
0
 10
4.17076
 20
-157.844
 11
3.01495
 21
-158.248
  0
LINE
  8
0
 10
3.01495
 20
-158.248
 11
1.71011
 21
-158.491
  0
LINE
  8
0
 10
1.71011
 20
-158.491
 11
0.256241
 21
-158.571
  0
LINE
  8
0
 10
0.256241
 20
-158.571
 11
-1.20267
 21
-158.491
  0
LINE
  8
0
 10
-137.817
 20
-158.375
 11
-137.817
 21
-138.151
  0
LINE
  8
0
 10
-137.817
 20
-138.151
 11
-125.017
 21
-138.151
  0
LINE
  8
0
 10
-125.017
 20
-138.151
 11
-125.017
 21
-140.455
  0
LINE
  8
0
 10
-125.017
 20
-140.455
 11
-135.065
 21
-140.455
  0
LINE
  8
0
 10
-135.065
 20
-140.455
 11
-135.065
 21
-146.407
  0
LINE
  8
0
 10
-135.065
 20
-146.407
 11
-125.401
 21
-146.407
  0
LINE
  8
0
 10
-125.401
 20
-146.407
 11
-125.401
 21
-148.711
  0
LINE
  8
0
 10
-125.401
 20
-148.711
 11
-135.065
 21
-148.711
  0
LINE
  8
0
 10
-135.065
 20
-148.711
 11
-135.065
 21
-156.071
  0
LINE
  8
0
 10
-135.065
 20
-156.071
 11
-124.761
 21
-156.071
  0
LINE
  8
0
 10
-124.761
 20
-156.071
 11
-124.761
 21
-158.375
  0
LINE
  8
0
 10
-124.761
 20
-158.375
 11
-137.817
 21
-158.375
  0
LINE
  8
0
 10
158.329
 20
-158.375
 11
158.329
 21
-138.151
  0
LINE
  8
0
 10
158.329
 20
-138.151
 11
164.516
 21
-138.151
  0
LINE
  8
0
 10
164.516
 20
-138.151
 11
165.83
 21
-138.209
  0
LINE
  8
0
 10
165.83
 20
-138.209
 11
167.004
 21
-138.384
  0
LINE
  8
0
 10
167.004
 20
-138.384
 11
168.037
 21
-138.675
  0
LINE
  8
0
 10
168.037
 20
-138.675
 11
168.929
 21
-139.082
  0
LINE
  8
0
 10
168.929
 20
-139.082
 11
169.681
 21
-139.606
  0
LINE
  8
0
 10
169.681
 20
-139.606
 11
170.294
 21
-140.247
  0
LINE
  8
0
 10
170.294
 20
-140.247
 11
170.771
 21
-141.006
  0
LINE
  8
0
 10
170.771
 20
-141.006
 11
171.112
 21
-141.885
  0
LINE
  8
0
 10
171.112
 20
-141.885
 11
171.316
 21
-142.882
  0
LINE
  8
0
 10
171.316
 20
-142.882
 11
171.385
 21
-143.997
  0
LINE
  8
0
 10
171.385
 20
-143.997
 11
171.349
 21
-144.738
  0
LINE
  8
0
 10
171.349
 20
-144.738
 11
171.243
 21
-145.426
  0
LINE
  8
0
 10
171.243
 20
-145.426
 11
171.066
 21
-146.063
  0
LINE
  8
0
 10
171.066
 20
-146.063
 11
170.818
 21
-146.647
  0
LINE
  8
0
 10
170.818
 20
-146.647
 11
170.499
 21
-147.179
  0
LINE
  8
0
 10
170.499
 20
-147.179
 11
170.112
 21
-147.654
  0
LINE
  8
0
 10
170.112
 20
-147.654
 11
169.662
 21
-148.066
  0
LINE
  8
0
 10
169.662
 20
-148.066
 11
169.147
 21
-148.417
  0
LINE
  8
0
 10
169.147
 20
-148.417
 11
168.567
 21
-148.705
  0
LINE
  8
0
 10
168.567
 20
-148.705
 11
167.924
 21
-148.932
  0
LINE
  8
0
 10
167.924
 20
-148.932
 11
168.273
 21
-149.078
  0
LINE
  8
0
 10
168.273
 20
-149.078
 11
168.619
 21
-149.277
  0
LINE
  8
0
 10
168.619
 20
-149.277
 11
168.961
 21
-149.531
  0
LINE
  8
0
 10
168.961
 20
-149.531
 11
169.299
 21
-149.839
  0
LINE
  8
0
 10
169.299
 20
-149.839
 11
169.634
 21
-150.2
  0
LINE
  8
0
 10
169.634
 20
-150.2
 11
169.967
 21
-150.618
  0
LINE
  8
0
 10
169.967
 20
-150.618
 11
170.3
 21
-151.093
  0
LINE
  8
0
 10
170.3
 20
-151.093
 11
170.634
 21
-151.628
  0
LINE
  8
0
 10
170.634
 20
-151.628
 11
170.969
 21
-152.22
  0
LINE
  8
0
 10
170.969
 20
-152.22
 11
171.304
 21
-152.871
  0
LINE
  8
0
 10
171.304
 20
-152.871
 11
174.073
 21
-158.375
  0
LINE
  8
0
 10
174.073
 20
-158.375
 11
171.142
 21
-158.375
  0
LINE
  8
0
 10
171.142
 20
-158.375
 11
168.559
 21
-153.208
  0
LINE
  8
0
 10
168.559
 20
-153.208
 11
168.161
 21
-152.453
  0
LINE
  8
0
 10
168.161
 20
-152.453
 11
167.768
 21
-151.808
  0
LINE
  8
0
 10
167.768
 20
-151.808
 11
167.379
 21
-151.271
  0
LINE
  8
0
 10
167.379
 20
-151.271
 11
166.996
 21
-150.843
  0
LINE
  8
0
 10
166.996
 20
-150.843
 11
166.618
 21
-150.524
  0
LINE
  8
0
 10
166.618
 20
-150.524
 11
166.215
 21
-150.286
  0
LINE
  8
0
 10
166.215
 20
-150.286
 11
165.757
 21
-150.101
  0
LINE
  8
0
 10
165.757
 20
-150.101
 11
165.245
 21
-149.969
  0
LINE
  8
0
 10
165.245
 20
-149.969
 11
164.678
 21
-149.889
  0
LINE
  8
0
 10
164.678
 20
-149.889
 11
164.056
 21
-149.863
  0
LINE
  8
0
 10
164.056
 20
-149.863
 11
161.081
 21
-149.863
  0
LINE
  8
0
 10
161.081
 20
-149.863
 11
161.081
 21
-158.375
  0
LINE
  8
0
 10
161.081
 20
-158.375
 11
158.329
 21
-158.375
  0
LINE
  8
0
 10
165.267
 20
-147.586
 11
165.94
 21
-147.476
  0
LINE
  8
0
 10
165.94
 20
-147.476
 11
166.536
 21
-147.291
  0
LINE
  8
0
 10
166.536
 20
-147.291
 11
167.055
 21
-147.034
  0
LINE
  8
0
 10
167.055
 20
-147.034
 11
167.497
 21
-146.702
  0
LINE
  8
0
 10
167.497
 20
-146.702
 11
167.86
 21
-146.299
  0
LINE
  8
0
 10
167.86
 20
-146.299
 11
168.142
 21
-145.826
  0
LINE
  8
0
 10
168.142
 20
-145.826
 11
168.343
 21
-145.285
  0
LINE
  8
0
 10
168.343
 20
-145.285
 11
168.464
 21
-144.674
  0
LINE
  8
0
 10
168.464
 20
-144.674
 11
168.505
 21
-143.993
  0
LINE
  8
0
 10
168.505
 20
-143.993
 11
168.464
 21
-143.313
  0
LINE
  8
0
 10
168.464
 20
-143.313
 11
168.343
 21
-142.704
  0
LINE
  8
0
 10
168.343
 20
-142.704
 11
168.142
 21
-142.165
  0
LINE
  8
0
 10
168.142
 20
-142.165
 11
167.86
 21
-141.697
  0
LINE
  8
0
 10
167.86
 20
-141.697
 11
167.497
 21
-141.299
  0
LINE
  8
0
 10
167.497
 20
-141.299
 11
167.055
 21
-140.972
  0
LINE
  8
0
 10
167.055
 20
-140.972
 11
166.536
 21
-140.718
  0
LINE
  8
0
 10
166.536
 20
-140.718
 11
165.94
 21
-140.536
  0
LINE
  8
0
 10
165.94
 20
-140.536
 11
165.267
 21
-140.427
  0
LINE
  8
0
 10
165.267
 20
-140.427
 11
164.516
 21
-140.391
  0
LINE
  8
0
 10
164.516
 20
-140.391
 11
161.081
 21
-140.391
  0
LINE
  8
0
 10
161.081
 20
-140.391
 11
161.081
 21
-147.623
  0
LINE
  8
0
 10
161.081
 20
-147.623
 11
164.516
 21
-147.623
  0
LINE
  8
0
 10
164.516
 20
-147.623
 11
165.267
 21
-147.586
  0
LINE
  8
0
 10
124.554
 20
-158.375
 11
124.554
 21
-138.151
  0
LINE
  8
0
 10
124.554
 20
-138.151
 11
127.306
 21
-138.151
  0
LINE
  8
0
 10
127.306
 20
-138.151
 11
127.306
 21
-146.407
  0
LINE
  8
0
 10
127.306
 20
-146.407
 11
137.226
 21
-146.407
  0
LINE
  8
0
 10
137.226
 20
-146.407
 11
137.226
 21
-138.151
  0
LINE
  8
0
 10
137.226
 20
-138.151
 11
139.978
 21
-138.151
  0
LINE
  8
0
 10
139.978
 20
-138.151
 11
139.978
 21
-158.375
  0
LINE
  8
0
 10
139.978
 20
-158.375
 11
137.226
 21
-158.375
  0
LINE
  8
0
 10
137.226
 20
-158.375
 11
137.226
 21
-148.711
  0
LINE
  8
0
 10
137.226
 20
-148.711
 11
127.306
 21
-148.711
  0
LINE
  8
0
 10
127.306
 20
-148.711
 11
127.306
 21
-158.375
  0
LINE
  8
0
 10
127.306
 20
-158.375
 11
124.554
 21
-158.375
  0
LINE
  8
0
 10
59.8585
 20
-158.375
 11
59.8585
 21
-138.151
  0
LINE
  8
0
 10
59.8585
 20
-138.151
 11
62.6105
 21
-138.151
  0
LINE
  8
0
 10
62.6105
 20
-138.151
 11
62.6105
 21
-146.698
  0
LINE
  8
0
 10
62.6105
 20
-146.698
 11
71.6934
 21
-138.151
  0
LINE
  8
0
 10
71.6934
 20
-138.151
 11
75.2184
 21
-138.151
  0
LINE
  8
0
 10
75.2184
 20
-138.151
 11
65.1725
 21
-147.579
  0
LINE
  8
0
 10
65.1725
 20
-147.579
 11
75.9224
 21
-158.375
  0
LINE
  8
0
 10
75.9224
 20
-158.375
 11
72.3204
 21
-158.375
  0
LINE
  8
0
 10
72.3204
 20
-158.375
 11
62.6105
 21
-148.636
  0
LINE
  8
0
 10
62.6105
 20
-148.636
 11
62.6105
 21
-158.375
  0
LINE
  8
0
 10
62.6105
 20
-158.375
 11
59.8585
 21
-158.375
  0
LINE
  8
0
 10
25.6065
 20
-158.375
 11
25.6065
 21
-138.151
  0
LINE
  8
0
 10
25.6065
 20
-138.151
 11
29.3165
 21
-138.151
  0
LINE
  8
0
 10
29.3165
 20
-138.151
 11
38.2145
 21
-155.07
  0
LINE
  8
0
 10
38.2145
 20
-155.07
 11
38.2145
 21
-138.151
  0
LINE
  8
0
 10
38.2145
 20
-138.151
 11
40.9025
 21
-138.151
  0
LINE
  8
0
 10
40.9025
 20
-138.151
 11
40.9025
 21
-158.375
  0
LINE
  8
0
 10
40.9025
 20
-158.375
 11
37.1925
 21
-158.375
  0
LINE
  8
0
 10
37.1925
 20
-158.375
 11
28.2945
 21
-141.456
  0
LINE
  8
0
 10
28.2945
 20
-141.456
 11
28.2945
 21
-158.375
  0
LINE
  8
0
 10
28.2945
 20
-158.375
 11
25.6065
 21
-158.375
  0
LINE
  8
0
 10
-38.8173
 20
-158.375
 11
-38.8173
 21
-138.151
  0
LINE
  8
0
 10
-38.8173
 20
-138.151
 11
-26.0173
 21
-138.151
  0
LINE
  8
0
 10
-26.0173
 20
-138.151
 11
-26.0173
 21
-140.455
  0
LINE
  8
0
 10
-26.0173
 20
-140.455
 11
-36.0653
 21
-140.455
  0
LINE
  8
0
 10
-36.0653
 20
-140.455
 11
-36.0653
 21
-146.407
  0
LINE
  8
0
 10
-36.0653
 20
-146.407
 11
-26.4013
 21
-146.407
  0
LINE
  8
0
 10
-26.4013
 20
-146.407
 11
-26.4013
 21
-148.711
  0
LINE
  8
0
 10
-26.4013
 20
-148.711
 11
-36.0653
 21
-148.711
  0
LINE
  8
0
 10
-36.0653
 20
-148.711
 11
-36.0653
 21
-156.071
  0
LINE
  8
0
 10
-36.0653
 20
-156.071
 11
-25.7613
 21
-156.071
  0
LINE
  8
0
 10
-25.7613
 20
-156.071
 11
-25.7613
 21
-158.375
  0
LINE
  8
0
 10
-25.7613
 20
-158.375
 11
-38.8173
 21
-158.375
  0
LINE
  8
0
 10
-73.3935
 20
-158.375
 11
-73.3935
 21
-138.151
  0
LINE
  8
0
 10
-73.3935
 20
-138.151
 11
-69.6835
 21
-138.151
  0
LINE
  8
0
 10
-69.6835
 20
-138.151
 11
-60.7855
 21
-155.07
  0
LINE
  8
0
 10
-60.7855
 20
-155.07
 11
-60.7855
 21
-138.151
  0
LINE
  8
0
 10
-60.7855
 20
-138.151
 11
-58.0975
 21
-138.151
  0
LINE
  8
0
 10
-58.0975
 20
-138.151
 11
-58.0975
 21
-158.375
  0
LINE
  8
0
 10
-58.0975
 20
-158.375
 11
-61.8075
 21
-158.375
  0
LINE
  8
0
 10
-61.8075
 20
-158.375
 11
-70.7055
 21
-141.456
  0
LINE
  8
0
 10
-70.7055
 20
-141.456
 11
-70.7055
 21
-158.375
  0
LINE
  8
0
 10
-70.7055
 20
-158.375
 11
-73.3935
 21
-158.375
  0
LINE
  8
0
 10
-106.446
 20
-158.375
 11
-106.446
 21
-138.151
  0
LINE
  8
0
 10
-106.446
 20
-138.151
 11
-103.694
 21
-138.151
  0
LINE
  8
0
 10
-103.694
 20
-138.151
 11
-103.694
 21
-146.407
  0
LINE
  8
0
 10
-103.694
 20
-146.407
 11
-93.7742
 21
-146.407
  0
LINE
  8
0
 10
-93.7742
 20
-146.407
 11
-93.7742
 21
-138.151
  0
LINE
  8
0
 10
-93.7742
 20
-138.151
 11
-91.0222
 21
-138.151
  0
LINE
  8
0
 10
-91.0222
 20
-138.151
 11
-91.0222
 21
-158.375
  0
LINE
  8
0
 10
-91.0222
 20
-158.375
 11
-93.7742
 21
-158.375
  0
LINE
  8
0
 10
-93.7742
 20
-158.375
 11
-93.7742
 21
-148.711
  0
LINE
  8
0
 10
-93.7742
 20
-148.711
 11
-103.694
 21
-148.711
  0
LINE
  8
0
 10
-103.694
 20
-148.711
 11
-103.694
 21
-158.375
  0
LINE
  8
0
 10
-103.694
 20
-158.375
 11
-106.446
 21
-158.375
  0
LINE
  8
0
 10
-173.011
 20
-158.375
 11
-173.011
 21
-156.289
  0
LINE
  8
0
 10
-173.011
 20
-156.289
 11
-160.229
 21
-140.455
  0
LINE
  8
0
 10
-160.229
 20
-140.455
 11
-172.691
 21
-140.455
  0
LINE
  8
0
 10
-172.691
 20
-140.455
 11
-172.691
 21
-138.151
  0
LINE
  8
0
 10
-172.691
 20
-138.151
 11
-156.819
 21
-138.151
  0
LINE
  8
0
 10
-156.819
 20
-138.151
 11
-156.819
 21
-140.237
  0
LINE
  8
0
 10
-156.819
 20
-140.237
 11
-169.592
 21
-156.071
  0
LINE
  8
0
 10
-169.592
 20
-156.071
 11
-156.499
 21
-156.071
  0
LINE
  8
0
 10
-156.499
 20
-156.071
 11
-156.499
 21
-158.375
  0
LINE
  8
0
 10
-156.499
 20
-158.375
 11
-173.011
 21
-158.375
  0
ENDSEC
  0
SECTION
  2
OBJECTS
  0
DICTIONARY
  0
ENDSEC
  0
EOF
